<?xml version="1.0" encoding="utf-8"?>
<!-- Generator: Adobe Illustrator 24.3.0, SVG Export Plug-In . SVG Version: 6.00 Build 0)  -->
<svg version="1.1" id="Layer_1" xmlns="http://www.w3.org/2000/svg" xmlns:xlink="http://www.w3.org/1999/xlink" x="0px" y="0px"
	 viewBox="0 0 600 420" style="enable-background:new 0 0 600 420;" xml:space="preserve">
<style type="text/css">
	.st0{fill-rule:evenodd;clip-rule:evenodd;fill:#373738;}
	.st1{fill:#373738;}
	.st2{fill-rule:evenodd;clip-rule:evenodd;fill:#C41230;}
	.st3{fill-rule:evenodd;clip-rule:evenodd;fill:#FFFFFF;}
	.st4{fill:#C41230;}
</style>
<path class="st0" d="M122.1,348.8c-5.9,2.4-9.8,8.2-9.8,14.6v46.2H65.6v-46.5c0-8.7,7.1-15.8,15.8-15.8h40.7V348.8z"/>
<path class="st0" d="M115.9,355.8c-2.7,5.1-1.9,6-1.7,21.7c0,2.7,0.2,31.9-0.1,32.8c-0.1,0.3-0.3,0.7-0.6,0.9
	c-0.9,0.7,3.2,0.5-47.9,0.5c-1,0-1.8-0.7-1.9-1.6c0-0.4-0.1-47,0-48.2c0.5-6.7,4.8-12.4,11-14.9c4.5-1.7,5.2-1.3,27.8-1
	c21.3,0.3,19.7,0.2,20.2,0.5c0.4,0.2,0.6,0.6,0.6,1.1c0,1.7,0,1.4,0,1.7c-0.1,0.4-0.3,0.8-0.7,0.9l0,0
	C119.7,351.1,117.4,353.2,115.9,355.8z M101.6,348.6v0.3l-20.2,0.2c-6.6,0.1-12.2,4.7-13.5,11.2c-0.4,1.9-0.3-2-0.3,47.4h42.8
	c0-45.3,0-47.3,1.7-50.9c1.6-3.5,4.2-6.4,7.6-8.2L101.6,348.6z"/>
<path class="st0" d="M371.3,112.8l0.7,0.5c0.3,1.8,0.1-0.2-0.7,6.3c-0.7,4.3-1.1,11.8-1.1,12.4c-0.9,15.2,1.4,31.7,15.3,38.1
	c3.8,1.6,4.7,1.1,5.7,2.2c0.6,1,0.4,0.4,0.5,6.7c0,8.4,0.6,23.3,0.6,24c-0.1,0.7-0.6,1.2-1.3,1.3c-1.9,0.2-3.8,0.5-5.7,0.9l-0.9-0.2
	l-0.5-0.8v0l0.2-0.9l0.8-0.6l0,0c1.5-0.4,3-0.8,4.6-1.1c0-0.2-1.6-14.3-1.6-26.5c-7.6-2-13.7-7-17.6-15.5c-2-4.6-3.2-9.5-3.6-14.5
	c-0.7-6.5-0.5-13.1,0.6-19.5c0.6-4,1.6-7.9,2.8-11.8l0.6-0.7L371.3,112.8L371.3,112.8z"/>
<path class="st0" d="M434.6,122.5c5.3,1.5,9,6.2,9.3,11.7c0,0.6,0,1.2-0.1,1.8c-0.2,1.9-0.8,3.7-1.8,5.4c-3.7,5.5-9,7.3-15.6,8.3
	c-2,7-4.5,13.8-7.5,20.4c0.2,9.5,0.1,16,0.6,27.9c1.7,0.2,3.4,0.5,5.1,0.8c2.1,0.4,1.6,0.2,2.6,0.9l0.2,0.9c0,0-0.5,0.8-0.5,0.8
	c-0.6,0.3-1.3,0.3-1.9,0.1c-7.1-1-6.8-0.3-7.8-1l0,0c-0.6-0.5-0.6-0.2-1.5-11.3c-0.7-10.8-0.6-12.5-0.7-18.7c-0.1-0.7,0-1.5,0.4-2.2
	c3.1-6.7,5.6-13.6,7.5-20.8c0.5-2.2,1.9-1.5,5.6-2.2c3.4-0.6,6.6-2.2,9.1-4.6c3.4-3.7,3.1-9.5-0.6-12.8c-0.3-0.2-0.5-0.5-0.8-0.7
	c-1.6-1.2-3.4-2-5.4-2.4c-1.6-0.3-3.3-0.6-4.9-0.7l-0.9-0.4l-0.3-0.8v0l0.4-0.8l0.9-0.4l0,0C428.8,121.4,431.8,121.7,434.6,122.5z
	 M415.6,168.1L415.6,168.1L415.6,168.1L415.6,168.1L415.6,168.1z M415.8,167.9c-0.2,0.2-0.1,0.1,0.1-0.1L415.8,167.9z"/>
<path class="st0" d="M382.9,120.9l0.6,0.5l0.2,0.9c0,6.6-1.8,7.4-1.4,19.8c5.5,0,4.3-0.3,5.8,0.2l0.5,0.8v0l-0.3,0.9l-0.8,0.5l0,0
	c-2.2,0.6-4.5,1.1-6.7,1.4c-0.5,0.1-1,0-1.5-0.3c-0.3-0.2-0.5-0.5-0.6-0.8c-0.7-2.3-0.5-13.8,1-19.2c0-0.1,0.8-2.2,0.8-2.2
	c0.1-0.1,0.8-1.6,0.9-1.8l0,0l0.7-0.7L382.9,120.9L382.9,120.9z"/>
<path class="st0" d="M405.2,145.7c0.5,0.8,0.7,0.7,1,3.3c0.2,2.6-0.5,5.2-2.2,7.3c-1.1,1.6-2.8,2.7-4.6,3.1
	c-3.1,0.7-6.4-0.4-8.4-2.8c-0.5-0.7-0.9-1.5-1.1-2.3c0-1.2-0.2-0.8,0.4-1.7l0,0c2.8,0.7,0.8,0.2,3.6,1.7c0.9,0.6,2,1.1,3.1,1.3
	c1.8,0.1,3.6-0.8,4.4-2.5c1.1-1.9,1.7-3.9,2-6.1c0-0.4,0-0.1,0.4-1.2l0.7-0.5l0,0L405.2,145.7z"/>
<path class="st0" d="M404.3,111.5c1,0.7,1.8,1.5,2.6,2.4c0.5,0.5,0.8,1.2,0.9,1.8l-0.3,0.8l0,0l-0.8,0.2c-0.6-0.1-1.1-0.4-1.6-0.7
	c-1-0.6-2.1-1.1-3.2-1.5c-1.7-0.9-3.7-1-5.5-0.4l0,0c-0.2,0.1-0.5,0.2-0.7,0.3l0,0c-0.2,0.1-0.4,0.2-0.5,0.4c0,0-1.1,0.6-1.4,0.8
	c-1.1,0.5,0.2,0.2-2.3,0.8c-0.3-1.6-0.6-1.6,0.2-3.2c0.4-0.9,1.2-1.7,2.1-2.1l0,0c0.4-0.2,0.8-0.4,1.3-0.6l0,0
	C398,109.5,401.5,109.8,404.3,111.5z"/>
<ellipse class="st1" cx="399.1" cy="127.6" rx="3.6" ry="4.7"/>
<path class="st0" d="M433.5,124.4c2.5-14.4,4.2-33.4-10.7-41.7c-5.9-3.3-12.6-4.1-19-6.1c-4.5-9.2-14.1-23.6-24-26.3
	c-11.8-3-24.2,1.8-30.9,12c-8.5,12.6-6.5,30.8,8.3,37.4c11.5,5.2,28.2,3.5,40.6,1.1c3.8-0.8,7.5,2.4,11.2,3.5
	c2,9.5,7.7,15.9,17,18.3C428.7,123.3,433.5,124.4,433.5,124.4z"/>
<path class="st0" d="M380.1,48.4c10.6,2.8,20.1,16.7,25,26.6c7.7,2.1,14.6,3.2,20.7,7.4c13.3,9.5,11.8,26.4,8.8,42.3
	c-0.2,0-2.6-0.5,0,0c-0.1,0.5-0.4,0.9-0.9,1c-0.5,0.1,0.2,0.2-5.8-1.2c-3.4-0.6-6.7-1.8-9.8-3.5c-5.9-3.7-8.9-8.7-10.7-15.3
	c-2.9-1-5.7-3-8.3-3.1c-2.1-0.1-31.6,8.1-47.9-3.8c-13.3-10.3-11.7-29.8-1.7-40.7C357.3,49.3,369,45.6,380.1,48.4z M366.6,52.2
	c-18,4.7-25,24.4-18.3,36.7c5.9,12.4,24.7,13.2,38.4,11.8c10.6-1.2,10.7-2.1,13.7-1.6c3.3,0.6,5.7,2.4,8.9,3.6
	c2,0.6,0.7,1.7,3.2,7.3c0.8,1.8,1.8,3.4,3.1,4.9c4.6,5.4,10.4,6.4,16.8,8c0-1.4,3.3-16.9-1.3-27.9c-1.2-3.1-3.2-5.9-5.7-8
	c-5.8-5-14.2-6-21.6-8.2c-2.4-0.7-0.8-0.4-6-8.7c-4.1-6.4-11-15.4-18.3-17.6C375.3,51.2,370.9,51.1,366.6,52.2L366.6,52.2z"/>
<path class="st0" d="M230.7,14.2c23.8,9.8,41.7,30.2,48.4,55.1l0,0c7.3,24.2,3,50.5-11.6,71.1c-7.4,10.5-17.3,19.1-28.7,25.1
	c-5.6,3-11.6,5.3-17.8,6.9c-22.7,6-46.8,2.1-66.5-10.6c-61.1-41-45.2-128.9,18.6-149.7C191.9,5.9,212.4,6.6,230.7,14.2z M186.6,15.4
	c-42,7.3-70.1,47.2-62.8,89.2c7.3,42,47.2,70.1,89.2,62.8c21.2-3.7,39.8-16,51.5-34c12.6-18.8,16.3-42.2,10.4-64l0,0
	C263,31.1,224.2,8.2,186.6,15.4z M279.1,69.3L279.1,69.3C278.7,68.1,278.8,68.2,279.1,69.3z"/>
<path class="st0" d="M196.4,60c0.5,4.3,2.3,25.9,2.3,26.8c0.2,2.2,0.4,6.4,0.4,6.5c5,0.4,17.7-0.3,25.6-0.3c2.2,0,1.6-0.1,2.7,0.4
	l0.4,0.8v0l-0.3,0.9c-1.4,0.7,0.2,0.2-6.3,0.9c-9,0.9-15.2,1.8-23.6,1.1c-0.8,0.1-1.6-0.3-2-1c-0.3-0.6-0.2-0.4-0.4-3.6
	c-1.1-18.8-2.8-25.8-2.3-40.2c0-0.9-0.1-0.5,0.4-1.6l0.8-0.4h0C195.6,51,195.1,50.1,196.4,60z"/>
<path class="st0" d="M141.7,91.3c0.8,0.1,1.7,0.3,2.5,0.5c0.5,0.1,0.2,0,1.3,0.6l0.4,0.7c-0.5,0.9-0.2,0.6-1.3,1.3
	c-0.9,0.3-1.8,0.6-2.7,0.8c-0.6,0.1-1.3,0.2-1.9,0.1c-5.1,0.2-4.3,0.6-5.8,0.1c-0.8-0.3-0.3,0-2-1.1c1.1-1.7,0.8-1.3,1.5-1.8
	c0.4-0.3,0.9-0.6,1.4-0.7C137.3,91.4,139.5,91.3,141.7,91.3z"/>
<path class="st0" d="M263.6,87.5c0.6,0,1.2,0,1.8,0.2c0.1,0,0.8,0.2,0.9,0.3c1.2,0.4,0.6,0,2.2,1.5c-1.4,1.5-1,1.2-2.2,1.7
	c-1.7,0.7-3.7,0.2-6.7,0.4c-0.5,0.1-1-0.1-1.4-0.4c-0.6-0.3-0.1,0-1.9-1.2c1.2-1.6,0.9-1.3,1.4-1.7c0.4-0.4,1-0.6,1.6-0.6
	C260.9,87.5,262,87.5,263.6,87.5z"/>
<path class="st0" d="M193.5,23.5c0.3,0.5,0.6,1.1,0.9,1.7c0.1,0.8,0.2,1.6,0.3,2.5c0.4,4,1,6-0.2,9.3l-0.7,0.5h0l-0.7-0.3l-0.6-1
	c-0.4-1-0.8-2-1.1-3c-0.2-0.8-0.8-6.4-0.8-6.6c-0.1-0.7-0.1-1.3,0.2-2c0.5-1.2-0.2-0.2,1.4-2.2L193.5,23.5z"/>
<path class="st0" d="M200.9,159.9c-0.8-1.3-1.2-2.9-1.3-4.4c-0.6-4-0.5-3.2-0.2-4.3c0.4-1,0.1-0.4,1.3-2c0.8,0.5,1.5,1.1,2,1.9
	c0.4,0.6,0.3,0.5,0.6,2.1c0.6,4,0.8,4.1,0.4,6.1c-0.2,0.8,0,0.4-1.2,2.1C200.8,160,201,160.3,200.9,159.9z"/>
<path class="st2" d="M395.8,299.7c0,0-0.2,15.1-0.6,21.9c16.8,3,33.3,7,50.1,10.2c4.8,0.9,9.5,3.4,14.4,2.7c25.8-3.4,52-3.5,78-4.7
	c3.9-0.2,6.9-3.5,6.7-7.4c0-0.3-0.1-0.6-0.1-1c-3.5-18.8-8.2-37.3-17.3-54.4c-17.7-33.5-51.8-59.1-89.5-65.2
	c-1.1-0.2-2.2,0.3-2.9,1.2c-7.9,10.4-19.5,20.7-32.5,23.1c-7.7,1.4-20.6,0.2-24.2-8.2c-1.3-3.5-1.5-7.3-0.7-10.9
	c0.3-1.6-0.8-3.2-2.4-3.5c-0.4-0.1-0.9-0.1-1.3,0c-21.2,5.8-41.2,14.3-59.1,27.5c-6.4,4.7-13.4,9.8-18.6,15.9
	c4.4,3.7,6.6,9.3,5.8,15c3.6,3.8,5.4,8.8,3.3,13.8c8.1,13.3-8.6,24.5-18.6,30.2c8.6,16.6,29,47.5,29.3,48.3
	c0.1,0.2,2.7,53.8,2.8,53.9c0,0,0.1,0,0.1,0c15.4-1.6,31,0.3,46.5,0c22.4-0.5,45.6-1.4,68-1.4c0.1,0,0.2-0.1,0.2-0.2
	c0-0.1-0.1-0.2-0.2-0.2c-15.4-4.1-36.9-11-49.1-20.8c-11.5,4.4-25.2,2.3-36.4-2.3c-8.1-3.3-14.2-12.1-1.9-14.9
	c-5.4-4.7-11.4-13.8-0.9-16.2c-6-5-14.9-18.1-1.7-20.4c-1.5-8.9-3.8-18-6.2-26.7c-17.3-1.6-16.1-12.7-9.8-15.4
	c9.3-3.9,22.7-1.6,32.7-1.6c-0.9-5.1-1.7-10.2-2.2-15.3c-0.2-1.7-0.7-4.4,0.5-5.9c2.5-3.2,8.3-3.8,11.9-4.8
	c10.3-2.9,21.6-7.9,32.5-6.9c4.6,0.4,8.9,3.9,4.7,8.2c-2.5,2.5-6.6,3.4-9.8,4.4c-3.4,1-6.7,2.4-10.1,3.4c-5.2,1.6-10.6,2.7-15.9,3.9
	c0.2,3.9,0.6,7.9,1.3,11.8c8.3-0.4,16.7,0,25,1c3.5,0.2,7,0.8,10.3,1.9c3.6,1.5,5,5.8,1,7.9C405.2,299.8,400.2,299.8,395.8,299.7z"
	/>
<path class="st0" d="M395.3,324.3c4.8-0.1,9.6,0.3,14.4,1.2c18.1,2.9,47.1,10.3,52.7,11.5c0-1.6-0.1-1,0.3-2.2l0.8-0.4h0l0.9,0.3
	c0.6,1.2,0.4,0.5,0.6,2.2c0.1,1.7,0.4,2.6-0.8,3.1c-0.5,0.1-0.2,0.1-3.5-0.3c-19.8-2.8-34-7.7-54.9-10.8c-2.2-0.3-8.2-1.5-12.3-2.1
	c-0.4-0.1-0.2,0-1.1-0.5l-0.3-0.8v0l0.4-0.8C393.5,324.2,392.9,324.3,395.3,324.3z"/>
<path class="st0" d="M464.8,336.4c0.7,0,5.6,1.2,6.8,1.5c1.3,0.3,2.6,0.7,3.8,1.4c0.8,0.3,1.5,0.8,2.2,1.4l0.2,0.8v0l-0.6,0.6
	l-1.1,0.2c-4.4,0-4.4-0.5-10.7-1.8c-1.1-0.1-2.1-0.5-3-1.2c-0.5-0.3-0.3,0-1.4-1.7c1.6-1.1,1.3-1,1.9-1.1
	C463.5,336.5,464.1,336.4,464.8,336.4z"/>
<path class="st0" d="M538.4,334.3c0.6,1.1,0.4,0.2,0.7,4.8c0.2,5.1-0.1,10.2-0.9,15.2c-2.1,12.7-8.1,24.4-17.1,33.5
	c-12.8,13.3-31.2,20.1-49.5,21c-19.1,0.9-34.6-4.2-52.2-11.8c-11.4-4.9-23.8-10.3-33.1-18.1c-4.4,1.6-9,2.6-13.7,3.1
	c-10,1-20.7-0.5-28-7.2h0l-0.4-0.8l0.3-0.9c0,0,0.8-0.4,0.8-0.4c1,0.3,0.8,0.2,1.1,0.5c0.9,0.7,1.9,1.4,3,2
	c10.7,5.7,24.3,4,35.7-0.1c4.1-1.5,0.5,0.8,18.4,10.2c9.4,4.8,27,12.6,39.4,16.1c48.8,13.4,90-13.4,93.3-56.4
	c0.5-9.8-0.4-8.4,0.3-10.5l0.8-0.4l0,0L538.4,334.3z"/>
<path class="st0" d="M343.4,337.7c0.9,0.5,2.9,1.5,3.7,1.9c0.7,0.4,0.5,0.3,1.3,0.7c2.9,1.7,6.1,2.8,9.4,3.3
	c3.1,0.4,6.2,0.3,9.3-0.3c2.1-0.5,0.8-0.4,2.5-0.4l0.7,0.6l0,0v0.9c-0.3,0.6-0.8,1-1.4,1.2c-1.9,1-3.9,1.7-6.1,2
	c-5.5,0.4-10.9-0.9-15.7-3.5c-1.4-0.7-2.7-1.6-3.8-2.8c-0.5-0.5-1.3-1.6-1.5-1.8l0,0l-0.3-0.9l0.2-0.8v0l0.8-0.3L343.4,337.7z"/>
<path class="st0" d="M345.7,357.2c7.3,1.2,8.2,2.7,17.8,1.7c2-0.2,4-0.5,6-0.9l0,0l1,0.1l0.6,0.6v0l-0.1,0.9
	c-0.7,0.7-0.4,0.6-2.5,1.7c-2.2,1.1-4.6,1.7-7.1,1.9c-2.7,0.2-5.3,0.1-8-0.3c-3.2-0.2-6.3-1.4-8.8-3.4l0,0l-0.6-0.8l0-0.8v0l0.6-0.5
	L345.7,357.2L345.7,357.2z"/>
<path class="st0" d="M394.4,310.2L394.4,310.2l0.5,0.8c0,0.6-0.2,1.2-0.6,1.6c-3.4,4.9-8.2,8.7-13.8,10.7l0,0
	c-8.1,3.3-16.6,5.5-25.3,4.6c-3-0.4-5.8-1.4-8.4-3c-0.3-0.2-0.1,0-0.9-0.9v-0.9l0.7-0.6c1,0,0.8-0.1,1,0c2.5,0.7,5.2,1.2,7.8,1.3
	c6.8,0.5,13.4-0.1,23.6-4.3c4.3-1.7,8.3-4,11.9-7c2.7-2.7,1.2-1.7,2.6-2.6L394.4,310.2z"/>
<path class="st0" d="M221.2,280L221.2,280l0.6,0.7l0,0.9l0,0c-6.1,16.2-8.3,33.6-6.3,50.8c0.7,6.2,2.3,12.2,4.8,17.9
	c5.5,12.6,15.4,20,29.2,21.9c18,2.5,42.7-5.6,57.8-19.6c1.8-1.7,1-1.2,2.3-1.7l0.9,0.3l0,0l0.4,0.9l-0.3,0.9l0,0
	c-18.7,19.6-54,31.1-77.1,18c-27.2-15.5-27.4-63.7-13.8-90.5c0,0,0.7-0.6,0.7-0.6L221.2,280z"/>
<path class="st0" d="M295,289.2L295,289.2l0.3,0.8l-0.3,0.9l0,0c-1.5,2-3.2,3.8-5.1,5.4l0,0c-1.9,1.5-4,2.8-6.2,4l0,0
	c-0.6,0.3-0.1,0.1-1.4,0.7c-4.7,2.1-4.3,1.4-4.2,2c1.6,10.6,2.1,9.5,4,21.3c0.7,5.1,0.7,4.1,0.4,5.4l-0.7,0.5h0l-0.9-0.2l-0.6-0.8
	l0,0c-1.5-5.9-5-15.5-6.3-27.8l0,0c0-2,1.3-2.1,3-2.6c1.7-0.6,3.4-1.3,5-2.1l0,0c3.8-2.2,7.5-4.7,11.1-7.3c0.4-0.3,0.1-0.2,1.2-0.5
	L295,289.2z"/>
<path class="st0" d="M287,259.7L287,259.7l0.4,0.8l-0.2,1c-1.7,2.7-3.9,5.2-6.4,7.1c-3.1,2.4-6.4,4.4-9.9,6
	c-1.7,0.9-3.7,1.5-5.6,1.6c-0.7,0.2-1.4,0.1-2-0.1l-0.6-0.6c0,0,0.1-0.8,0.1-0.8l0.7-0.7c0,0,2.7-1.6,2.8-1.6c3.2-1.4,6.3-3,9.2-4.8
	c2.1-1.4,7.5-5.6,9.3-7.2c0.6-0.5,0.3-0.3,1.4-0.8L287,259.7z"/>
<path class="st0" d="M291.1,273.1L291.1,273.1l0.4,0.8l-0.2,1c-1.6,2.7-3.7,5.2-6,7.3c-2.9,2.5-6.1,4.6-9.6,6.1
	c-1.8,0.9-3.8,1.4-5.9,1.3c-0.7,0.1-1.4,0-2.1-0.3c0,0-0.5-0.7-0.5-0.7l0.2-0.8l0.8-0.6c0.7-0.3,3-1.4,3.5-1.6
	c3.2-1.1,6.2-2.7,8.9-4.8c1.2-0.9,7.1-5.9,8.8-7.5l0.9-0.4L291.1,273.1z"/>
<path class="st0" d="M283.8,245.1L283.8,245.1l0.3,0.9l-0.4,0.9c-1,0.6-12.2,13.9-30.4,18.5c-10,2.5-22.8,1.7-28.4-6.8
	c-0.6-0.9-1.1-1.9-1.4-2.9c-0.1-0.2,0,0,0-1l0.6-0.7h0h0.9c0.8,0.7,0.7,0.5,0.8,0.7c0.2,0.1,2.2,5.4,12.1,7.5
	c15.2,3,32.1-7.4,44.2-17.1l0,0l0.9-0.3L283.8,245.1z"/>
<path class="st0" d="M241.4,264.5c-10.2-18.8-12.5-27-15.7-32.5c2.6-3.1,5.2-6.1,8-9c11.6,1.5,23.3,2.7,34.9,4.4
	c1.6,8.3,5.8,15.7,8,23.8c-5.4,5.5-12.5,8.4-19.7,10.6c-4.9,1.7-10,2.6-15.1,2.6"/>
<path class="st0" d="M234,221c12.3,1.6,21.9,2.6,32.7,4.1c2.6,0.4,2.6,0.3,3.3,0.8c0.7,0.8,0.5,0.9,1.1,3.3c2,7.6,5.3,13.6,7.3,20.7
	c0.3,1,0.4,1.3,0.1,2.1c-0.7,0.9-1.4,1.7-2.3,2.4c-2.2,1.8-4.6,3.4-7.2,4.7c-7.3,3.4-15.1,5.7-23.1,6.6c-1.4,0.1-2.7,0.1-4.1,0
	c-0.9,0.1-0.4,0.1-1.4-0.5c-0.2-0.4-6.4-10.8-11.1-20.8c-1.7-3.6-2.5-6.2-4.6-10.3c-0.3-0.5-0.6-1-0.8-1.6c-0.2-1.3,0.5-1.8,1.4-2.9
	c2.6-3.1,4-4.7,5.8-6.5C232.3,221.6,232.6,220.9,234,221z M234.4,225.2c-3.5,3.7-6,6.7-6.2,7c1.7,2.9,4.5,10.7,14,30.9
	c7.4,0.1,19.7-4.3,25.4-7.5l0,0c2.5-1.4,4.8-3,6.9-5c0-1.2-5.1-12.5-7.1-19.8v0c-0.2-0.7-0.2-0.9-0.4-1.6
	C266.9,229,234.5,225.1,234.4,225.2z"/>
<path class="st3" d="M267.8,252.8c-0.9-0.8-0.6-0.2-3.3-4.5c-0.1-0.2-0.8-1.3-1.3-2.2c-0.6-1.2-2.2-4.6-2.7-5.9
	c-1.7-3.9-1.7-3.4,0.1-6c0.6-0.9,1.2-1.7,1.2-1.8c0.9-1.1,1.9-2,3-2.9l0.9-0.4l0.8,0.1h0l0.4,0.7c-0.1,1.2,0.1,0.7-1.2,3.6
	c-0.7,1.2-1.4,2.4-2.2,3.5c2.5,6.2,2.9,5.5,5.7,14l0,1.1l-0.5,0.7h0L267.8,252.8z"/>
<path class="st0" d="M403.5,258.2l0.5,0.7c0,1.5-0.9,1.4-8.3,3.5c0,0.5-4.7,0.5-30.2,8.2c0.1,1.8,0.3,7.9,0.3,16.7
	c0,7.2,0.2,5.6-0.3,7l-0.8,0.4l0,0l-0.9-0.3l-0.5-0.9c0-0.9-1.5-10-1.8-21.3c-0.1-3.5-0.2-3.3,0.1-4c0.6-1,0.1-0.7,9.1-3.4
	c23.3-6.8,24.2-5.8,24.2-6.1c0.2,0,6.1-0.8,7.7-0.8L403.5,258.2z"/>
<path class="st0" d="M383.2,293.1c10.7,0.1,8.8,0.2,19.8,0.2l0.9,0.3l0.4,0.8v0l-0.3,0.9l-0.9,0.4c0,0.2-11,1-20.5,1.2
	c-33.6,0.2-35.1,2-46.6,0.9c-2.3-0.2-4.8-0.7-5-0.7l-0.8-0.5l-0.3-0.8v0l0.4-0.8c0.6-0.3,1.2-0.4,1.9-0.3
	C340.5,294.8,362.9,292.8,383.2,293.1z"/>
<path class="st0" d="M392.2,313.6c0.2-6.3,0.9-12.5,1.2-18.8c-11.3,0.1-22.7,0.6-34,0.7c-5.8-0.1-11.7,0.1-17.5,0.7
	c2,9.4,4.2,18.6,6.5,27.9c3.8,0.6,7.4,2.1,11.3,2c8.3-0.2,17.4-3.6,24.6-7.5c2.9-1.3,5.7-2.9,8.3-4.8"/>
<path class="st0" d="M395.1,294L395.1,294c0.2,0.6,0.2,0.6,0,3.3c-1.6,17.4-1.9,14.9-1.3,16.6c-0.4,0.9-0.3,0.8-0.8,1.2
	c-2.1,1.6-4.4,3-6.8,4.1c-3.1,1.8-6.2,3.3-9.5,4.7c-3.1,1.3-6.3,2.3-9.5,3.1c-5.3,1.5-10.9,1.4-16.1-0.3c-3.7-0.9-3.4-0.5-4.2-1.3
	c-0.4-0.5-0.1,0.8-3.4-13.1c-0.6-2.4-1.9-8.1-3-13.1c-0.6-2.8-0.9-3.2-0.2-4.2c0.7-0.8,1.1-0.8,2.2-0.9c3.4-0.4,6.3-0.5,9.8-0.5
	C396.7,292.8,394.2,292.3,395.1,294z M344.3,297.8c1.1,5.6,4.3,18.8,5.7,24.4c5.7,1.1,6.8,2.3,13.4,1.5c10.2-1.2,19-6.1,24-8.4
	c1.3-0.6,2.5-1.3,3.6-2.1c0-7.5,0.3-11.7,0.4-16.6C384.5,297,349.4,297.4,344.3,297.8z"/>
<path class="st0" d="M198.3,229c0.6,0.1,1,0.6,1,1.2c0.8,81.4,0.9,78,0,78.9l0,0c-0.3,0.3-0.8,0.4-1.2,0.5c-4.4,0-82.8,0.2-83.7-0.1
	c-0.4-0.2-0.8-0.5-1-0.9c-0.4-0.9-0.3,4.7-0.3-78.4c0-0.9,0.7-1.8,1.6-1.9C121.5,227.7,198.1,229,198.3,229z M117,232.2v73.6
	c43.1,0-64.8,0,79.2,0.1c0.2,0.1-0.2,3.1,0.7-74.3C151.4,232.3,153.1,232.2,117,232.2L117,232.2z"/>
<path class="st0" d="M223,358.7c1.7,0.6,0.6,0,2.2,0.9l0.4,0.7v0l-0.4,0.7l-1,0.5c-4.8,1-0.9,0.6-9.2,0.8c-1,0.2-1.9,0.1-2.8-0.3
	c-1.1-0.5-0.6-0.1-2.1-1.6c1.5-1.5,1-1.1,2-1.7c0.9-0.4,1.8-0.6,2.8-0.5C221.2,358.2,220.6,358.1,223,358.7z"/>
<path class="st0" d="M203.7,385.4c0.7-0.1,1.3,0,2,0.2c4.7,2.4,9.2,5.1,13.4,8.1c3.7,2.5,4.6,2.7,4.4,4.5c-0.1,0.4-0.3,0.8-0.7,1.1
	c-0.6,0.4-0.7,0.4-1.9,0.5c-7.3,0.9-14.5-0.5-21.9-1.3c-15.3-1.5-24.8-4.3-37.2-6.1c-3.9-0.6-4-0.7-5.9-1.1l-0.8-0.5l-0.2-0.9
	c0,0,0.5-0.8,0.5-0.8l0.8-0.2l0,0c6.7-1.4,13.6-2.3,20.4-2.7C183.6,385.8,197.4,385.4,203.7,385.4z M203,389.4
	c-11.3,0-22.9,0.7-29,0.9c-6,0.2-5.5,0.1-3.3,0.4c3.9,0.6,12.2,1.9,17.2,2.5c0,0.2,23,2.9,27.8,2.9c-3.5-2.4-7.2-4.6-11-6.6
	C204.2,389.4,204.5,389.4,203,389.4L203,389.4z M203.5,389L203.5,389L203.5,389L203.5,389z"/>
<path class="st0" d="M189.8,363.5c4.2-0.1,8.5,0.2,12.7,0.7c2.3,0.2,1.7,0.1,2.8,0.6l0.4,0.8v0l-0.4,0.8l-0.9,0.4
	c-0.8,0-3.8,0.5-10.2,0.6c-3.9,0.1-2.3-0.3-16.4,0.2l0,0c-3.6,0.4-7.3,0-10.8-1l-0.8-0.5l-0.3-0.8v0l0.4-0.7
	C169,363.6,187.1,363.5,189.8,363.5z"/>
<path class="st0" d="M125.1,378.5c1.2,0,2.1,0.3,6.1,0.4c5.9,0.1,7.5-0.2,11-0.1c5.5,0.3,4.6,0.2,5.8,0.6l0.4,0.8v0l-0.3,0.8
	l-0.9,0.5c-5.1,1.2-10.4,1.7-15.7,1.4c-7.1-0.1-8.1-0.7-10.5-1.7c-0.3-0.1-0.1,0-0.9-0.7l-0.2-0.8c0,0,0.5-0.6,0.5-0.7l0.9-0.3
	C121.6,378.7,124.7,378.5,125.1,378.5z"/>
<path class="st0" d="M547.6,404.9l0.5,0.9v0l-0.5,0.9l-1.1,0.4l0,0l-11.3,0.8l-49.2,0.7l-25.7,0.3l-24.7,0.3l-31.3,0.3l-36.9,0.3
	l-82.5,0.8l-80.5,0.8l-34.5,0.3l-27.9,0.3l-12.7,0.1l-13.8,0l-27.7,0l-34.1,0h-0.8l-0.9-0.4l-0.4-0.8v0l0.4-0.9l0.9-0.4l0,0l0.8,0
	l34.1-0.7l27.7-0.5l13.8-0.2l12.7-0.2l27.9-0.3l34.5-0.3l80.5-0.8l82.5-0.8l36.9-0.3l31.3-0.3l24.7-0.2l25.7-0.1l49.2-0.2l11.3-0.2
	l0,0L547.6,404.9z"/>
<path class="st3" d="M75.6,359.3c12.1,0.2,12.8,0.2,17.6,1.2c0.6,0.1,1.1,0.3,1.6,0.7l0.3,0.8v0l-0.4,0.8c-0.5,0.3-1.1,0.5-1.7,0.5
	c-3.3,0.4-6.5,0.5-9.8,0.2c-3.1,0.1-6.2-0.1-9.3-0.3c-2.8-0.6-2.6-0.7-3.5-1.2l-0.3-0.7v0l0.4-0.7l0.9-0.5
	C72.7,359.5,74.1,359.3,75.6,359.3z"/>
<path class="st3" d="M106.2,380c3.9,0.3,2.9,0,4.3,0.6l0.4,0.8v0l-0.4,0.8l-0.9,0.5l0,0c-9.7,1.3-7.5,0.9-25.5,1.5
	c-2.8,0.2-5.7,0-8.5-0.5l0,0l-0.9-0.4l-0.4-0.7v0l0.3-0.8l0.8-0.5c0.7-0.1,0.8-0.2,3.2-0.6c1.8-0.3,3.5-0.5,5.3-0.4
	C102.2,379.7,100,379.7,106.2,380z"/>
<path class="st3" d="M107.1,399.8L107.1,399.8c1,0.7,0.8,0.4,1.2,1.3l0,0c-1.7,1.4-1.1,1-2.4,1.4c-1.4,0.4-2.7,0.4-7.3,0.5l0,0
	c-0.4,0.1-0.8,0-1.1-0.1c-1.4-0.6-1.3-0.6-2.5-1.9c1.3-1.3,1.1-1.2,2.5-1.8c0.6-0.2,0.2-0.1,1.8-0.2
	C104,398.8,104.3,398.6,107.1,399.8z"/>
<path class="st0" d="M445.7,286.9c1.6,1.1,1.2,0.6,2.4,7.2c2.2,11.6,3.4,16.7,4.4,23.2c1.3,8.1,1.3,7.3,0.1,8.2h0l-0.9-0.2l-0.6-0.8
	c0-0.2,0,0.1-1.5-4.9c-2.7-9.2-2.3-9-5.6-25.9c-0.9-4.7-0.3-3.1-2.1-5c-0.4-0.4-1.1-1.1-1.3-1.3l0,0c-0.6-0.6-1.2-1.1-2-1.6
	l-0.6-0.7l0-0.9v0l0.6-0.6l1-0.1C441.8,284.4,443.8,285.5,445.7,286.9z"/>
<path class="st3" d="M253.6,234.1c5.3,0.7,3.3,0.3,6.1,1c1.9,0.7,1.1,0.2,2.3,1l0.3,0.7v0l-0.4,0.7l-0.9,0.4c-1.6,0.4-3.3,0.5-5,0.3
	c-2.6-0.3-12.2-1.6-14.9-2.2c-4.7-1-3.6-0.7-4.8-1.3l-0.3-0.8v0l0.4-0.8c0.6-0.4,1.3-0.5,2.1-0.5
	C243.8,232.5,245.1,232.9,253.6,234.1z"/>
<path class="st0" d="M317.7,305.2l0.8,0.4l0.4,0.8c0.9,7,0.6,1.5,0.8,24.3c0,4.9-0.2,9.8-0.7,14.6l-0.4,0.9l-0.8,0.4h0l-0.8-0.4
	c-0.4-1-0.4-0.3-0.8-5.8c-0.4-5.3-0.5-4.8-0.5-25.6c0-2.9,0.3-5.7,0.8-8.5l0.4-0.8L317.7,305.2L317.7,305.2z"/>
<circle class="st4" cx="157.6" cy="230.1" r="9.5"/>
<path class="st0" d="M158.7,219.4c5.9,0.2,10.6,5.1,10.4,11.1c-0.1,1.9-0.6,3.8-1.7,5.4c-3.2,5.4-10.2,7.3-15.7,4
	c-1.5-0.9-2.8-2.1-3.7-3.6l0,0c-3.3-5-2-11.8,3.1-15.2c1.2-0.8,2.4-1.3,3.8-1.6C156.2,219.4,157.5,219.3,158.7,219.4z M157.6,221.9
	c-4,0.2-7.2,3.4-7.5,7.4c0,8.9,10.1,11,14,4.4c0.2-0.4,0.4-0.9,0.6-1.3c1.2-4.5-1.4-9.1-5.9-10.3C158.4,222,158,221.9,157.6,221.9
	L157.6,221.9z M157.7,219.4L157.7,219.4L157.7,219.4L157.7,219.4z"/>
<path class="st0" d="M185.8,294.3c8.1,0.3,11.6-0.2,18.8,0.3c4.3,0.3,3.4,0.2,4.4,0.7l0.4,0.8v0l-0.3,0.8c-1.1,0.5-0.2,0.3-4.4,0.8
	c-5.9,0.6-11.7,0.8-17.6,0.6c-2.5,13.4-5.1,22.9-12.6,34.7c-0.4,0.6-0.2,0.4-1.1,1.1l-0.9-0.1l0,0l0,0l-0.5-0.7
	c0.1-1.1,0-0.8,0.4-1.5c1.7-3.4,3.2-6.8,4.5-10.4c7.8-21.3,5.6-25,7.5-26.7C184.7,294.4,185.2,294.2,185.8,294.3z"/>
<path class="st0" d="M189.7,345.6c3.5,0,6.9,1.1,9.8,3c2.4,1.6,4.4,3.9,5.8,6.5c2.6,5.3,2,6.9,2,23.3c0,10.5,0.1,9.5-0.3,10.3
	c-0.4,0.8-1.4,1.2-2.2,0.9c-0.8-0.3-0.4-0.3-0.9-0.3c-7.2-0.1-21.3,0.3-35,1.2c8.2,1.5,13.9,2.6,20.8,3.6
	c15.2,2.3,16.7,1.3,16.9,3.2h0c0.2,13.8,0.2,12.4,0.1,12.9c-0.1,0.3-0.3,0.6-0.6,0.7c-0.2,0.1,3.1,0.7-93.8,0.7
	c-1,0-1.8-0.7-1.9-1.6c0-0.3-0.1-46.8,0-48.2c0.7-8.4,7.2-15.2,15.5-16.2C127.7,345.6,189.5,345.6,189.7,345.6z M178.8,349.6
	c-52.5,0-52.1-0.5-56,1c-3.7,1.5-6.6,4.5-7.9,8.3c-1.1,2.7-0.8,2.3-0.8,49c49.4,0,41.3-0.1,89.8,0.5l0,0v-10
	c-10.7-1.2-8.6-0.4-33.8-4.6c-6.2-1-12.5-1.5-14.6-2.1c-0.8-0.3-1.3-1.3-0.9-2.1c0.2-0.6,0.8-1,1.4-1c0.2,0,17.4-3,47.3-3.1
	c0.2,0,0.1,1.7,0.1-22.4c-0.1-6.2-4.4-11.6-10.5-13.2C190.7,349.4,189.4,349.6,178.8,349.6z M203.6,389L203.6,389L203.6,389
	L203.6,389z"/>
<path class="st3" d="M372,56.5c1.2,0.1,2.4,0.3,3.5,0.7c0.8,0.3,0.5,0.1,1.3,0.8l0.2,0.8v0l-0.5,0.6c-1.5,0.5-0.6,0.2-2.6,0.5l0,0
	c-3,0.2-5.8,1-8.4,2.5l0,0c-1.6,0.9-3,2-4.3,3.4l0,0c-2.1,2-3.9,4.3-5.4,6.7l-0.7,0.6l-0.9,0h0l-0.6-0.7c-0.1-0.8,0-1.5,0.4-2.2
	c0.9-2.7,2.5-5.2,4.5-7.2l0,0c1.5-1.6,3.3-2.9,5.1-4l0,0C366.2,57.6,369,56.7,372,56.5z"/>
<path class="st3" d="M351.6,85.7L351.6,85.7c-0.1-0.2-0.2-0.4-0.3-0.6c-0.4-1.4-0.6-2.8-0.6-4.2c0.1-0.2,0.2-0.4,0.3-0.6h0
	c0.1-0.2,0.3-0.3,0.4-0.5c2.9,0.2,2.2,0,2.8,0.5l0,0c0.1,0.1,0.1,0.2,0.2,0.3c0,0.1,0.1,0.1,0.1,0.2l0,0c0.1,1.1,0.3,2.2,0.5,3.3
	c0,1.3-0.3,2.5-1,3.6C352.4,86.7,352.5,86.9,351.6,85.7z"/>
<path class="st3" d="M357.3,219.8l0.6,0.6c0,0,0,0.9,0,0.9l-0.7,0.7l0,0c-2.3,1.1-5.9,3-7.8,4c-6.2,3.5-7.2,3.4-16.1,9
	c-7.5,4.6-9.7,6.9-16.6,10.9l0,0l-0.9,0.2c0,0-0.7-0.4-0.8-0.4l-0.2-0.8l0.4-0.9c0-0.2,3.8-3.8,4.6-4.4c8.7-6.7,18.1-12.3,28-16.8
	c7.7-3.1,8.6-2.9,8.6-3.1L357.3,219.8z"/>
</svg>
