<?xml version="1.0" encoding="utf-8"?>
<!-- Generator: Adobe Illustrator 24.3.0, SVG Export Plug-In . SVG Version: 6.00 Build 0)  -->
<svg version="1.1" id="Layer_1" xmlns="http://www.w3.org/2000/svg" xmlns:xlink="http://www.w3.org/1999/xlink" x="0px" y="0px"
	 viewBox="0 0 600 420" style="enable-background:new 0 0 600 420;" xml:space="preserve">
<style type="text/css">
	.st0{fill:#373738;}
	.st1{fill:#C41230;}
</style>
<path class="st0" d="M208.4,374.2c1.7,5.8,5,11,9.6,15c1.1,1,2.2,1.9,3.4,2.7c0.9,0.7,2.8,1.4,3.2,2.4c0.2,1,0.4,2.1,0.4,3.1
	c0.1,0.9,0.2,1.9,0.3,2.8c-0.1,1.7,0.3,3.4,1.2,4.9c0.4,0.5,1.2,0.5,1.6,0c0.1-0.1,0.1-0.2,0.2-0.3c0.8-1.6,0.2-3.6,0-5.3
	c-0.2-1.9-0.4-3.9-0.7-5.8c-0.5-2.9-3.8-3.9-5.9-5.5c-5-4-9.1-9-12-14.8c-0.2-0.4-0.7-0.5-1.1-0.2
	C208.4,373.6,208.3,373.9,208.4,374.2L208.4,374.2z"/>
<g>
	<path class="st0" d="M229.1,150.1c-0.1-1.1-0.6-2.9-1.8-3.2c0,0,0,0-0.1,0c-0.6-0.3-1.3-0.1-1.7,0.5c0,0.1-0.1,0.2-0.1,0.2
		c-0.3,0.9-0.1,1.9,0.6,2.7c0.1,0.3,0.3,0.5,0.4,0.8c0.3,0.5,0.9,0.7,1.4,0.5c0,0,0,0,0.1,0c0.7,0,1.2-0.5,1.2-1.2
		C229.1,150.2,229.1,150.2,229.1,150.1z"/>
	<path class="st0" d="M236.4,158.8c0.3-0.1,0.6-0.2,0.8-0.5c1.4-1.9,2.6-3.6,0.9-5.7c-1.8-2.3-3.8-4.4-6-6.3
		c-0.1-0.1-0.1-0.1-0.2-0.1c-1.4-3.6-3.2-7.1-5.1-10.5c-0.1-0.1-0.2-0.2-0.3-0.3c0.2-1.8,0.3-3.5,0.3-5.3c0-0.4-0.2-0.8-0.5-1.1
		c0.1-5.6-4.4-8.6-9.1-11.8c-6.2-4.1-14-5.1-21-2.7c-6.9,2.2-12.7,4.5-17,10.3c-4.3,5.8-7.4,17.2-8.9,24.2
		c-3.8,16.8-1.6,30.1-2.5,47.1c-0.3,8.4-1.7,16.8-4.1,24.9c-0.5,1.6-1.9,3.7-0.9,5.2c1.2,1.6,2.6,3.1,4.2,4.5c2.8,2.7,6,5,9.3,6.9
		c15.8,9,33.9,3.2,48.9-7.2c0.6-0.4,0.9-1.1,0.7-1.8c-4.4-10.9-5.4-17.6-6.7-29.3c-1.1-10.3,0.1-21.6-5.4-30.8
		c-0.5-0.7-1.4-1-2.2-0.5c-0.2,0.1-0.4,0.3-0.5,0.5c-2.7,3.5-7.5,0.8-8.6-2.6c-0.4-1.2-0.9-4.7-0.2-5.8c1.1-1.6,3.8-1,5-0.1
		c0.6,0.3,1.4,0.2,1.9-0.2c4.7-4.1,9.6-7.1,13-12.4c1.8-2.7,3-5.7,3.7-8.9c3,8.1,6.7,15.9,8.8,24.3c0.9,3.6,2.2,9.3-0.7,12.3
		c-1.6,1.5-3.8,2.4-6,2.4c-1.1,0.1-2.2-0.1-3.3-0.3c-0.9-0.4-1.8-0.6-2.8-0.7c-0.6,0-1.1,0.5-1.1,1.1c0,0.2,0,0.4,0.1,0.5
		c1,1.2,2.5,2,4.1,2.1c-1.1,3.1-1.3,8.6,1.1,11c0.5,0.4,1.2,0.4,1.6-0.1c0.3-0.3,0.4-0.7,0.3-1.1c-0.7-1.6-1.1-3.4-1.4-5.1
		c-0.1-1.6,0.1-3.1-0.1-4.7c0.1,0,0.3,0,0.4,0c2.4,0.1,4.7-0.5,6.8-1.6c4.5-2.4,5.1-7.4,4.6-12C237.9,164.2,237.3,161.5,236.4,158.8
		z M185.3,125.4c-3,4.6-5,9.8-5.9,15.3c-0.6,3.2-0.9,6.5-1.1,9.7c0,3.2-0.3,6.4-0.9,9.6c-0.1,0.3-0.4,0.5-0.7,0.4
		c-0.2-0.1-0.3-0.2-0.4-0.4c-0.8-3.5-0.9-7-0.4-10.6c0.2-3.3,0.6-6.5,1.2-9.7c0.5-2.9,1.3-5.7,2.4-8.4c0.6-1.3,1.2-2.6,2-3.8
		c0.8-1.1,1.7-2.1,2.8-2.9C184.9,124.3,185.7,124.8,185.3,125.4z M220.4,134.9c-0.9,2-2,4-3.2,5.8c-1,1.4-2.2,3.6-3.7,4.4
		c-0.4,0.2-1,0.1-1.2-0.4c-0.1-0.1-0.1-0.2-0.1-0.4c0.2-1.7,0.9-3.4,1.9-4.8c0.9-1.6,1.9-3.2,2.7-4.8c0.8-1.6,1.5-3.3,1.8-5.1
		c0.3-1.8,0.4-3.7,0.3-5.6c0-0.5,0.5-1,1-0.9c0.3,0,0.6,0.2,0.8,0.5C223.1,126.9,221.9,131.5,220.4,134.9z M235.6,156.5
		c-0.6-1.8-1.3-3.5-1.9-5.3c-0.1-0.2-0.2-0.5-0.3-0.7c0.3,0.4,0.6,0.8,0.9,1.2c0.6,0.7,1.2,1.4,1.8,2.2
		C236.8,154.8,236.2,155.6,235.6,156.5z"/>
	<path class="st0" d="M227.9,197c1.4-0.8,2.7-1.8,4.1-2.7c1.7-1,3.5-1.6,5.4-1.7c7.9-0.7,15.7,1.1,23.3,3.2
		c14.1,3.9,30.5,9.7,41.8,16.2c6.7,3.9,11.9,7.1,17.1,12.8c0.9,1,1.6,0.2,0.8-0.8c-4.2-5-7.6-6.9-12.8-11.1
		c-5.3-4.3-13.5-8.4-19.8-11.2c-7-2.9-14.3-5.4-21.6-7.4c-7.4-2.5-15.2-4.1-23-4.8c-3.9-0.2-8.2-0.2-11.8,1.5
		c-3.6,1.8-6.2,5.2-10.7,4.3c-0.4-0.1-0.9,0.1-1,0.6c-0.1,0.3,0,0.6,0.2,0.8C222.1,199.2,225.4,198.4,227.9,197z"/>
	<path class="st0" d="M369.2,127.1c1.9-2.7,3.3-5.7,4.2-8.8c1.2-3.3,2.3-6.6,3.2-10c0.9-3.3,1.6-6.6,2.3-10c0.3-1.8,0.6-3.6,0.9-5.3
		c0.2-1.3,0.8-3.1-0.4-4c-0.3-0.3-0.8-0.3-1.1-0.1c-1.4,0.6-1.2,2.4-1.4,3.7c-0.2,1.6-0.5,3.2-0.8,4.8c-0.6,3.4-1.4,6.7-2.3,10
		c-0.9,3.2-1.8,6.4-2.8,9.5c-1.3,3.1-2.4,6.4-3.1,9.7C368,127,368.7,127.7,369.2,127.1z"/>
	<path class="st0" d="M379.7,109.3c0,0.4,0.4,0.7,0.8,0.7c0.2,0,0.3-0.1,0.5-0.2c0.9-0.7,1.9-1.4,2.7-0.2c0.5,1,0.7,2.1,0.6,3.2
		c0.1,2.2-0.1,4.4-0.5,6.5c-0.4,2-0.9,3.9-1.5,5.8c-0.5,1.5-1.9,3.6-1.1,5.1c0.1,0.2,0.4,0.4,0.7,0.3c1.2-0.3,1.5-1.4,1.9-2.5
		c0.6-1.6,1.2-3.2,1.6-4.9c0.9-3.1,1.3-6.3,1.3-9.5c-0.1-2.3-0.2-5.3-2.4-6.6C382.6,106.1,379.6,107,379.7,109.3z"/>
	<path class="st0" d="M389.2,122.8c-0.2,1.7-0.6,3.4-1.1,5c-0.7,1.6-1.2,3.3-1.4,5.1c0,0.5,0.7,1.1,1.2,0.7c2.1-1.6,2.7-4.9,3.2-7.3
		c0.6-2.8,0.9-5.6,0.9-8.5c0-1.9,0.3-5-1.4-6.3c-0.9-0.8-2.3-0.6-3.1,0.3c-0.3,0.3-0.4,0.8-0.5,1.2c0,0.4,0.3,0.7,0.7,0.7
		c0.2,0,0.4-0.1,0.5-0.2c1.4-1.4,1.3,3.1,1.3,3.7C389.6,119.1,389.5,120.9,389.2,122.8z"/>
	<path class="st0" d="M395.4,116.1c-0.9-0.9-2.6-1.2-3.2,0.2c-0.2,0.3,0,0.9,0.5,0.9c2-0.2,1.3,4,1.2,5.2c-0.2,2.2-0.6,4.3-1.1,6.4
		c-1.1,3.8-2.8,7.4-5.2,10.6c-2.1,2.9-4.4,5.7-6.3,8.8c-1.8,2.7-4,5.4-3.5,8.8c-2.1-1.2-4.3-2-6.6-2.5c-1.5-0.3-3-0.5-4.5-0.7
		c-1.1-0.2-2.2-0.3-3.4-0.2c0.1-0.1,0.2-0.3,0.2-0.5c0-1.5-0.3-3-0.9-4.4c-0.5-1.7-1.2-3.3-1.8-4.9c-1.3-3.1-2.4-6.3-3.2-9.6
		c-0.6-2.9-0.8-6.4,1.2-8.8c1.9-2.3,5.1-2.5,7.1-4.5c0.3-0.4,0.3-0.9,0-1.2c-0.2-0.2-0.4-0.2-0.6-0.2c-2.8-0.3-6.3,1.6-8.2,3.6
		c-2.2,2.5-3.2,5.9-2.6,9.2c0.5,3.7,1.5,7.3,3,10.7c0.7,1.7,1.5,3.5,2.3,5.2c0.6,1.9,1.4,3.7,2.4,5.3c0.1,0.1,0.2,0.2,0.3,0.2
		c-0.3,0.1-0.6,0.2-0.9,0.3c-0.4-0.6-1.3-0.7-1.9-0.3c-0.1,0-0.1,0.1-0.2,0.1c-9.1,9-16.5,19.7-24.2,29.9
		c-4.1,5.4-8.2,10.8-12.2,16.2c-4.3,5.4-8.2,11-11.8,16.8c-0.2,0.3,0,0.6,0.2,0.8c0.2,0.1,0.5,0.1,0.7-0.1c4.6-5,8.9-10.2,12.8-15.7
		c4.1-5.3,8.1-10.6,12.1-15.9c7.8-10.3,15.2-20.9,24.4-30c0.1-0.1,0.3-0.3,0.3-0.5c1.8,0.5,3.7,0.6,5.6,1c1.8,0.4,3.6,0.8,5.3,1.3
		c1.7,0.6,3.2,1.3,4.7,2.4c0.3,0.2,0.5,0.3,0.8,0.4c-2.6,12.2-5.3,24.2-9,36.1c-3.8,12.1-8.4,24-13.7,35.6c-2.5,5.3-5,10.7-8,15.8
		c-2.5,4.7-6,8.9-10.3,12.2c-10.4,7.5-24.8,5-36.6,3c-7.6-1.3-15.2-2.6-22.7-3.9c-3.5-0.6-7-1.2-10.4-1.9c-3.6-0.8-7-2.2-10.6-2.9
		c-1.3-0.3-1.7,0.6-0.5,1.1c3.4,1.5,5.9,2.4,9.3,3.8c2.4,1,4.8,1.7,7.4,2.2c-1,4.1-1.4,8.3-2.1,12.4c-0.8,4.2-1.6,8.3-2.6,12.4
		c-0.9,4.1-2,8.2-3.1,12.3c-0.6,2-1.1,4-1.7,6c-0.7,1.9-1.3,3.8-1.7,5.7c-0.1,0.3-0.2,0.7-0.3,1c-0.1,0.4-0.3,0.7-0.4,1.1
		c-0.7-0.2-1.3-0.4-2-0.5c-3-0.7-6-1.3-9-1.7c-5.9-0.8-11.9-1-17.8-0.8c-6.1,0.3-12.2,0.8-18.2,1.7c-3.1,0.5-6.3,0.9-9.4,1.5
		c-3,0.4-6,1.1-8.9,2c-5.3-9.7-9.9-19.7-13.8-30c-2-5.2-3.7-10.4-5.3-15.6c-1.6-5.3-3.6-10.9-5.4-16.1c-0.3-0.8-1.1-0.7-1,0.3
		c0.4,3.5,1.1,6.9,2.1,10.3c-3.5,2-6.9,4.3-10,6.8c-1.6,1.2-3.1,2.6-4.6,3.9c-1.6,1.2-2.9,2.7-3.9,4.5c-0.2,0.3-0.1,0.7,0.3,0.9
		c0.2,0.1,0.4,0.1,0.6,0c1.6-0.9,3-2,4.2-3.3c1.5-1.3,3.1-2.6,4.7-3.8c3-2.3,6.2-4.5,9.4-6.5c0.3,1.2,0.7,2.4,1.1,3.6
		c1.6,5.4,3.5,10.8,5.5,16.2c2.4,6.3,5,12.4,7.9,18.4c-1-0.1-1.9-0.1-2.9,0.1c-1.5,0-2.9,0.1-4.4,0.3c0-0.2,0-0.5-0.2-0.6
		c-3.3-3.7-6.9-7.1-10.7-10.2c-3.5-3.2-7.1-6.3-10.7-9.5c-3.3-2.9-6.7-5.7-10.2-8.4c-3.4-2.9-7.2-5.4-11.2-7.4
		c-1.5-0.6-1.3-0.3,0.1,0.6c1.3,0.9,2.5,2,5.6,4.2c1.8,1.3,3.7,3.3,5.4,4.7c3.5,2.7,5.7,5.7,9,8.7c3.5,3.1,7,6.2,10.6,9.3
		c3.1,2.9,6.4,5.7,9.9,8.2l0,0c-0.9,1.3-1.5,2.8-1.9,4.3c-0.6,1.8-1.2,3.6-1.6,5.4c-0.9,3.2-1.5,6.5-1.6,9.9
		c-0.1-0.1-0.2-0.1-0.3-0.1c-3.4-1-6.8-1.9-10.3-2.5c-3.4-0.8-6.9-1.6-10.3-2.6c-6.8-1.9-13.6-3.9-20.2-6.4
		c-6.3-2.2-12.5-4.8-18.5-7.9c-5.8-2.8-10.8-6.9-14.6-12.1c-3.7-4.9-5.2-11.1-4.1-17.1c1.4-6.4,5.7-11.8,9.7-16.8
		c7.8-9.8,16.6-18.7,26.2-26.7c5.4-4.5,11.1-8.7,17-12.6c5.9-3.9,12.3-7.1,18.2-11c0.8-0.5,0.3-2-0.7-1.6
		c-6.1,2.4-11.9,5.5-17.4,9.1c-16.7,10.5-31.7,23.6-44.2,38.9c-4.2,5.1-8.6,10.4-10.9,16.6c-2.1,6-1.7,12.6,1.1,18.3
		c5.7,12.3,18.7,18.3,30.6,23c7.7,3.1,15.5,5.7,23.5,8c4.1,1.2,8.2,2.2,12.3,3.1c4,1.1,8.1,1.7,12.3,1.9c0.3,0,0.6-0.2,0.8-0.4
		c0.3,0.2,0.7,0.2,0.9-0.1c0.1-0.1,0.1-0.2,0.1-0.2c0.4-1.2,0.7-2.4,1-3.6c1.4,1,3,1.8,4.4,2.9c0.8,0.6,3,2.8,3.9,1.1
		c0.8-1.5-1.8-2.9-2.8-3.5c-1.5-1.1-3.3-1.8-5.1-2.3c0.4-1.6,0.7-3.2,1.2-4.8c0.5-1.6,1-3.3,1.5-4.9c0.4-1.2,1-2.4,1.3-3.6l0.2,0.1
		c1.7,0.3,3.3,0.5,5,0.5c1.2,0.1,2.9,0.4,3.9-0.4c1.5,3,3,5.9,4.5,8.8c-0.1,0-0.2,0.1-0.3,0.1c-4.7,3.6-8.6,8.2-11.4,13.5
		c-3,5.4-5.6,11-7.7,16.8c-5.2,13-8.8,26.6-10.9,40.4c-1,7.5-2,15.5-0.9,23c0.2,1.4,2.2,0.9,2.3-0.3c0.5-6.7,0.3-13.3,1.2-19.9
		c0.8-6.7,2.1-13.3,3.8-19.9c3-12.5,7.5-24.6,13.2-36.2c3.2-5.8,7-11.2,11.4-16.1c0,0,0.1-0.1,0.1-0.1c0,0,0,0.1,0.1,0.1
		c0.4,0.6,1.2,0.8,1.8,0.5c0.2-0.1,0.3-0.2,0.4-0.4c3.2-0.2,6.4-0.7,9.5-1.3c3.1-0.5,6.3-1,9.4-1.4c6.6-1,13.3-1.5,19.9-1.6
		c6.4-0.1,12.8,0.4,19.1,1.6c1.5,0.3,3,0.6,4.5,1c1.2,0.5,2.5,0.8,3.8,0.7c0,0,0,0.1,0,0.1c3.3,10.6,7.2,21.1,10.1,31.8
		c2.9,10.9,5.2,21.9,6.7,33c0.9,6.3,1.3,12.6,2.2,18.8c0.2,1.4,2.4,1,2.4-0.3c-0.1-5.6-0.6-11.2-1.5-16.8
		c-0.8-5.6-1.6-11.2-2.7-16.7c-2.2-11.1-5-22.1-8.6-32.9c-1.9-6-4.3-11.9-7.1-17.6c-0.1-0.1-0.2-0.2-0.3-0.3c0.4-0.6,0.7-1.3,0.9-2
		c0.2-0.6,0.5-1.2,0.7-1.8c0.7-1.7,1.3-3.4,1.7-5.1c0.6-2.1,1.2-4.2,1.8-6.3c1.2-4.2,2.2-8.4,3.1-12.6c0.9-4.1,1.7-8.3,2.3-12.5
		c0.8-4.1,1.3-8.3,1.4-12.5c7,1.2,14.1,2.4,21.1,3.6c12.3,2.1,26.6,5.2,38.5-0.3c10.3-4.8,15.8-15.9,20.5-25.6
		c5.7-11.8,10.7-24.1,14.8-36.6c4.8-13.9,8.3-28.3,10.4-42.8c0.1-0.3-0.1-0.6-0.4-0.8c0-0.4-0.1-0.7-0.4-1c-0.1-0.1-0.2-0.2-0.3-0.3
		c0.3-0.1,0.5-0.4,0.5-0.6c0.7-4.2,3.3-7.7,5.7-11.1c2.6-3.6,5.5-6.8,7.3-10.8c2-4.3,3.2-8.9,3.4-13.7
		C396.4,120.1,396.7,117.4,395.4,116.1z"/>
	<path class="st1" d="M154.7,62.7c-11.3-2.3-22.5-4.9-33.8-7.3c-2.7-0.6-5.4-1.1-8-1.7c-1.4-0.3-1.6-1.6-2.1-2.9
		c-0.6-1.5-1.1-3-1.7-4.5c-2.2-5.8-4.5-11.6-6.7-17.5c-2.4-6.1-4.5-12.4-8.2-17.9c-0.5-0.8-1.6-1.1-2.4-0.6
		c-0.2,0.1-0.4,0.3-0.6,0.6c-6.8,12.8-13,26.5-15.9,40.8c-0.2,0.6,0.2,1.3,0.9,1.5c0.6,0.2,1.3-0.2,1.4-0.8
		c2.4-6.7,4.6-13.5,7.3-20.2c2.3-5.8,5-11.4,7.8-17c2.4,4.5,4.4,9.1,6,13.9c2.3,6,4.6,12.1,6.9,18.1c0.6,1.5,1.1,3,1.7,4.5
		c0.4,1.3,1,2.6,1.8,3.8c1.7,1.9,5.1,2,7.4,2.4c5.8,1.2,11.5,2.5,17.3,3.8c5.5,1.2,11.1,2.5,16.6,3.6c-8.2,6.6-17,12.4-25.1,19.1
		c-1.8,1.4-4.1,3-4.8,5.3c-0.8,2.5,0.3,5.7,0.8,8.2c1,6.2,1.9,12.4,2.6,18.6c0.7,5.8,1.2,11.6,1.6,17.4
		c-9.9-7.8-19.3-16.2-28.3-25.1c-0.7-0.6-1.7-0.6-2.4,0c-11.2,8.7-22.6,17.2-33.4,26.3c-1.4,1.2,0.5,3.6,1.9,2.5
		c11.1-8.1,21.8-16.9,32.6-25.4c9.6,9.4,19.7,18.3,30.4,26.5c1.1,0.8,3,0.4,3-1.2c-0.7-11.8-1.9-23.6-3.7-35.3
		c-0.4-2.9-0.9-5.8-1.4-8.7c-0.2-1.3-0.6-2.5,0.3-3.6c0.8-0.9,1.8-1.7,2.7-2.4c4.4-3.6,8.9-7,13.5-10.4c5-3.7,10-7.5,14.7-11.5
		c0.7-0.7,0.6-1.8-0.1-2.5C155.2,62.9,155,62.7,154.7,62.7z"/>
	<path class="st0" d="M538.6,135c-10.8-9.1-22.3-17.6-33.4-26.3c-0.7-0.6-1.7-0.6-2.4,0c-8.9,8.9-18.4,17.2-28.3,25
		c0.8-11.2,2-22.4,3.8-33.5c0.6-2.9,1.1-5.7,1.4-8.6c0.1-2.6-1.5-4.2-3.2-5.8c-4.4-3.7-9-7.2-13.6-10.6c-4.5-3.3-9-6.5-13.3-10
		c10.6-2.2,21.1-4.7,31.6-7c1.4-0.3,2.8-0.6,4.2-0.9c1.4-0.2,2.7-0.5,4-1c2.5-1.2,3.1-4.6,4-6.9c2.3-5.9,4.5-11.8,6.8-17.8
		c1.9-5.7,4.3-11.3,7-16.6c2.9,5.5,5.5,11.2,7.8,17c2.7,6.7,4.9,13.4,7.3,20.2c0.2,0.6,0.9,1,1.5,0.8c0.6-0.2,1-0.8,0.8-1.4
		c-3-14.2-9.1-28-15.9-40.8c-0.5-0.8-1.6-1.1-2.4-0.6c-0.2,0.1-0.4,0.3-0.6,0.6c-3,4.9-5.4,10.1-7.3,15.5
		c-2.2,5.8-4.5,11.7-6.7,17.5c-1.1,2.8-2,5.8-3.3,8.5c-0.6,1.3-1.8,1.3-3.1,1.5c-1.4,0.3-2.8,0.6-4.2,0.9c-5.7,1.3-11.4,2.5-17,3.7
		c-6.3,1.4-12.7,2.8-19.1,4.1c-0.9,0.3-1.4,1.2-1.1,2.1c0.1,0.3,0.2,0.5,0.4,0.7c8.5,7.3,17.8,13.4,26.4,20.4c1,0.8,2,1.6,2.9,2.4
		c0.9,0.8,2.1,1.5,2.2,2.7c0,1.4-0.2,2.9-0.6,4.2l-0.7,4.3c-0.9,5.9-1.7,11.8-2.4,17.7c-0.8,6.7-1.3,13.4-1.7,20.1
		c-0.1,1.7,1.9,2,3,1.2c10.6-8.2,20.8-17.1,30.4-26.5c10.8,8.5,21.4,17.3,32.6,25.4C538.1,138.5,539.9,136.1,538.6,135z"/>
	<path class="st1" d="M430.3,62.3c-15-3.9-31.1-3.1-45.6-9c0,0,0-0.1,0-0.1c-4.8-14.5-9.6-29.1-14.3-43.6c-0.1-0.4-0.7-0.5-0.9-0.1
		c-5.3,10.8-10.1,21.8-14.6,33c-1.2,2.9-2.3,5.8-3.4,8.7c-0.2,0.7-0.5,1.4-0.9,2c-0.6,0.4-1.3,0.6-2,0.8c-1.6,0.5-3.2,0.9-4.8,1.4
		C338,57,332,58.5,326,59.8c-6.8,1.5-13.7,2.6-20.5,3.6c-0.4,0.1-0.5,0.6-0.2,0.8c10.9,10.3,22.5,19.9,34.8,28.5
		c-2.8,13.7-5.3,27.5-7.5,41.3c-0.1,0.3,0.1,0.5,0.4,0.6c0.2,0,0.3,0,0.4-0.1c10.6-10.8,25.5-16.4,35.2-28.1l2,2.3
		c0.7-3.9,1.4-7.8,2.1-11.7c0.4-2.6,1-5.2,1.8-7.7c0.3-1.7,1.4-3.2,2.9-4.2c3.4-1.6,4.9,2.4,5.1,5c0.2,4.6-0.1,9.1-1,13.6
		c1.2-0.7,2.7-0.7,3.9-0.1c1.4,0.7,2.4,2.1,2.6,3.8c0.9-0.4,1.9-0.5,2.8-0.1c1.7,0.9,2.8,2.5,2.9,4.4c1.2-0.6,2.7-0.3,3.6,0.8
		c1.8,2.1,1.4,5.9,1.4,8.4c0,4.5-0.5,9-1.4,13.5l0.6,0.6c0.2,0.2,0.5,0.2,0.7,0c0.1-0.1,0.1-0.2,0.1-0.3c1.4-10.8,2.8-21.6,3.3-32.5
		c0.1-2.7,0.2-5.5,0.2-8.2c0-1.6-0.2-2.7,1-3.8c1-0.9,2-1.8,3-2.7c4-3.7,7.9-7.4,11.7-11.2c4.3-4.3,8.4-8.6,12.5-13.1
		c0.2-0.2,0.2-0.5,0.1-0.7C430.5,62.4,430.4,62.4,430.3,62.3z"/>
	<path class="st1" d="M291.8,57.1c-15.2-3-31.2-1.1-46.1-6.1c0,0,0,0,0-0.1c-5.7-14.2-11.4-28.4-17-42.6c-0.1-0.3-0.4-0.4-0.6-0.3
		c-0.2,0-0.3,0.2-0.3,0.3c-4.6,11.3-8.9,22.7-12.6,34.3c-1,3-1.9,5.9-2.8,8.9c-0.2,0.8-0.3,1.3-1,1.7c-0.6,0.3-1.3,0.6-2,0.8
		c-1.5,0.6-3.1,1.1-4.6,1.7c-5.7,2-11.5,3.8-17.3,5.4c-6.6,1.8-13.3,3.4-20,4.8c-0.3,0.1-0.4,0.3-0.3,0.6c0,0.1,0.1,0.2,0.1,0.2
		c11.5,9.7,23.7,18.5,36.6,26.3c-0.7,5.2-1.4,10.5-2.1,15.7c5.6-1,11.4-0.2,16.5,2.3c2,1,3.8,2.3,5.4,3.9c3.5-2.9,6.7-6.3,9.5-9.9
		c9.4,10,20.8,17.7,31.1,26.7c0.2,0.2,0.5,0.2,0.7,0c0.1-0.1,0.1-0.2,0.1-0.3c0.7-10.9,1.4-21.8,1.3-32.7c0-2.7-0.1-5.5-0.3-8.2
		c-0.1-1.6-0.4-2.7,0.7-3.9c0.9-0.9,1.9-1.9,2.8-2.9c3.8-3.9,7.4-7.9,11-12c4-4.5,7.9-9.2,11.7-13.8
		C292.2,57.6,292.2,57.2,291.8,57.1z"/>
</g>
</svg>
