<svg width="44" height="44" viewBox="0 0 44 44" fill="none" xmlns="http://www.w3.org/2000/svg">
<path d="M21.8921 10.6616C15.6812 10.6616 10.6714 15.6714 10.6714 21.8823C10.6714 28.0933 15.6812 33.103 21.8921 33.103C28.103 33.103 33.1128 28.0933 33.1128 21.8823C33.1128 15.6714 28.103 10.6616 21.8921 10.6616ZM21.8921 29.1772C17.8784 29.1772 14.5972 25.9058 14.5972 21.8823C14.5972 17.8589 17.8687 14.5874 21.8921 14.5874C25.9155 14.5874 29.187 17.8589 29.187 21.8823C29.187 25.9058 25.9058 29.1772 21.8921 29.1772ZM36.189 10.2026C36.189 11.6577 35.0171 12.8198 33.5718 12.8198C32.1167 12.8198 30.9546 11.6479 30.9546 10.2026C30.9546 8.75732 32.1265 7.58545 33.5718 7.58545C35.0171 7.58545 36.189 8.75732 36.189 10.2026ZM43.6206 12.8589C43.4546 9.35303 42.6538 6.24756 40.0854 3.68896C37.5269 1.13037 34.4214 0.32959 30.9155 0.153809C27.3022 -0.0512695 16.4722 -0.0512695 12.8589 0.153809C9.36279 0.319824 6.25732 1.12061 3.68896 3.6792C1.12061 6.23779 0.32959 9.34326 0.153809 12.8491C-0.0512695 16.4624 -0.0512695 27.2925 0.153809 30.9058C0.319824 34.4116 1.12061 37.5171 3.68896 40.0757C6.25732 42.6343 9.35303 43.4351 12.8589 43.6108C16.4722 43.8159 27.3022 43.8159 30.9155 43.6108C34.4214 43.4448 37.5269 42.644 40.0854 40.0757C42.644 37.5171 43.4448 34.4116 43.6206 30.9058C43.8257 27.2925 43.8257 16.4722 43.6206 12.8589ZM38.9526 34.7827C38.1909 36.6968 36.7163 38.1714 34.7925 38.9429C31.9116 40.0854 25.0757 39.8218 21.8921 39.8218C18.7085 39.8218 11.8628 40.0757 8.9917 38.9429C7.07764 38.1812 5.60303 36.7065 4.83154 34.7827C3.68897 31.9019 3.95264 25.0659 3.95264 21.8823C3.95264 18.6987 3.69873 11.853 4.83154 8.98193C5.59326 7.06787 7.06787 5.59326 8.9917 4.82178C11.8726 3.6792 18.7085 3.94287 21.8921 3.94287C25.0757 3.94287 31.9214 3.68896 34.7925 4.82178C36.7065 5.5835 38.1812 7.05811 38.9526 8.98193C40.0952 11.8628 39.8315 18.6987 39.8315 21.8823C39.8315 25.0659 40.0952 31.9116 38.9526 34.7827Z" fill="white"/>
</svg>
