<svg width="60" height="60" viewBox="0 0 60 60" fill="none" xmlns="http://www.w3.org/2000/svg">
<g clip-path="url(#clip0_955_100)">
<path d="M39.9984 30C39.9984 24.4774 35.5226 19.9992 30 19.9992C24.4774 19.9992 19.9992 24.4774 19.9992 30C19.9992 35.5226 24.4774 40.0008 30 40.0008C35.5226 40.0008 39.9984 35.5226 39.9984 30ZM45.4047 30C45.4047 38.5081 38.5081 45.4047 30 45.4047C21.4919 45.4047 14.5953 38.5081 14.5953 30C14.5953 21.4919 21.4919 14.5953 30 14.5953C38.5081 14.5953 45.4047 21.4919 45.4047 30ZM17.5856 13.9847C17.5856 15.9717 15.9742 17.5856 13.9847 17.5856C11.9976 17.5856 10.3837 15.9717 10.3837 13.9847C10.3837 11.9976 11.9952 10.3861 13.9847 10.3861C15.9742 10.3861 17.5856 11.9976 17.5856 13.9847ZM42.1212 54.4192C45.046 54.2859 46.6357 53.7989 47.6922 53.3869C49.0929 52.8417 50.0913 52.1922 51.143 51.143C52.1922 50.0937 52.8441 49.0953 53.3869 47.6947C53.7989 46.6381 54.2859 45.0485 54.4192 42.1236C54.5646 38.9612 54.5937 38.0113 54.5937 30C54.5937 21.9887 54.5622 21.0412 54.4192 17.8764C54.2859 14.9515 53.7964 13.3643 53.3869 12.3053C52.8417 10.9047 52.1922 9.9063 51.143 8.8546C50.0937 7.80533 49.0953 7.15347 47.6922 6.61066C46.6357 6.19871 45.046 5.71163 42.1212 5.57835C38.9588 5.43296 38.0089 5.40388 30 5.40388C21.9887 5.40388 21.0412 5.43538 17.8764 5.57835C14.9515 5.71163 13.3643 6.20113 12.3053 6.61066C10.9047 7.15347 9.9063 7.80533 8.8546 8.8546C7.80533 9.90388 7.1559 10.9047 6.61066 12.3053C6.19871 13.3619 5.71163 14.9515 5.57835 17.8764C5.43295 21.0412 5.40388 21.9887 5.40388 30C5.40388 38.0089 5.43295 38.9588 5.57835 42.1236C5.71163 45.0485 6.20113 46.6381 6.61066 47.6947C7.1559 49.0953 7.80533 50.0937 8.8546 51.143C9.90387 52.1922 10.9047 52.8417 12.3053 53.3869C13.3619 53.7989 14.9515 54.2859 17.8764 54.4192C21.0388 54.5646 21.9887 54.5937 30 54.5937C38.0089 54.5937 38.9588 54.5646 42.1212 54.4192ZM42.3683 0.181745C45.5622 0.327141 47.7431 0.833603 49.6502 1.57512C51.6228 2.34087 53.2948 3.36834 54.9645 5.03554C56.6317 6.70275 57.6591 8.3748 58.4249 10.3498C59.1664 12.2569 59.6729 14.4378 59.8183 17.6317C59.9661 20.8304 60 21.853 60 30C60 38.147 59.9661 39.1696 59.8183 42.3683C59.6729 45.5622 59.1664 47.7431 58.4249 49.6502C57.6591 51.6228 56.6341 53.2973 54.9645 54.9645C53.2973 56.6317 51.6252 57.6567 49.6502 58.4249C47.7407 59.1664 45.5622 59.6729 42.3683 59.8183C39.1672 59.9637 38.147 60 30 60C21.8506 60 20.8304 59.9661 17.6317 59.8183C14.4378 59.6729 12.2569 59.1664 10.3498 58.4249C8.37722 57.6567 6.70517 56.6317 5.03554 54.9645C3.36834 53.2973 2.3433 51.6228 1.57512 49.6502C0.833602 47.7431 0.324717 45.5622 0.181744 42.3683C0.0363486 39.1672 0.0024253 38.147 0.0024253 30C0.0024253 21.853 0.0363486 20.8304 0.181744 17.6317C0.32714 14.4378 0.833602 12.2569 1.57512 10.3498C2.3433 8.37722 3.36834 6.70517 5.03554 5.03554C6.70275 3.36834 8.37722 2.34087 10.3473 1.57512C12.2569 0.833603 14.4378 0.324717 17.6292 0.181745C20.8279 0.036349 21.8506 0 29.9976 0C38.147 0 39.1672 0.0339257 42.3683 0.181745Z" fill="white"/>
</g>
<defs>
<clipPath id="clip0_955_100">
<rect width="60" height="60" fill="white" transform="matrix(-1 0 0 1 60 0)"/>
</clipPath>
</defs>
</svg>
