<svg width="44" height="44" viewBox="0 0 44 44" fill="none" xmlns="http://www.w3.org/2000/svg">
<path d="M9.79297 43.749H0.722656V14.54H9.79297V43.749ZM5.25293 10.5557C2.35254 10.5557 0 8.15332 0 5.25293C2.07598e-08 3.85977 0.553432 2.52366 1.53855 1.53855C2.52366 0.553432 3.85977 0 5.25293 0C6.64609 0 7.9822 0.553432 8.96731 1.53855C9.95243 2.52366 10.5059 3.85977 10.5059 5.25293C10.5059 8.15332 8.15234 10.5557 5.25293 10.5557ZM43.7402 43.749H34.6895V29.5303C34.6895 26.1416 34.6211 21.7959 29.9736 21.7959C25.2578 21.7959 24.5352 25.4775 24.5352 29.2861V43.749H15.4746V14.54H24.1738V18.5244H24.3008C25.5117 16.2295 28.4697 13.8076 32.8828 13.8076C42.0625 13.8076 43.75 19.8525 43.75 27.7041V43.749H43.7402Z" fill="white"/>
</svg>
