<?xml version="1.0" encoding="utf-8"?>
<!-- Generator: Adobe Illustrator 24.3.0, SVG Export Plug-In . SVG Version: 6.00 Build 0)  -->
<svg version="1.1" id="Layer_1" xmlns="http://www.w3.org/2000/svg" xmlns:xlink="http://www.w3.org/1999/xlink" x="0px" y="0px"
	 viewBox="0 0 1726.6 558.4" style="enable-background:new 0 0 1726.6 558.4;" xml:space="preserve">
<style type="text/css">
	.st0{fill:#FFFFFF;}
</style>
<g>
	<g>
		<path class="st0" d="M1009,203.6v-1.1c31.8-13.3,53-40.8,53-85.3c0-63.1-43.5-102.4-129.8-102.4H770.5v398.8h163.7
			c100.1,0,142-44.6,142-116.2C1076.3,247,1052.9,215.8,1009,203.6 M856.3,90.1H929c33.3,0,47.7,11.7,47.7,43
			c0,31.2-13.8,43.9-45.6,43.9h-74.7V90.1H856.3z M935.3,340.4h-79v-97.1h76.9c38.7,0,53.5,13.8,53.5,47.1
			C986.7,328.1,970.8,340.4,935.3,340.4"/>
		<path class="st0" d="M1320.9,14.8h-106.5l-137.7,398.7h94.3l22.7-78h144.1l22.7,78h99.6L1320.9,14.8z M1215.5,260.8l39.7-136.2
			l11.1-41.8h1.6l10.6,41.8l38.1,136.2H1215.5z"/>
		<path class="st0" d="M1640.1,339.6c-72.5,0-98.4-27.9-98.4-127.5c0-94.3,24.7-123.5,96.8-123.5c29.7,0,64.9,5.3,85.5,13.3V25
			c-22.7-9-59-16.4-90.8-16.4c-127.2,0-185.3,70.5-185.3,202.9c0,142,59.2,208.8,179.5,208.8c35,0,73.1-9,99.1-21.7v-77.1
			C1704.3,331,1669.3,339.6,1640.1,339.6"/>
		<path class="st0" d="M1676.6,502.1c0-25.5,6.7-33.3,26.1-33.3c8.1,0,17.6,1.4,23.1,3.6v-20.8c-6.1-2.4-16-4.4-24.5-4.4
			c-34.4,0-50.1,19-50.1,54.8c0,38.4,16.1,56.3,48.5,56.3c9.5,0,19.8-2.4,26.8-5.8v-20.8c-6,2.6-15.5,4.9-23.3,4.9
			C1683.6,536.6,1676.6,529.1,1676.6,502.1"/>
		<path class="st0" d="M792.4,502.1c0-25.5,6.7-33.3,26.1-33.3c8,0,17.5,1.4,23.1,3.6v-20.8c-6.2-2.4-16-4.4-24.5-4.4
			c-34.4,0-50.1,19-50.1,54.8c0,38.4,15.9,56.3,48.5,56.3c9.5,0,19.8-2.4,26.8-5.8v-20.8c-6.1,2.6-15.5,4.9-23.4,4.9
			C799.3,536.6,792.4,529.1,792.4,502.1"/>
		<path class="st0" d="M925.9,511.6c11.6-3.6,18.1-14.2,18.1-29.2c0-22.9-13.3-33.4-40-33.4h-39.3v107.4h24.2v-40.1H904l18.8,40.1
			H951L925.9,511.6z M903.7,498.3h-14.9v-29.2h15.3c10.6,0,14.6,3.5,14.6,14.3C918.8,495,914.5,498.3,903.7,498.3"/>
		<polygon class="st0" points="992.2,510.9 1031.8,510.9 1031.8,491.7 992.2,491.7 992.2,470.4 1039.2,470.4 1038.8,449.1 
			968,449.1 968,556.4 1041,556.4 1041.6,535.4 992.2,535.4 		"/>
		<path class="st0" d="M1101.9,449.1h-40.2v107.4h40.5c31.8,0,48-15.3,48-54.1C1150.2,465.3,1136,449.1,1101.9,449.1 M1101.8,535
			h-15.9v-64.3h15.8c17.1,0,23.2,6,23.2,31.5C1124.9,529.7,1118.3,535,1101.8,535"/>
		<path class="st0" d="M1213,447.3c-33.5,0-47.4,17.2-47.4,55.4s14.3,55.6,47.4,55.6c33.6,0,47.2-16.7,47.2-55.6
			C1260.2,464.5,1246.6,447.3,1213,447.3 M1213.1,536.8c-16.3,0-22.2-6.8-22.2-34s5.8-33.8,22.1-33.8c16.5,0,22,6.6,22,33.8
			C1235,529.8,1229.3,536.8,1213.1,536.8"/>
		<polygon class="st0" points="1338,511.8 1334,522.5 1333.6,522.5 1329.6,511.8 1304.7,449.1 1278.1,449.1 1278.1,556.4 
			1299.4,556.4 1299.4,501.9 1299.2,490.3 1299.6,490.2 1303.6,501 1325.4,556.4 1341.5,556.4 1363.5,500.9 1367.5,490 1368,490.2 
			1367.7,501.7 1367.7,556.4 1389.7,556.4 1389.7,449.1 1363.1,449.1 		"/>
		<path class="st0" d="M1470.6,449.1h-28.8l-37.1,107.4h25.5l6-20.9h39l6,20.9h26.9L1470.6,449.1z M1442.1,515.4l10.7-36.8l3-11.3
			h0.5l2.8,11.3l10.4,36.8H1442.1z"/>
		<polygon class="st0" points="1505.4,449.1 1504.9,470.8 1533.7,470.8 1533.7,556.4 1558,556.4 1558,470.8 1586.9,470.8 
			1586.3,449.1 		"/>
		<polygon class="st0" points="1605.4,556.4 1630.1,556.4 1630.1,524.1 1630.1,449.1 1605.4,449.1 		"/>
		<polygon class="st0" points="399.5,101.4 613.6,272.7 556.5,413.8 399.5,413.8 		"/>
		<polygon class="st0" points="371,0 0,99.8 0,267.4 371,107.7 		"/>
		<polygon class="st0" points="371,138.8 0,298.5 0,483.9 371,257.3 		"/>
		<polygon class="st0" points="270.5,556.4 513.7,556.4 513.7,442.3 388.9,442.3 		"/>
		<polygon class="st0" points="371,290.7 0,517.3 0,556.4 229.4,556.4 371,420 		"/>
	</g>
</g>
</svg>
