<?xml version="1.0" encoding="utf-8"?>
<!-- Generator: Adobe Illustrator 24.3.0, SVG Export Plug-In . SVG Version: 6.00 Build 0)  -->
<svg version="1.1" id="Layer_1" xmlns="http://www.w3.org/2000/svg" xmlns:xlink="http://www.w3.org/1999/xlink" x="0px" y="0px"
	 viewBox="0 0 120 120" style="enable-background:new 0 0 120 120;" xml:space="preserve">
<style type="text/css">
	.st0{fill:#FFFFFF;}
	.st1{fill:#4D4D4F;}
</style>
<rect class="st0" width="120" height="120"/>
<g>
	<path class="st1" d="M33.5,10.8H10.8v22.7h22.7V10.8z M29.9,29.9H14.5V14.5h15.4V29.9z"/>
	<rect x="17.3" y="17.5" class="st1" width="9.4" height="9.4"/>
	<rect x="41.1" y="10.8" class="st1" width="7.6" height="7.6"/>
	<polygon class="st1" points="18.4,48.7 10.8,48.7 10.8,56.2 10.8,63.8 18.4,63.8 18.4,56.2 	"/>
	<rect x="26" y="48.7" class="st1" width="7.6" height="7.6"/>
	<rect x="18.4" y="41.1" class="st1" width="7.6" height="7.6"/>
	<polygon class="st1" points="94,48.7 94,41.1 86.5,41.1 78.9,41.1 78.9,48.7 86.5,48.7 86.5,56.2 94,56.2 94,63.8 86.5,63.8 
		78.9,63.8 78.9,56.2 78.9,48.7 71.3,48.7 71.3,41.1 78.9,41.1 78.9,33.5 78.9,26 71.3,26 71.3,18.4 78.9,18.4 78.9,10.8 71.3,10.8 
		63.8,10.8 56.2,10.8 56.2,18.4 63.8,18.4 63.8,26 63.8,33.5 56.2,33.5 56.2,41.1 63.8,41.1 63.8,48.7 63.8,56.2 56.2,56.2 
		56.2,63.8 63.8,63.8 63.8,71.3 63.8,78.9 56.2,78.9 56.2,86.5 63.8,86.5 63.8,94 63.8,101.6 56.2,101.6 56.2,109.1 63.8,109.1 
		71.3,109.1 78.9,109.1 78.9,101.6 71.3,101.6 71.3,94 78.9,94 78.9,86.5 78.9,78.9 71.3,78.9 71.3,71.3 78.9,71.3 86.5,71.3 
		86.5,78.9 94,78.9 94,71.3 101.6,71.3 101.6,78.9 109.2,78.9 109.2,71.3 109.2,63.8 101.6,63.8 101.6,56.2 109.2,56.2 109.2,48.7 
		101.6,48.7 	"/>
	<path class="st1" d="M86.5,10.8v22.7h22.7V10.8H86.5z M105.5,29.9H90.1V14.5h15.4V29.9z"/>
	<rect x="92.9" y="17.5" class="st1" width="9.4" height="9.4"/>
	<path class="st1" d="M10.8,109.1h22.7V86.5H10.8V109.1z M14.5,90.1h15.4v15.4H14.5V90.1z"/>
	<rect x="17.3" y="93.1" class="st1" width="9.4" height="9.4"/>
	<polygon class="st1" points="56.2,86.5 48.7,86.5 48.7,78.9 56.2,78.9 56.2,71.3 56.2,63.8 48.7,63.8 48.7,56.2 56.2,56.2 
		56.2,48.7 48.7,48.7 48.7,41.1 48.7,33.5 56.2,33.5 56.2,26 56.2,18.4 48.7,18.4 48.7,26 41.1,26 41.1,33.5 41.1,41.1 33.5,41.1 
		33.5,48.7 41.1,48.7 41.1,56.2 33.5,56.2 33.5,63.8 41.1,63.8 41.1,71.3 33.5,71.3 33.5,63.8 26,63.8 18.4,63.8 18.4,71.3 26,71.3 
		26,78.9 33.5,78.9 41.1,78.9 41.1,86.5 41.1,94 48.7,94 48.7,101.6 56.2,101.6 56.2,94 	"/>
	<rect x="41.1" y="101.6" class="st1" width="7.6" height="7.6"/>
	<rect x="10.8" y="71.3" class="st1" width="7.6" height="7.6"/>
	<path class="st1" d="M86.5,109.1h22.7V86.5H86.5V109.1z M90.1,90.1h15.4v15.4H90.1V90.1z"/>
	<rect x="92.9" y="93.1" class="st1" width="9.4" height="9.4"/>
</g>
</svg>
