<?xml version="1.0" encoding="utf-8"?>
<!-- Generator: Adobe Illustrator 24.2.1, SVG Export Plug-In . SVG Version: 6.00 Build 0)  -->
<svg version="1.1" id="Layer_1" xmlns="http://www.w3.org/2000/svg" xmlns:xlink="http://www.w3.org/1999/xlink" x="0px" y="0px"
	 viewBox="0 0 24 24" style="enable-background:new 0 0 24 24;" xml:space="preserve">
<style type="text/css">
	.st0{fill:#000000;}
</style>
<path class="st0" d="M21,3.2H3c-1.7,0-3,1.4-3,3v11.6c0,1.7,1.4,3,3,3h18c1.7,0,3-1.4,3-3V6.2C24,4.5,22.6,3.2,21,3.2z M22.9,7.5
	L22.9,7.5c0,0.1,0,0.1,0,0.2v1.6h0c0,0.1,0,0.1,0,0.2v1.3v0.4v0.1l-6,0.1c-0.5,0-0.9,0.2-1.3,0.5l-2.2,1.9c-0.6,0.5-2.5,0.4-3.1,0
	L8.5,12c-0.4-0.4-0.9-0.6-1.5-0.6H1v-0.6c0-0.2,0-0.3,0.1-0.5V9.5c0-0.1,0-0.1,0-0.2h0V7.7c0-0.1,0-0.1,0-0.2h0V6.3c0-1.1,0.9-2,2-2
	h17.8c1.1,0,2,0.9,2,2V7.5z"/>
</svg>
