<?xml version="1.0" encoding="utf-8"?>
<!-- Generator: Adobe Illustrator 24.3.0, SVG Export Plug-In . SVG Version: 6.00 Build 0)  -->
<svg version="1.1" id="Layer_1" xmlns="http://www.w3.org/2000/svg" xmlns:xlink="http://www.w3.org/1999/xlink" x="0px" y="0px"
	 viewBox="0 0 117.5 83.7" style="enable-background:new 0 0 117.5 83.7;" xml:space="preserve">
<style type="text/css">
	.st0{fill:#FFFFFF;}
</style>
<g id="Capa_2">
	<g id="Layer_1_1_">
		<rect x="99.6" y="33.1" class="st0" width="2" height="10.2"/>
		<rect x="4.9" y="71.1" class="st0" width="22.6" height="2"/>
		<path class="st0" d="M81.7,83.7H34.8c-2.7,0-4.8-2.2-4.8-4.8l0,0V50.2c0-2.7,2.2-4.8,4.8-4.8h46.9c2.7,0,4.8,2.2,4.8,4.8v28.7
			C86.6,81.5,84.4,83.7,81.7,83.7z M34.8,47.3c-1.6,0-2.8,1.3-2.8,2.8l0,0v28.7c0,1.6,1.3,2.8,2.8,2.8h46.9c1.6,0,2.8-1.3,2.8-2.8
			V50.2c0-1.6-1.3-2.8-2.8-2.8H34.8z"/>
		<rect x="36" y="55.4" class="st0" width="44.6" height="2"/>
		<rect x="63.7" y="73.2" class="st0" width="11.3" height="2"/>
		<path class="st0" d="M22,69h-2V27.7l0.1-0.2c1.3-2.5,4.5-4.5,5.9-5.3V0l7.9,0.1v22.2c1.3,0.7,4.5,2.6,5.9,5.2l0.1,0.2v14.4h-2
			V28.2c-1.5-2.5-5.4-4.4-5.5-4.4l-0.6-0.3V2.1L28,2v21.5l-0.5,0.3c0,0-4,2-5.5,4.5L22,69z"/>
		<polygon class="st0" points="30.9,2.1 28.9,2.1 30.9,2.1 		"/>
		<path class="st0" d="M48.5,40.8c-9.2-8.2-10-22.3-1.8-31.5S69-0.7,78.2,7.5c5.7,5,8.4,12.6,7.2,20.1l-2-0.3c0.2-1,0.2-2.1,0.2-3.1
			c0-11.2-9.1-20.3-20.3-20.4S43,12.9,43,24.1c0,5.8,2.5,11.4,6.8,15.2L48.5,40.8z"/>
		<rect x="62.4" y="11.6" class="st0" width="2" height="25.2"/>
		<rect x="50.8" y="23.2" class="st0" width="25.2" height="2"/>
		<polygon class="st0" points="6.6,68.3 0,29.4 17.4,29.4 17.4,31.4 2.4,31.4 8.6,67.9 		"/>
		<polygon class="st0" points="117.5,80.7 93.2,80.7 93.2,78.7 115.4,78.7 112.8,34.1 78.7,34.1 78.3,40.3 76.3,40.2 76.8,32.1 
			114.7,32.1 		"/>
		<path class="st0" d="M103.8,34.1H87.7V28c0.2-4.4,3.9-7.9,8.3-7.8c4.2,0.1,7.6,3.5,7.8,7.8V34.1z M89.7,32.1h12.1V28
			c-0.1-3.3-3-5.9-6.3-5.8c-3.2,0.1-5.7,2.7-5.8,5.8V32.1z"/>
		<path class="st0" d="M105.6,52.3h-10V38.5h10V52.3z M97.6,50.3h6v-9.7h-6V50.3z"/>
	</g>
</g>
</svg>
