<svg xmlns="http://www.w3.org/2000/svg" viewBox="0 0 141.97 55.98"><defs><style>.cls-1{fill:#c8102f;}.cls-2{fill:#bebebe;}</style></defs><title>illustration-viajes-avion-maleta-cielo-millas-tarjeta</title><g id="Capa_2" data-name="Capa 2"><g id="Layer_1" data-name="Layer 1"><path class="cls-1" d="M62.16,56a39.21,39.21,0,0,1-9.45-1.27l-.7-.2-.33-7.18.79-.21c10.91-2.83,15.76-.54,16-.44L69,47l-.16,8-.69.22A20.82,20.82,0,0,1,62.16,56Zm-8.22-3c2,.47,8.13,1.7,12.94.51l.1-5.19c-1.44-.43-5.67-1.25-13.23.58Z"/><rect class="cls-1" x="61.38" y="39.79" width="2" height="2.62" transform="translate(-0.16 0.24) rotate(-0.22)"/><rect class="cls-1" x="55.73" y="40" width="2" height="2.62" transform="translate(-0.16 0.22) rotate(-0.22)"/><rect class="cls-1" x="50.74" y="39.99" width="2" height="2.62" transform="translate(-0.16 0.2) rotate(-0.22)"/><rect class="cls-1" x="45.76" y="39.99" width="2" height="2.62" transform="translate(-0.16 0.18) rotate(-0.22)"/><rect class="cls-1" x="40.78" y="39.99" width="2" height="2.62" transform="translate(-0.16 0.16) rotate(-0.22)"/><rect class="cls-1" x="67.05" y="39.77" width="2" height="2.62" transform="translate(-0.16 0.27) rotate(-0.22)"/><rect class="cls-1" x="72.72" y="39.74" width="2" height="2.62" transform="translate(-0.16 0.29) rotate(-0.22)"/><rect class="cls-1" x="78.39" y="39.72" width="2" height="2.62" transform="translate(-0.16 0.31) rotate(-0.22)"/><rect class="cls-1" x="84.17" y="39.82" width="2" height="2.62" transform="translate(-0.16 0.33) rotate(-0.22)"/><path class="cls-1" d="M50.79,51.83C39,51.83,27.83,49,20,43.89l-.41-.26,0-.48c-.38-3.83-.38-3.83,0-4.17l.26-.26,6.55-.56-2.4-17.38,8.59.29L42.85,33.94a1.73,1.73,0,0,0,1.36.65L87.48,34a33.26,33.26,0,0,1,11.17,1.77,22.92,22.92,0,0,1,6.2,4.14c5.84,1.65,5.46,5,5.44,5.17-1.31,5.66-14.71,5.8-16.2,5.78-.09,0-12.48.31-26.09.32v-2c13.58,0,26-.32,26.07-.32h.08c5.11,0,13.33-1.1,14.15-4.06,0-.69-.88-2.14-4.21-3l-.26-.07-.19-.18a21.21,21.21,0,0,0-5.77-3.91A31.52,31.52,0,0,0,87.5,36l-43.28.64a3.71,3.71,0,0,1-2.93-1.4L31.54,23l-5.29-.18L28.35,38A1.77,1.77,0,0,1,28,39.42a1.74,1.74,0,0,1-1.26.71l-5.42.47c.06.62.13,1.39.18,1.87,7.92,5,19.3,7.66,31.3,7.33l.06,2ZM26.37,38.36a0,0,0,0,0,0,0Z"/><path class="cls-2" d="M140,51.64l-26.7-.15v-2l26.7.15L140,19.35l-36.53-.1v-2l36.58.16A1.94,1.94,0,0,1,142,19.35V49.7A1.94,1.94,0,0,1,140,51.64Z"/><rect class="cls-2" x="129.15" y="18.25" width="2" height="31.88"/><path class="cls-2" d="M124.79,18.41h-2V13.06a1.12,1.12,0,0,0-1.12-1.12H111.25a1.13,1.13,0,0,0-1.13,1.12v5.35h-2V13.06a3.13,3.13,0,0,1,3.13-3.12h10.42a3.12,3.12,0,0,1,3.12,3.12Z"/><path class="cls-2" d="M118.39,27.68,116.51,27c3.32-9.07-1.32-15.18-1.51-15.44l1.57-1.23C116.8,10.61,122.1,17.52,118.39,27.68Z"/><path class="cls-2" d="M122.9,40.88H112.38v-11l3.26-3.55,4.09,0,3.17,3.3Zm-8.52-2h6.52V30.46l-2-2.11-2.36,0-2.13,2.33Z"/><rect class="cls-2" x="115.73" y="35.28" width="4.03" height="2"/><path class="cls-2" d="M53.36,31h-2l.07-21.33a4.23,4.23,0,0,1,4.23-4.22h0l39.44.12a4.23,4.23,0,0,1,4.21,4.25L99.26,30h-2l.06-20.18A2.23,2.23,0,0,0,95.1,7.59L55.66,7.47h0A2.23,2.23,0,0,0,53.43,9.7Z"/><rect class="cls-2" x="74.36" y="-3.78" width="2" height="37.52" transform="translate(60.14 90.3) rotate(-89.83)"/><rect class="cls-2" x="83.62" y="24.47" width="2" height="9.49" transform="translate(55.15 113.75) rotate(-89.83)"/><path class="cls-2" d="M18.43,36.51l-9.67,0a9.43,9.43,0,0,1,.67-18.84h.41A13.64,13.64,0,0,1,21.3,9.5,14.93,14.93,0,0,1,47.59,6.58L45.93,7.7a12.93,12.93,0,0,0-23,3.09l-.23.66-.7,0a11.58,11.58,0,0,0-10.59,7.6l-.27.75-.8-.1a6.72,6.72,0,0,0-.94-.07,7.43,7.43,0,0,0,0,14.86l1.33,0v0h7.67Z"/></g></g></svg>