<svg width="108" height="108" viewBox="0 0 108 108" fill="none" xmlns="http://www.w3.org/2000/svg">
<g clip-path="url(#clip0_48_676)">
<path d="M15.1243 88.3823C12.7407 88.3823 10.6525 86.6737 10.2306 84.2479L6.51809 62.2893C6.05402 59.5893 7.88918 57.037 10.5892 56.5729L16.5376 55.5604C17.2759 55.4339 17.972 55.9401 18.0986 56.6573L22.9923 85.7667C23.0556 86.1253 22.9712 86.4839 22.7603 86.7792C22.5493 87.0745 22.2329 87.2644 21.8954 87.3276L15.947 88.3401C15.6728 88.3612 15.3986 88.3823 15.1243 88.3823ZM15.6517 58.4503L11.0321 59.2308C9.80871 59.4417 8.96496 60.6019 9.1759 61.8464L12.8884 83.805C13.0993 85.0284 14.2595 85.8511 15.504 85.6612L20.1236 84.8808L15.6517 58.4503Z" fill="white"/>
<path d="M25.5656 92.369C24.5531 92.369 23.5617 92.0526 22.6969 91.4409C21.6211 90.6815 20.9039 89.5214 20.6719 88.2347L15.0821 55.1175C14.618 52.4175 16.4531 49.8651 19.1531 49.4011L27.6961 47.9667C29.0039 47.7558 30.3117 48.0511 31.3875 48.8104C32.4633 49.5698 33.1805 50.73 33.4125 52.0167L39.0024 85.1339C39.2133 86.4417 38.918 87.7495 38.1586 88.8253C37.3992 89.9011 36.2391 90.6183 34.9524 90.8503L26.4094 92.2847C26.1141 92.3479 25.8399 92.369 25.5656 92.369ZM28.5188 50.5823C28.3922 50.5823 28.2656 50.5823 28.1391 50.6034L19.5961 52.0378C18.3727 52.2487 17.5289 53.4089 17.7399 54.6534L23.3297 87.7706C23.4352 88.3612 23.7516 88.8886 24.2578 89.2261C24.743 89.5847 25.3547 89.7112 25.9453 89.6058L34.4883 88.1714C35.0789 88.0659 35.6063 87.7495 35.9438 87.2433C36.3024 86.7581 36.4289 86.1464 36.3235 85.5558L30.7336 52.4386C30.5649 51.3628 29.5946 50.5823 28.5188 50.5823Z" fill="white"/>
<path d="M91.5467 58.8516C91.4835 58.8516 91.4202 58.8516 91.3569 58.8305C90.6186 58.725 90.1124 58.05 90.2178 57.3117C90.8928 52.5234 91.2725 45.1828 91.2725 41.9344C91.2725 20.3555 73.4905 2.80547 51.6374 2.80547C29.7843 2.80547 12.0022 20.3555 12.0022 41.9344C12.0022 45.1828 12.3819 52.5445 13.0569 57.3117C13.1624 58.05 12.6561 58.725 11.9178 58.8305C11.1796 58.9359 10.5046 58.4297 10.3991 57.6914C9.703 52.7766 9.32331 45.2672 9.32331 41.9344C9.28112 18.8789 28.2655 0.105469 51.6163 0.105469C74.9671 0.105469 93.9514 18.8789 93.9514 41.9344C93.9514 45.2672 93.5717 52.7977 92.8756 57.6914C92.7913 58.3664 92.2007 58.8516 91.5467 58.8516Z" fill="white"/>
<path d="M88.1087 88.3829C87.8345 88.3829 87.5603 88.3619 87.2861 88.3197L81.3376 87.3072C80.9791 87.2439 80.6626 87.054 80.4728 86.7587C80.2619 86.4634 80.1775 86.1048 80.2408 85.7462L85.1556 56.6579C85.2822 55.9197 85.9783 55.4345 86.7166 55.5611L92.665 56.5736C95.365 57.0376 97.1791 59.59 96.7361 62.29L93.0236 84.2486C92.5806 86.6743 90.4923 88.3829 88.1087 88.3829ZM83.1095 84.8814L87.729 85.6618C88.9525 85.8517 90.1337 85.029 90.3447 83.8056L94.0572 61.847C94.2681 60.6236 93.4244 59.4423 92.2009 59.2314L87.5814 58.4509L83.1095 84.8814Z" fill="white"/>
<path d="M77.6671 92.37C77.3929 92.37 77.1187 92.3489 76.8234 92.3067L68.2804 90.8723C66.9726 90.6614 65.8335 89.9442 65.0742 88.8473C64.3148 87.7715 63.9984 86.4637 64.2304 85.1559L69.8203 52.0387C70.0312 50.7309 70.7484 49.5918 71.8453 48.8325C72.9421 48.0731 74.2289 47.7567 75.5367 47.9887L84.0796 49.4231C86.7796 49.8872 88.5937 52.4395 88.1507 55.1395L82.5609 88.2567C82.3499 89.5645 81.6328 90.7036 80.5359 91.4629C79.6921 92.0536 78.7007 92.37 77.6671 92.37ZM74.714 50.5832C73.6382 50.5832 72.6679 51.3637 72.4781 52.4606L66.8882 85.5778C66.7828 86.1684 66.9304 86.7801 67.2679 87.2653C67.6265 87.7504 68.1328 88.0879 68.7234 88.1934L77.2664 89.6278C77.857 89.7332 78.4687 89.5856 78.9539 89.2481C79.439 88.8895 79.7765 88.3833 79.882 87.7926L85.4718 54.6754C85.5773 54.0848 85.4296 53.4731 85.0921 52.9879C84.7335 52.5028 84.2273 52.1653 83.6367 52.0598L75.0937 50.6254C74.9671 50.5832 74.8406 50.5832 74.714 50.5832Z" fill="white"/>
<path d="M57.4805 108.105H45.7523C41.5758 108.105 38.1797 104.709 38.1797 100.532V99.8148C38.1797 95.6383 41.5758 92.2422 45.7523 92.2422H57.4805C61.657 92.2422 65.0531 95.6383 65.0531 99.8148V100.532C65.0531 104.709 61.657 108.105 57.4805 108.105ZM45.7523 94.9422C43.0734 94.9422 40.8797 97.1359 40.8797 99.8148V100.532C40.8797 103.211 43.0734 105.405 45.7523 105.405H57.4805C60.1594 105.405 62.3531 103.211 62.3531 100.532V99.8148C62.3531 97.1359 60.1594 94.9422 57.4805 94.9422H45.7523Z" fill="white"/>
<path d="M87.2229 101.524H64.2729C63.5346 101.524 62.9229 100.913 62.9229 100.174C62.9229 99.4362 63.5346 98.8245 64.2729 98.8245H87.2229C92.1588 98.8245 96.4197 94.9011 97.1158 89.6909L98.8033 79.0386C99.1408 76.5706 97.5166 74.2714 95.2174 73.9128L93.6354 73.7229C92.8971 73.6386 92.3697 72.9636 92.4541 72.2253C92.5385 71.487 93.2135 70.9596 93.9518 71.044L95.576 71.255C99.3729 71.8245 102.01 75.4948 101.461 79.4393L99.7736 90.0917C98.9088 96.5886 93.5088 101.524 87.2229 101.524Z" fill="white"/>
</g>
<defs>
<clipPath id="clip0_48_676">
<rect width="108" height="108" fill="white"/>
</clipPath>
</defs>
</svg>
