<svg width="83" height="79" viewBox="0 0 83 79" fill="none" xmlns="http://www.w3.org/2000/svg">
<g clip-path="url(#clip0_226_419)">
<path d="M82.8852 39.5C82.8852 50.0509 78.7793 59.9701 71.321 67.4313C63.8628 74.8907 53.9476 79 43.4008 79C32.8541 79 22.9389 74.8907 15.4824 67.4313C13.981 65.9292 12.616 64.3288 11.393 62.6429L14.5069 61.9055C15.2295 62.8359 15.9957 63.7316 16.8056 64.5874L18.3052 63.0871C18.8749 62.5172 19.7958 62.5172 20.3636 63.0871C20.9333 63.6552 20.9333 64.5783 20.3654 65.1463L18.8858 66.6247C25.1283 72.278 33.3255 75.8101 42.327 76.0705V73.9312C42.327 73.1264 42.9786 72.4746 43.783 72.4746C44.5875 72.4746 45.239 73.1264 45.239 73.9312V76.0414C54.2115 75.5953 62.3413 71.8993 68.4764 66.1077L66.9768 64.6056C66.4089 64.0375 66.4089 63.1162 66.9768 62.5464C67.5464 61.9783 68.4673 61.9783 69.0352 62.5464L70.5166 64.0266C76.1658 57.7816 79.6966 49.5812 79.9568 40.576H77.8165C77.0121 40.576 76.3606 39.9242 76.3606 39.1195C76.3606 38.3147 77.0121 37.6629 77.8165 37.6629H79.9277C79.4818 28.6851 75.7854 20.5502 69.9979 14.4126L68.4964 15.9147C68.2125 16.1987 67.8394 16.3426 67.4663 16.3426C67.0933 16.3426 66.722 16.1987 66.4381 15.9147C65.8684 15.3466 65.8684 14.4236 66.4381 13.8555L67.9177 12.3753C61.6734 6.72201 53.478 3.18986 44.4746 2.9295V5.07064C44.4746 5.87539 43.8231 6.52719 43.0186 6.52719C42.2142 6.52719 41.5627 5.87539 41.5627 5.07064V2.95863C32.5902 3.4047 24.4585 7.10253 18.3234 12.8923L19.8249 14.3962C20.3927 14.9643 20.3927 15.8874 19.8249 16.4555C19.541 16.7395 19.1679 16.8815 18.7948 16.8815C18.4217 16.8815 18.0504 16.7395 17.7647 16.4555L16.285 14.9752C10.6358 21.2202 7.1051 29.4206 6.84484 38.4258H8.98513C9.78956 38.4258 10.4411 39.0794 10.4411 39.8823C10.4411 40.6853 9.78956 41.3389 8.98513 41.3389H6.87396C7.0414 44.6926 7.66019 47.928 8.67573 50.9868L6.43353 51.5166C6.22423 51.5658 6.02403 51.6368 5.83476 51.7242C4.57169 47.8279 3.9165 43.7131 3.9165 39.5C3.9165 28.9491 8.02418 19.0299 15.4824 11.5687C22.9389 4.10931 32.8541 0 43.4008 0C53.9476 0 63.8628 4.10931 71.321 11.5687C78.7793 19.0299 82.8852 28.9491 82.8852 39.5Z" fill="#242A34"/>
<path d="M47.4213 59.4386C47.0446 59.4386 46.6824 59.2838 46.4221 59.0107L43.4501 55.89C42.9242 55.3384 42.946 54.4644 43.4974 53.9401C44.0489 53.4139 44.9225 53.4357 45.4466 53.9874L47.4086 56.0484L52.9759 50.0747C53.4946 49.5176 54.3682 49.4866 54.9251 50.0055C55.482 50.5244 55.5129 51.3984 54.9942 51.9555L48.4296 58.9998C48.1711 59.2783 47.809 59.4367 47.4286 59.4386H47.4213Z" fill="#242A34"/>
<path d="M12.831 48.7055C12.1721 48.7055 11.5734 48.254 11.415 47.584C11.2294 46.8011 11.7153 46.0164 12.4979 45.8325L26.5954 42.5006C27.3762 42.3149 28.1624 42.7992 28.3462 43.5839C28.5319 44.3668 28.0459 45.1515 27.2634 45.3354L13.1658 48.6673C13.053 48.6946 12.9402 48.7073 12.8291 48.7073L12.831 48.7055Z" fill="#242A34"/>
<path d="M1.45401 63.269C0.795182 63.269 0.196411 62.8175 0.0380729 62.1474C-0.147564 61.3645 0.338369 60.5798 1.12096 60.3959L15.2185 57.0641C15.9992 56.8784 16.7855 57.3627 16.9693 58.1474C17.1549 58.9303 16.669 59.715 15.8864 59.8989L1.78889 63.2308C1.67605 63.2581 1.56321 63.2708 1.45219 63.2708L1.45401 63.269Z" fill="#242A34"/>
<path d="M7.14347 55.9863C6.48464 55.9863 5.88586 55.5347 5.72753 54.8647C5.54189 54.0818 6.02782 53.2971 6.81041 53.1132L20.9079 49.7814C21.6887 49.5956 22.4749 50.0799 22.6587 50.8647C22.8444 51.6476 22.3584 52.4323 21.5759 52.6162L7.47834 55.948C7.3655 55.9754 7.25266 55.9881 7.14165 55.9881L7.14347 55.9863Z" fill="#242A34"/>
<path d="M49.2174 66.6118C42.5617 66.6118 37.1455 61.1935 37.1455 54.5352C37.1455 47.8769 42.5617 42.4585 49.2174 42.4585C55.873 42.4585 61.2893 47.8751 61.2893 54.5352C61.2893 61.1953 55.873 66.6118 49.2174 66.6118ZM49.2174 45.3716C44.167 45.3716 40.0575 49.4827 40.0575 54.5352C40.0575 59.5876 44.167 63.6987 49.2174 63.6987C54.2678 63.6987 58.3773 59.5876 58.3773 54.5352C58.3773 49.4827 54.2678 45.3716 49.2174 45.3716Z" fill="#242A34"/>
<path d="M41.6538 25.1311L43.2991 24.7414V24.7378L41.6538 25.1311ZM35.6006 56.1266L25.103 58.61C24.2549 58.8103 23.3758 58.6137 22.6879 58.0693C21.9799 57.5103 21.5741 56.6655 21.5741 55.7515V54.2986L18.6621 54.9868V55.7515C18.6621 57.5613 19.4702 59.2382 20.8807 60.3542C21.9144 61.1717 23.1629 61.6014 24.4423 61.6014C24.8846 61.6014 25.3305 61.5504 25.7727 61.4448L36.2431 58.9687C35.9318 58.0602 35.7134 57.1098 35.6006 56.1266Z" fill="#242A34"/>
<path d="M65.9232 18.6459C64.5327 17.5462 62.751 17.1475 61.0311 17.5553L44.5694 21.448L41.4245 22.1927L23.132 26.5186C20.5003 27.1395 18.6621 29.4809 18.6621 32.2119V42.6882L21.5741 42V32.2119C21.5741 30.8391 22.4913 29.663 23.8017 29.3535L26.2004 28.7854V38.5279C26.2004 38.974 26.4043 39.3946 26.7537 39.6713C27.014 39.8753 27.3325 39.9845 27.6564 39.9845C27.7693 39.9845 27.8821 39.9718 27.9931 39.9444L45.0936 35.857C45.7488 35.7004 46.2111 35.1141 46.2111 34.4405V24.0534L53.8768 22.24V33.1532C53.8768 33.958 54.5283 34.6098 55.3328 34.6098C56.1372 34.6098 56.7887 33.958 56.7887 33.1532V21.5518L61.7008 20.3902C61.9174 20.3392 62.1376 20.3137 62.356 20.3137C62.9876 20.3137 63.6045 20.5267 64.116 20.9309C64.8239 21.4899 65.2298 22.3347 65.2298 23.2487V46.7884C65.2298 48.1612 64.3125 49.3374 63.0021 49.6469L62.1049 49.8581C62.4343 50.7612 62.6709 51.708 62.8019 52.6893L63.6719 52.4836C66.3036 51.8609 68.1417 49.5195 68.1417 46.7884V23.2487C68.1417 21.4389 67.3318 19.762 65.9232 18.6459ZM43.2991 33.2898L29.1124 36.6818V28.1299L41.6538 25.1313L43.2991 24.738V33.2898Z" fill="#242A34"/>
<path d="M44.4164 21.4769L41.4243 22.1924L44.5692 21.4478C44.5183 21.455 44.4673 21.4641 44.4164 21.4769Z" fill="#242A34"/>
</g>
<defs>
<clipPath id="clip0_226_419">
<rect width="82.8852" height="79" fill="white"/>
</clipPath>
</defs>
</svg>
