<svg width="84" height="77" viewBox="0 0 84 77" fill="none" xmlns="http://www.w3.org/2000/svg">
<g clip-path="url(#clip0_226_454)">
<path d="M41.7252 42.6913C44.3751 44.2733 47.4024 45.1091 50.4877 45.1091C53.5729 45.1091 56.6002 44.2733 59.2502 42.6913C59.7583 42.3961 60.0397 41.824 59.9602 41.2403C59.7169 38.8921 58.6113 36.7181 56.8584 35.1377C55.1056 33.559 52.8297 32.6884 50.4744 32.6934C48.1241 32.6984 45.8582 33.5739 44.112 35.151C42.3657 36.7297 41.2634 38.8971 41.0168 41.2386C40.9373 41.8223 41.2171 42.3945 41.7268 42.6896L41.7252 42.6913ZM50.4877 35.6402C51.9624 35.6435 53.3925 36.1393 54.5544 37.0481C55.7164 37.9568 56.5423 39.2288 56.9031 40.6599C52.8662 42.7112 48.0943 42.7112 44.0573 40.6599C44.4231 39.2288 45.2524 37.9585 46.4159 37.0497C47.5795 36.141 49.0113 35.6452 50.486 35.6402H50.4877Z" fill="#242A34"/>
<path d="M18.3492 41.5734H28.2554C29.0565 41.5734 29.7036 40.9234 29.7036 40.1224C29.7036 39.3214 29.0565 38.6714 28.2554 38.6714H18.3492C17.5497 38.6714 16.9009 39.3198 16.9009 40.1224C16.9009 40.925 17.5497 41.5734 18.3492 41.5734Z" fill="#242A34"/>
<path d="M28.2553 43.8374H20.4644C19.6649 43.8374 19.0161 44.4875 19.0161 45.2884C19.0161 46.0894 19.6649 46.7394 20.4644 46.7394H28.2553C29.0564 46.7394 29.7036 46.0894 29.7036 45.2884C29.7036 44.4875 29.0564 43.8374 28.2553 43.8374Z" fill="#242A34"/>
<path d="M18.3492 51.9196H28.2554C29.0565 51.9196 29.7036 51.2696 29.7036 50.4686C29.7036 49.6676 29.0565 49.0176 28.2554 49.0176H18.3492C17.5497 49.0176 16.9009 49.6676 16.9009 50.4686C16.9009 51.2696 17.5497 51.9196 18.3492 51.9196Z" fill="#242A34"/>
<path d="M80.3354 60.7703H79.6551V17.7191C79.6551 16.1106 79.0179 14.5683 77.8824 13.4307C76.747 12.2931 75.2076 11.6547 73.6021 11.6547H47.2733C45.5469 7.0612 42.0231 3.37314 37.5194 1.44619C33.014 -0.48076 27.9194 -0.48076 23.414 1.44619C18.9086 3.37314 15.3847 7.0612 13.6601 11.6547H10.401C8.7955 11.6547 7.25619 12.2931 6.12075 13.4307C4.9853 14.5683 4.34806 16.1106 4.34806 17.7191V60.7703H3.66778C2.69619 60.7703 1.76433 61.1567 1.07743 61.8449C0.390538 62.5331 0.00488281 63.4667 0.00488281 64.4401V67.3422C0.00488281 69.6522 0.920193 71.866 2.55054 73.4978C4.18088 75.1296 6.39054 76.0483 8.69454 76.0483H75.3152C77.6209 76.0483 79.8305 75.1312 81.4592 73.4978C83.0879 71.8644 84.0049 69.6505 84.0049 67.3422V64.4401C84.0049 63.4667 83.6192 62.5331 82.9323 61.8449C82.2454 61.1567 81.3136 60.7703 80.342 60.7703H80.3354ZM73.6005 14.57C74.4347 14.5733 75.2325 14.9066 75.8234 15.4953C76.4143 16.084 76.7503 16.8833 76.7569 17.7191V54.1255H74.6134V18.1685C74.6134 17.7838 74.4612 17.4156 74.1897 17.142C73.9183 16.8701 73.5492 16.7175 73.1652 16.7175H57.2341C55.1056 15.8071 52.8148 15.3378 50.4992 15.3395C49.7527 15.3428 49.0079 15.3958 48.2681 15.4986C48.2681 15.1935 48.182 14.8751 48.1224 14.57H73.5972H73.6005ZM12.5561 19.6195C12.9599 24.092 15.0123 28.2543 18.3144 31.2923C21.6165 34.3287 25.9298 36.0251 30.4121 36.045C31.4416 36.0417 32.4694 35.9505 33.4824 35.7697C34.5003 41.267 38.1103 45.9318 43.1734 48.2883C48.2366 50.6447 54.1224 50.4026 58.9721 47.6366C63.8234 44.8705 67.0394 39.9254 67.6021 34.3618C68.1665 28.7982 66.0082 23.3059 61.8107 19.6195H71.7169V54.1255H12.3392V19.6195H12.5561ZM45.6198 27.7021C46.1494 28.8778 47.0863 29.8231 48.2565 30.362C49.4267 30.901 50.7508 30.9988 51.9872 30.6373C53.2236 30.2758 54.2879 29.4798 54.9847 28.3936C55.6816 27.3074 55.963 26.0073 55.7792 24.7304C55.5955 23.4535 54.9566 22.2861 53.9817 21.4437C53.0068 20.6012 51.7605 20.1386 50.4727 20.1436C49.7014 20.1469 48.9401 20.3193 48.2416 20.651C48.3492 19.9048 48.4121 19.1552 48.4303 18.4023C49.1122 18.3045 49.7991 18.2514 50.486 18.2431C54.1522 18.2431 57.6794 19.6494 60.3425 22.1733C63.0074 24.6956 64.6063 28.1465 64.8132 31.813C65.0201 35.4812 63.8167 39.088 61.4532 41.8955C59.0896 44.703 55.7428 46.4973 52.0998 46.9119C48.4567 47.3248 44.7938 46.3265 41.8625 44.121C38.9312 41.9154 36.9533 38.6685 36.3359 35.0484C40.1643 33.7118 43.4333 31.1265 45.6198 27.7054V27.7021ZM48.0231 25.4966C48.0231 24.8465 48.2813 24.223 48.7398 23.7636C49.1983 23.3043 49.8223 23.0456 50.4711 23.0456C51.1199 23.0456 51.7423 23.3043 52.2024 23.7636C52.6625 24.223 52.9191 24.8465 52.9191 25.4966C52.9191 26.1466 52.6609 26.7701 52.2024 27.2311C51.7439 27.6922 51.1199 27.9492 50.4711 27.9492C49.8223 27.9492 49.1999 27.6905 48.7398 27.2311C48.2796 26.7718 48.0231 26.1466 48.0231 25.4966ZM30.4121 2.90549C34.4176 2.89389 38.2625 4.47757 41.1012 7.30829C43.9398 10.139 45.5387 13.983 45.547 17.9961C45.5552 22.0091 43.9696 25.8597 41.1425 28.7004C38.3155 31.5411 34.4755 33.1397 30.4716 33.1446C26.4661 33.148 22.6245 31.5577 19.7908 28.722C16.9572 25.8863 15.3649 22.039 15.3649 18.0259C15.3798 14.0294 16.9687 10.1987 19.7858 7.36799C22.603 4.53726 26.4214 2.93369 30.4121 2.90715V2.90549ZM10.353 14.5136H12.7712C12.6355 15.2234 12.5428 15.9398 12.4965 16.6611H10.8314C10.0319 16.6611 9.38309 17.3112 9.38309 18.1121V54.1272H7.23964V17.7208C7.24792 16.885 7.58226 16.0873 8.17316 15.497C8.76406 14.9083 9.56185 14.575 10.3961 14.5717L10.353 14.5136ZM7.23964 57.0292H76.7569V60.772H7.23964V57.0292ZM28.6013 63.674H55.3952V64.9808C55.3985 65.329 55.2628 65.6656 55.0195 65.9127C54.7745 66.1615 54.4402 66.3008 54.0926 66.3008H29.9072C29.558 66.3008 29.2253 66.1615 28.9803 65.9127C28.7354 65.664 28.5996 65.329 28.6046 64.9808V63.674H28.6013ZM81.1001 67.4035C81.1001 68.9424 80.4893 70.4183 79.4035 71.5078C78.3161 72.5973 76.843 73.2076 75.307 73.2076H8.68792C7.15192 73.2076 5.67881 72.5957 4.59137 71.5078C3.50557 70.42 2.89481 68.9441 2.89481 67.4035V64.5015C2.8915 64.2959 2.97095 64.0985 3.11495 63.9526C3.25895 63.8067 3.45757 63.7271 3.66116 63.732H25.7047V65.0388C25.7014 66.1581 26.1417 67.2311 26.9296 68.0237C27.7174 68.8164 28.7883 69.2608 29.9039 69.2608H54.0893C55.2065 69.2608 56.2758 68.8148 57.0636 68.0237C57.8515 67.2311 58.2934 66.1581 58.2885 65.0388V63.732H80.3321C80.5373 63.7287 80.7343 63.8083 80.8783 63.9526C81.0223 64.0969 81.1034 64.2959 81.0984 64.5015V67.4035H81.1001Z" fill="#242A34"/>
<path d="M24.3742 28.6154C25.4186 28.6154 26.4216 28.1992 27.1598 27.4596C27.898 26.72 28.3135 25.7151 28.3135 24.6687V20.8231C28.3367 19.5876 27.7706 18.4152 26.7891 17.6657C25.8076 16.9161 24.5281 16.6823 23.3463 17.0355C23.4572 14.5646 24.8376 12.3259 26.9943 11.122C29.151 9.91641 31.7761 9.91641 33.9345 11.122C36.0928 12.3276 37.4716 14.5646 37.5825 17.0355C37.2481 16.9377 36.9022 16.8846 36.5546 16.8763C35.5102 16.8763 34.5072 17.2925 33.7689 18.0321C33.0307 18.7717 32.6153 19.7767 32.6153 20.8231V24.6687C32.6153 26.0782 33.3667 27.3817 34.5849 28.0864C35.8032 28.7912 37.3061 28.7912 38.5243 28.0864C39.7425 27.3817 40.4939 26.0782 40.4939 24.6687V17.1234C40.5982 14.3922 39.5869 11.7372 37.695 9.76716C35.8032 7.7971 33.1929 6.68604 30.4652 6.68604C27.7375 6.68604 25.1273 7.79876 23.2354 9.76716C21.3436 11.7372 20.3323 14.3922 20.4365 17.1234V24.6687C20.4365 25.7151 20.852 26.7183 21.5902 27.4596C22.3284 28.1992 23.3314 28.6154 24.3758 28.6154H24.3742ZM37.6553 24.6687C37.6553 25.2458 37.1885 25.7134 36.6125 25.7134C36.0365 25.7134 35.5698 25.2458 35.5698 24.6687V20.8231C35.5698 20.246 36.0365 19.7783 36.6125 19.7783C37.1885 19.7783 37.6553 20.246 37.6553 20.8231V24.6687ZM24.4321 19.7783C25.0081 19.7783 25.4749 20.246 25.4749 20.8231V24.6687C25.4749 25.2458 25.0081 25.7134 24.4321 25.7134C23.8561 25.7134 23.3894 25.2458 23.3894 24.6687V20.8231C23.3894 20.2675 23.8214 19.8082 24.3742 19.7783H24.4321Z" fill="#242A34"/>
</g>
<defs>
<clipPath id="clip0_226_454">
<rect width="84" height="76.0498" fill="white"/>
</clipPath>
</defs>
</svg>
