<svg width="101" height="101" viewBox="0 0 101 101" fill="none" xmlns="http://www.w3.org/2000/svg">
<g clip-path="url(#clip0_48_496)">
<path d="M44.0101 58.0555C40.262 58.0555 37.6581 56.5168 36.3956 55.5305C26.2956 58.3711 15.5841 55.5896 8.18662 48.133C2.84072 42.7477 -0.0788124 35.6066 9.38221e-05 28.0514C0.0592735 20.4764 3.09716 13.3945 8.56142 8.08808C19.8056 -2.84043 37.9343 -2.68262 48.9614 8.44316C59.8899 19.4506 59.9886 36.7902 49.1784 47.8963C49.0206 48.0738 48.8431 48.2316 48.6655 48.4092C47.8962 49.3758 48.0343 49.9478 48.0737 50.1451C48.3696 51.3879 50.3028 52.6109 51.2103 53.0055C51.8415 53.2816 52.2755 53.9129 52.2755 54.623C52.2755 55.3135 51.881 55.9645 51.2497 56.2603C48.5274 57.582 46.0813 58.0555 44.0101 58.0555ZM36.8099 51.7627C37.303 51.7627 37.7765 51.96 38.1118 52.315C38.2499 52.4531 41.2089 55.3924 46.5745 54.1693C45.7065 53.3408 44.9175 52.2756 44.6216 50.9934C44.3454 49.8295 44.3651 48.0541 45.9827 46.0814C46.0222 46.042 46.0616 45.9828 46.1208 45.9434C46.2983 45.7658 46.4759 45.608 46.6337 45.4305C56.063 35.725 55.9644 20.5947 46.4364 10.9879C36.7507 1.22324 20.8905 1.08515 11.047 10.6525C6.29287 15.2883 3.62978 21.4627 3.5706 28.0711C3.51142 34.6795 6.05615 40.9131 10.7313 45.608C17.3989 52.3348 27.1833 54.7217 36.2772 51.8219C36.4548 51.7824 36.6323 51.7627 36.8099 51.7627Z" fill="white"/>
<path d="M64.4664 101C57.0887 101 50.0068 98.85 43.9508 94.7666C38.9994 97.9426 29.4518 101.059 22.6264 93.7014C22.2318 93.2674 22.0543 92.6559 22.1924 92.0838C22.3305 91.5117 22.725 91.0383 23.2774 90.8213C23.376 90.7818 33.4365 86.659 31.9768 81.5695C30.0238 77.565 28.5049 72.4559 28.1104 68.5105C28.0709 68.2738 27.1635 61.2906 28.9586 54.7809C29.2151 53.834 30.2014 53.2619 31.1483 53.5381C32.0951 53.7945 32.6672 54.7809 32.391 55.7277C30.7932 61.5273 31.6414 68.0371 31.6611 68.0963C32.0359 71.7457 33.4365 76.4604 35.2514 80.1295C35.2908 80.2084 35.3303 80.2873 35.35 80.3662C37.3029 86.5012 30.951 90.9199 27.1635 92.932C33.9889 97.5875 42.5108 91.4328 42.8856 91.1566C43.5168 90.7029 44.3651 90.6832 44.9963 91.1369C50.6776 95.24 57.4043 97.41 64.4467 97.41C82.6346 97.41 97.4098 82.7729 97.4098 64.7822C97.4098 46.7916 82.6149 32.1545 64.4467 32.1545C61.6455 32.1545 58.8641 32.5096 56.201 33.1803C55.2344 33.4367 54.2678 32.8449 54.0311 31.898C53.7943 30.9314 54.3664 29.9648 55.3133 29.7281C58.292 28.9785 61.3496 28.584 64.4467 28.584C84.6072 28.584 101 44.8189 101 64.7822C101 84.7455 84.6072 101 64.4664 101Z" fill="white"/>
<path d="M39.8278 24.6977H17.3396C16.3532 24.6977 15.5444 23.8889 15.5444 22.9025C15.5444 21.9162 16.3532 21.1074 17.3396 21.1074H39.8278C40.8142 21.1074 41.6229 21.9162 41.6229 22.9025C41.6032 23.9086 40.8142 24.6977 39.8278 24.6977Z" fill="white"/>
<path d="M39.8278 36.6527H17.3396C16.3532 36.6527 15.5444 35.8439 15.5444 34.8576C15.5444 33.8713 16.3532 33.0625 17.3396 33.0625H39.8278C40.8142 33.0625 41.6229 33.8713 41.6229 34.8576C41.6229 35.8439 40.8142 36.6527 39.8278 36.6527Z" fill="white"/>
</g>
<defs>
<clipPath id="clip0_48_496">
<rect width="101" height="101" fill="white"/>
</clipPath>
</defs>
</svg>
