<svg xmlns="http://www.w3.org/2000/svg" viewBox="0 0 109.43 93.45"><defs><style>.cls-1{fill:#bebebe;}.cls-2{fill:#c8102f;}</style></defs><title>illustration-contacto-whatsapp-telefono-email-correo-movil-mensaje-comunicacion-redes-sociales</title><g id="Capa_2" data-name="Capa 2"><g id="Layer_1" data-name="Layer 1"><path class="cls-1" d="M88.55,74.71l-.14-2a20.36,20.36,0,0,0,9.44-3,2.12,2.12,0,0,1,1.54-.23q2.72.69,5.43,1.41l.58.15-.94-3.47c-.23-.82-.46-1.64-.67-2.46a1.89,1.89,0,0,1,.27-1.38,19.94,19.94,0,0,0,2.49-5.3,21.53,21.53,0,0,0,.85-5,19.29,19.29,0,0,0-1.09-7.57,19.79,19.79,0,0,0-3.57-6.27,20.21,20.21,0,0,0-6.67-5.27A18,18,0,0,0,90,32.45l-.58-.07a19.85,19.85,0,0,0-2.73-.16,20.31,20.31,0,0,0-11.42,4A20.62,20.62,0,0,0,69.87,42L68.17,41a22.74,22.74,0,0,1,5.88-6.42,22.41,22.41,0,0,1,12.53-4.33,20,20,0,0,1,3,.18l.58.06a20.05,20.05,0,0,1,6.77,2,22.37,22.37,0,0,1,7.33,5.78,22,22,0,0,1,3.92,6.91,21.61,21.61,0,0,1,1.2,8.33,23.73,23.73,0,0,1-.93,5.45,22.26,22.26,0,0,1-2.7,5.78c.19.75.4,1.51.61,2.26l1.7,6.27-1.24.06a1.42,1.42,0,0,1-.54,0l-2-.52-5.41-1.4A22.47,22.47,0,0,1,88.55,74.71Z"/><path class="cls-2" d="M59.51,93.45c-.52,0-1,0-1.54-.06a25.23,25.23,0,0,1-11.71-3.76h-.1c-2.06.52-4.12,1.06-6.18,1.6l-2.22.58a1.41,1.41,0,0,1-.49,0L36,91.77l.24-1.2,1.56-5.77c.24-.87.48-1.74.7-2.62a25.34,25.34,0,0,1-3.08-6.59,27.2,27.2,0,0,1-1.05-6.16A24.36,24.36,0,0,1,35.76,60a24.66,24.66,0,0,1,4.43-7.81,25.41,25.41,0,0,1,8.29-6.54,23,23,0,0,1,7.65-2.3l.66-.07a22.49,22.49,0,0,1,3.41-.19A25.25,25.25,0,0,1,74.36,48,25.73,25.73,0,0,1,81,55.25a25,25,0,0,1,3.17,8.22,23.92,23.92,0,0,1,.42,6.39,25.36,25.36,0,0,1-2,8.28A25.28,25.28,0,0,1,64.85,92.83,24.34,24.34,0,0,1,59.51,93.45ZM46.18,87.63a2.15,2.15,0,0,1,1.14.31,23.39,23.39,0,0,0,10.8,3.46,21.39,21.39,0,0,0,6.29-.52,23.3,23.3,0,0,0,18.2-21.15,21.6,21.6,0,0,0-.38-5.86,23.05,23.05,0,0,0-2.91-7.57,23.71,23.71,0,0,0-6.14-6.69A23.2,23.2,0,0,0,60.12,45.1a22.36,22.36,0,0,0-3.12.18l-.66.07a20.7,20.7,0,0,0-7,2.11,23.13,23.13,0,0,0-7.63,6,22.47,22.47,0,0,0-4.08,7.17,22,22,0,0,0-1.25,8.66,25.46,25.46,0,0,0,1,5.71,23,23,0,0,0,2.85,6.06,2,2,0,0,1,.29,1.46c-.24.93-.5,1.86-.75,2.78l-1.14,4.18.85-.22c2.07-.54,4.13-1.08,6.21-1.6A2.07,2.07,0,0,1,46.18,87.63Zm-8.92,2.24h0Z"/><path class="cls-2" d="M67.1,83.3a16.76,16.76,0,0,1-6.18-1.56l-.77-.31a24.26,24.26,0,0,1-7.22-4.6,37.36,37.36,0,0,1-7.66-9.33,11.21,11.21,0,0,1-1.57-5.8A9,9,0,0,1,46.42,55a5.1,5.1,0,0,1,5.36-1,3.45,3.45,0,0,1,1.42,1.68c.33.74.64,1.5.94,2.25.37.93.76,1.88,1.18,2.78a3.43,3.43,0,0,1-.56,3.67,15.71,15.71,0,0,1-1.44,1.76l.08.14c.65,1,1.32,2,2,2.89A16.94,16.94,0,0,0,62,74.1l.37.16a6,6,0,0,0,.63.28s0,0,.11-.1l.36-.44c.59-.71,1.2-1.46,1.73-2.21A2.12,2.12,0,0,1,68,71c1.3.58,2.59,1.2,3.87,1.81l1.16.54a5.68,5.68,0,0,1,1.31.72,2.53,2.53,0,0,1,1,1.91l0,.39A6.35,6.35,0,0,1,74.15,80a8.64,8.64,0,0,1-5.44,3.17A10,10,0,0,1,67.1,83.3ZM50,55.64a3.24,3.24,0,0,0-2.15.77,7.07,7.07,0,0,0-2.17,5.27v.1A9.24,9.24,0,0,0,47,66.48a35.42,35.42,0,0,0,7.25,8.84,22.38,22.38,0,0,0,6.64,4.25l.78.31c2.24.89,4.36,1.72,6.7,1.31a6.59,6.59,0,0,0,4.22-2.44,4.63,4.63,0,0,0,.7-2.59l0-.29a1.17,1.17,0,0,0-.24-.27,3.9,3.9,0,0,0-.87-.46L71.82,75,71,74.57c-1.28-.6-2.55-1.21-3.84-1.78a.29.29,0,0,0-.13,0,.71.71,0,0,0-.18.19c-.57.82-1.2,1.59-1.81,2.33l-.36.44a2.06,2.06,0,0,1-2.34.71,8.08,8.08,0,0,1-.8-.35l-.33-.14a19,19,0,0,1-7.33-5.47c-.78-1-1.47-2-2.14-3l-.12-.18a1.88,1.88,0,0,1,.24-2.43,13.88,13.88,0,0,0,1.27-1.53c.55-.79.63-1.15.38-1.68-.45-1-.84-1.93-1.22-2.88-.3-.73-.6-1.47-.92-2.19a1.64,1.64,0,0,0-.51-.72A1.93,1.93,0,0,0,50,55.64Zm23.3,20.11h0Z"/><path class="cls-1" d="M30.16,62.5h-25a5.06,5.06,0,0,1-5.15-5v-20a5.06,5.06,0,0,1,5.15-4.94H40.83A5.05,5.05,0,0,1,46,37.52v5.29H44V37.52a3.05,3.05,0,0,0-3.14-2.94H5.15A3.05,3.05,0,0,0,2,37.52v20a3.05,3.05,0,0,0,3.15,3h25Z"/><polygon class="cls-1" points="22.99 48.69 1.24 36.15 2.23 34.42 22.99 46.38 43.74 34.42 44.74 36.15 22.99 48.69"/><rect class="cls-1" x="-2.52" y="50.45" width="21.54" height="2" transform="translate(-39.27 30.08) rotate(-56.67)"/><rect class="cls-1" x="33.09" y="41.77" width="2" height="8.32" transform="translate(-19.62 26.27) rotate(-33.32)"/><path class="cls-1" d="M61.07,41.09l-1.28-1.53,8.33-7a2.17,2.17,0,0,0,.24-3L45.6,2.76a2.17,2.17,0,0,0-3.06-.24L28.88,14.14a2.18,2.18,0,0,0-.75,1.48,2.12,2.12,0,0,0,.51,1.58L39.38,29.74,37.86,31,27.12,18.5a4.18,4.18,0,0,1,.47-5.88L41.25,1a4.17,4.17,0,0,1,5.87.47L69.88,28.2a4.16,4.16,0,0,1-.47,5.87Z"/><polygon class="cls-1" points="51.97 37.04 50.67 35.52 60.82 26.87 44 7.11 33.19 16.32 44.62 29.75 43.1 31.04 30.37 16.09 44.23 4.29 63.64 27.1 51.97 37.04"/><circle class="cls-1" cx="59.12" cy="35.82" r="1.26"/><rect class="cls-1" x="76.55" y="43.09" width="22.83" height="2"/><rect class="cls-1" x="82.37" y="49.53" width="17.02" height="2"/><rect class="cls-1" x="85.58" y="55.97" width="13.8" height="2"/></g></g></svg>