<svg xmlns="http://www.w3.org/2000/svg" viewBox="0 0 131.74 81.58"><defs><style>.cls-1{fill:#bebebe;}.cls-2{fill:#c8102f;}</style></defs><title>illustration-persona-solicitud-tarjeta-en-linea-solicitar</title><g id="Capa_2" data-name="Capa 2"><g id="Layer_1" data-name="Layer 1"><path class="cls-1" d="M38.7,66.54H4.47A4.47,4.47,0,0,1,0,62.08V36.16a4.47,4.47,0,0,1,4.47-4.47H46.82a4.51,4.51,0,0,1,1.74.35l-.78,1.84a2.45,2.45,0,0,0-1-.19H4.47A2.47,2.47,0,0,0,2,36.16V62.08a2.47,2.47,0,0,0,2.47,2.46H38.7Z"/><rect class="cls-1" x="5.5" y="40.76" width="40.29" height="2"/><rect class="cls-1" x="10.55" y="56.87" width="10.19" height="2"/><path class="cls-2" d="M64.06,56.47a14,14,0,1,1,14-14A14,14,0,0,1,64.06,56.47Zm0-26a12,12,0,1,0,12,12A12,12,0,0,0,64.06,30.43Z"/><path class="cls-2" d="M86.27,81.58H41.84V68A13.08,13.08,0,0,1,54.9,55H73.21A13.08,13.08,0,0,1,86.27,68Zm-42.43-2H84.27V68A11.07,11.07,0,0,0,73.21,57H54.9A11.07,11.07,0,0,0,43.84,68Z"/><path class="cls-1" d="M42.17,29.92a19.19,19.19,0,1,1,35.1-10.73h-2A17.19,17.19,0,1,0,43.82,28.8Z"/><path class="cls-1" d="M128.68,59.8H87.5v-2h41.18a1.06,1.06,0,0,0,1.06-1.06V26.61a1.06,1.06,0,0,0-1.06-1.06H78.77a1.06,1.06,0,0,0-1,1.06v3.18h-2V26.61a3.06,3.06,0,0,1,3-3.06h49.91a3.06,3.06,0,0,1,3.06,3.06V56.74A3.06,3.06,0,0,1,128.68,59.8Z"/><path class="cls-1" d="M91.2,70.16v-2c3,0,3.61-6.93,3.61-9.36h2C96.81,60,96.65,70.16,91.2,70.16Z"/><path class="cls-1" d="M116.26,70.16c-5.45,0-5.61-10.2-5.61-11.36h2c0,2.43.67,9.36,3.61,9.36Z"/><rect class="cls-1" x="88.28" y="68.16" width="30.9" height="2"/><rect class="cls-1" x="57.08" y="9.34" width="2" height="17.6"/><rect class="cls-1" x="49.28" y="17.14" width="17.6" height="2"/><path class="cls-1" d="M104.54,51.47,101.72,46l-3.35,1.72-.45-15.61,12.43,9.44L107,43.29l2.82,5.47Zm-2-8.16,2.82,5.47,1.72-.89-2.81-5.47,2.3-1.18-6.57-5,.24,8.25Z"/></g></g></svg>