<svg xmlns="http://www.w3.org/2000/svg" viewBox="0 0 116.36 88.87"><defs><style>.cls-1{fill:#c8102f;}.cls-2{fill:#bebebe;}</style></defs><title>illustration-otros-paises-internacional-ubicacion-localizacion</title><g id="Capa_2" data-name="Capa 2"><g id="Layer_1" data-name="Layer 1"><path class="cls-1" d="M56.92,88.87c-4.73,0-12.73-.87-12.73-4.16,0-1.64,1.94-2.84,5.78-3.57l.37,2c-3.19.61-4.09,1.44-4.15,1.64.21.56,3.71,2.13,10.73,2.13s10.52-1.57,10.73-2.19c-.07-.15-1.06-1.06-4.63-1.67l.34-2c2.87.49,6.29,1.53,6.29,3.67C69.65,88,61.65,88.87,56.92,88.87Z"/><path class="cls-1" d="M56.92,82l-.78-1c-.73-.93-17.9-22.75-17.9-34.44a18.68,18.68,0,1,1,37.36,0C75.6,58.28,58.44,80.1,57.71,81Zm0-52.11A16.7,16.7,0,0,0,40.24,46.59c0,9.64,13.28,27.71,16.68,32.18C60.32,74.3,73.6,56.22,73.6,46.59A16.7,16.7,0,0,0,56.92,29.91Z"/><path class="cls-1" d="M56.92,55.37a8.46,8.46,0,1,1,8.46-8.46A8.46,8.46,0,0,1,56.92,55.37Zm0-14.92a6.46,6.46,0,1,0,6.46,6.46A6.47,6.47,0,0,0,56.92,40.45Z"/><path class="cls-2" d="M82.32,82.75H75.77v-26h2v24h2.55V27.31a1.28,1.28,0,1,0-2.55,0v11h-2v-11a3.28,3.28,0,1,1,6.55,0Z"/><path class="cls-2" d="M89.18,54.23a13.91,13.91,0,0,1-8.45-2.59l-.41-.3V27.69l1.59,1.16c4.77,3.49,10.48,2.12,15.52.91,5.63-1.35,11.62-2.5,17.41-.52a2.27,2.27,0,0,1,1.52,2.16V49.87a2.28,2.28,0,0,1-2.93,2.19c-5.09-1.47-10.46-.4-15.53.81A37.77,37.77,0,0,1,89.18,54.23Zm-6.86-3.92c4.69,3.12,10.22,1.79,15.11.62,5.33-1.28,11-2.4,16.55-.79a.33.33,0,0,0,.28,0,.27.27,0,0,0,.1-.22V31.4a.29.29,0,0,0-.17-.27c-5.29-1.81-11-.71-16.29.58-4.7,1.12-10.44,2.5-15.58-.24Z"/><path class="cls-2" d="M35,41.22A23.19,23.19,0,1,1,72,29.05l-1.93-.51a21.21,21.21,0,1,0-41.74-5.36A21.09,21.09,0,0,0,36.2,39.66Z"/><path class="cls-2" d="M38.27,34.74A26.1,26.1,0,0,1,35.6,23.18,26.38,26.38,0,0,1,49.07.2l1,1.74A24.39,24.39,0,0,0,37.6,23.18a24,24,0,0,0,2.47,10.68Z"/><path class="cls-2" d="M63.45,25l-2-.14c0-.56,0-1.12,0-1.69A24.38,24.38,0,0,0,49.07,1.94l1-1.74a26.4,26.4,0,0,1,13.46,23C63.51,23.79,63.49,24.41,63.45,25Z"/><rect class="cls-2" x="48.52" y="1.1" width="2" height="24.55"/><rect class="cls-2" x="27.31" y="22.18" width="44.42" height="2"/><rect class="cls-2" x="30.3" y="11.06" width="38.44" height="2"/><rect class="cls-2" x="30.3" y="33.29" width="4.25" height="2"/><path class="cls-2" d="M42.14,78.28A1.26,1.26,0,0,1,41,77.51c-4-9.24-11.29-15-22.8-18L15.25,71.33,0,46.08,25.25,30.83l-2.9,11.74A35.35,35.35,0,0,1,34.6,51l-1.47,1.36A33.78,33.78,0,0,0,20.8,44.09L20,43.77,22.15,35,2.75,46.76l11.72,19.4L16.72,57l1,.24c11.44,2.83,19.05,8.1,23.67,16.49A38.85,38.85,0,0,0,39.53,63.4l1.9-.63A42.72,42.72,0,0,1,43.4,77a1.25,1.25,0,0,1-1,1.21Z"/></g></g></svg>