<svg width="66" height="79" viewBox="0 0 66 79" fill="none" xmlns="http://www.w3.org/2000/svg">
<g clip-path="url(#clip0_226_478)">
<path d="M57.4746 33.9999H40.5265V30.917C40.5265 29.3938 39.2871 28.1517 37.7641 28.1517H37.1328V23.6403C37.1328 22.2205 35.9778 21.0657 34.5595 21.0657H33.934V15.8393C33.934 12.838 32.0502 10.9712 29.0158 10.9712H19.389C17.7903 10.9712 17.0776 10.2387 17.0776 8.59607V1.27419C17.0776 0.570839 16.5059 0 15.8047 0C15.1036 0 14.5319 0.570839 14.5319 1.27419V8.59607C14.5319 11.6338 16.3924 13.5196 19.389 13.5196H29.0158C30.6567 13.5196 31.3884 14.2346 31.3884 15.8393V21.0657H30.7629C29.3446 21.0657 28.1911 22.2205 28.1911 23.6403V28.1517H27.5554C26.0324 28.1517 24.7916 29.3924 24.7916 30.917V33.9999H7.84928C3.5217 33.9999 0 37.5254 0 41.8576V67.0007C0 73.6178 5.37638 79.0015 11.9834 79.0015C18.5904 79.0015 23.9711 73.6178 23.9711 67.0007V66.478H41.3513V67.0007C41.3513 73.6178 46.7276 79.0015 53.3346 79.0015C59.9416 79.0015 65.3224 73.6178 65.3224 67.0007V41.8576C65.3238 37.5239 61.8021 33.9999 57.4746 33.9999ZM30.76 23.6141L34.5871 23.6403V28.1517H30.7411L30.76 23.6126V23.6141ZM27.3372 30.917C27.3372 30.802 27.439 30.7001 27.5554 30.7001H37.7641C37.8805 30.7001 37.9808 30.7991 37.9808 30.917V33.9999H27.3372V30.917ZM62.7782 67.0007C62.7782 72.2126 58.5423 76.4531 53.3361 76.4531C48.1299 76.4531 43.8983 72.2126 43.8983 67.0007V65.2038C43.8983 64.4989 43.3281 63.9296 42.6255 63.9296H22.6983C21.9957 63.9296 21.4255 64.4989 21.4255 65.2038V67.0007C21.4255 72.2126 17.1896 76.4531 11.9834 76.4531C6.7772 76.4531 2.54563 72.2126 2.54563 67.0007V41.8591C2.54563 38.9306 4.92398 36.5497 7.84928 36.5497H57.4731C60.3984 36.5497 62.7768 38.9321 62.7768 41.8591V67.0022L62.7782 67.0007Z" fill="#242A34"/>
<path d="M19.6231 47.049H17.7291V45.1574C17.7291 44.0332 16.8171 43.1201 15.6941 43.1201H10.9592C9.83768 43.1201 8.92416 44.0332 8.92416 45.1574V47.0475H7.03603C5.91449 47.0475 5.00098 47.9606 5.00098 49.0848V53.8248C5.00098 54.949 5.91304 55.8635 7.03603 55.8635H8.92416V57.7537C8.92416 58.8779 9.83622 59.7909 10.9592 59.7909H15.6941C16.8156 59.7909 17.7291 58.8779 17.7291 57.7537V55.8635H19.6231C20.7446 55.8635 21.6581 54.949 21.6581 53.8248V49.0848C21.6581 47.9621 20.7461 47.049 19.6231 47.049ZM19.1125 53.3151H16.4563C15.7537 53.3151 15.1835 53.8845 15.1835 54.5893V57.244H11.4712V54.5893C11.4712 53.8845 10.901 53.3151 10.1984 53.3151H7.54661V49.5974H10.1984C10.901 49.5974 11.4712 49.028 11.4712 48.3232V45.6685H15.1835V48.3232C15.1835 49.028 15.7537 49.5974 16.4563 49.5974H19.1125V53.3151Z" fill="#242A34"/>
<path d="M43.1228 47.5952C40.9947 47.5952 39.2622 49.3281 39.2622 51.46C39.2622 53.5919 40.9947 55.3234 43.1228 55.3234C45.251 55.3234 46.9777 53.5905 46.9777 51.46C46.9791 49.3281 45.2495 47.5952 43.1228 47.5952ZM43.1228 52.775C42.397 52.775 41.8078 52.1852 41.8078 51.46C41.8078 50.7348 42.397 50.1436 43.1228 50.1436C43.8487 50.1436 44.432 50.7348 44.432 51.46C44.432 52.1852 43.8458 52.775 43.1228 52.775Z" fill="#242A34"/>
<path d="M56.8172 47.5952C54.689 47.5952 52.9565 49.3281 52.9565 51.46C52.9565 53.5919 54.689 55.3234 56.8172 55.3234C58.9453 55.3234 60.6764 53.5905 60.6764 51.46C60.6764 49.3296 58.9453 47.5952 56.8172 47.5952ZM56.8172 52.775C56.0913 52.775 55.5022 52.1852 55.5022 51.46C55.5022 50.7348 56.0913 50.1436 56.8172 50.1436C57.543 50.1436 58.1307 50.7348 58.1307 51.46C58.1307 52.1852 57.5416 52.775 56.8172 52.775Z" fill="#242A34"/>
<path d="M49.9686 54.4497C47.8404 54.4497 46.1094 56.1826 46.1094 58.3131C46.1094 60.4435 47.8404 62.1779 49.9686 62.1779C52.0967 62.1779 53.8292 60.445 53.8292 58.3131C53.8292 56.1812 52.0982 54.4497 49.9686 54.4497ZM49.9686 59.6309C49.2441 59.6309 48.655 59.0397 48.655 58.3145C48.655 57.5893 49.2441 56.9996 49.9686 56.9996C50.693 56.9996 51.2836 57.5893 51.2836 58.3145C51.2836 59.0397 50.6944 59.6309 49.9686 59.6309Z" fill="#242A34"/>
<path d="M49.9686 48.463C52.0967 48.463 53.8292 46.7301 53.8292 44.5982C53.8292 42.4663 52.0967 40.7349 49.9686 40.7349C47.8404 40.7349 46.1094 42.4678 46.1094 44.5982C46.1094 46.7301 47.8404 48.463 49.9686 48.463ZM49.9686 43.2833C50.6944 43.2833 51.2836 43.873 51.2836 44.5982C51.2836 45.3234 50.6944 45.9146 49.9686 45.9146C49.2427 45.9146 48.655 45.3234 48.655 44.5982C48.655 43.873 49.2441 43.2833 49.9686 43.2833Z" fill="#242A34"/>
<path d="M34.3035 56.8799H31.0204C30.3178 56.8799 29.7476 57.4493 29.7476 58.1541C29.7476 58.8589 30.3178 59.4283 31.0204 59.4283H34.3035C35.0061 59.4283 35.5763 58.8589 35.5763 58.1541C35.5763 57.4493 35.0061 56.8799 34.3035 56.8799Z" fill="#242A34"/>
</g>
<defs>
<clipPath id="clip0_226_478">
<rect width="65.3224" height="79" fill="white"/>
</clipPath>
</defs>
</svg>
