<svg width="67" height="79" viewBox="0 0 67 79" fill="none" xmlns="http://www.w3.org/2000/svg">
<g clip-path="url(#clip0_226_468)">
<path d="M63.1347 57.0892C63.1347 42.9557 53.1937 31.1084 39.9424 28.1594V24.8673H42.4369C44.5397 24.8673 46.32 23.2205 46.3833 21.1185C46.4466 19.0165 44.6899 17.134 42.5194 17.134H41.0203C40.4887 14.1512 37.8941 11.9785 34.8652 11.9785H32.1336C29.1046 11.9785 26.5115 14.1512 25.9785 17.134H24.5619C22.4591 17.134 20.6788 18.7808 20.6155 20.8828C20.5522 22.9848 22.3089 24.8673 24.4794 24.8673H27.0563V28.1594C13.8051 31.1099 3.86403 42.9572 3.86403 57.0892V60.9558H2.57557C1.86434 60.9558 1.28711 61.5332 1.28711 62.2447C1.28711 68.2059 5.8063 73.1257 11.5948 73.768C11.5948 76.6565 13.9361 79.0001 16.8252 79.0001H50.1736C53.0612 79.0001 55.404 76.658 55.404 73.768C61.1925 73.1243 65.7117 68.2044 65.7117 62.2447C65.7117 61.5332 65.1344 60.9558 64.4232 60.9558H63.1347V57.0892ZM31.6727 14.5563H35.3261C36.8398 14.5563 38.1371 15.6419 38.4036 17.134H28.5951C28.8617 15.6419 30.1575 14.5563 31.6727 14.5563ZM23.191 21.0006C23.191 20.2907 23.7682 19.7118 24.4794 19.7118H42.5179C43.2291 19.7118 43.8063 20.2907 43.8063 21.0006C43.8063 21.7106 43.2291 22.2895 42.5179 22.2895H24.4794C23.7682 22.2895 23.191 21.7106 23.191 21.0006ZM29.6333 24.8673H37.364V27.7057C36.0977 27.5408 34.8092 27.445 33.4987 27.445C32.1881 27.445 30.8996 27.5393 29.6333 27.7057V24.8673ZM6.44243 57.0892C6.44243 42.1647 18.5805 30.0228 33.5001 30.0228C48.4198 30.0228 60.5578 42.1647 60.5578 57.0892V60.9558H52.6268L50.7096 49.6638C50.2472 46.6677 47.8175 44.4744 44.8445 44.2446C44.9991 43.8277 45.0948 43.3814 45.0948 42.9115C45.0948 40.7801 43.3602 39.0449 41.2294 39.0449H33.4987C32.6947 39.0449 31.9466 39.2924 31.3281 39.7151C30.2149 37.784 28.1519 36.4672 25.7679 36.4672H21.9025V40.3338C21.9025 41.7906 22.4061 43.1207 23.2248 44.2004H22.6579C19.4566 44.2004 16.7781 46.4983 16.2907 49.6638L15.6943 53.5422C12.2604 54.4687 9.63929 57.3735 9.12243 60.9558H6.44243V57.0892ZM41.2309 59.6669V58.3781H38.654V59.6669C38.654 60.1206 38.7467 60.5507 38.891 60.9558H36.077V53.2225C36.077 52.5111 36.6543 51.9337 37.3655 51.9337C38.0767 51.9337 38.654 52.5111 38.654 53.2225V55.8003H41.2309V53.2225C41.2309 51.0911 39.4963 49.3559 37.3655 49.3559C35.2348 49.3559 33.5001 51.0911 33.5001 53.2225V55.9432C31.8612 54.2654 29.5803 53.2225 27.0578 53.2225C25.4645 53.2225 23.9272 53.6586 22.5592 54.451C21.312 53.7248 19.8792 53.2903 18.3493 53.2387L18.8382 50.0585C19.1327 48.1584 20.7392 46.7796 22.6594 46.7796H44.3409C46.0461 46.7796 47.498 47.8682 48.0119 49.4546C45.6234 49.9024 43.8078 51.9955 43.8078 54.5129V59.6684C43.8078 60.3799 43.2306 60.9573 42.5194 60.9573C41.8081 60.9573 41.2309 60.3799 41.2309 59.6684V59.6669ZM18.0386 55.8003C21.1486 55.8003 23.752 58.0186 24.3513 60.9558H11.7273C12.3266 58.0186 14.9301 55.8003 18.0401 55.8003H18.0386ZM26.9547 60.9558C26.6956 59.1587 25.9092 57.537 24.7533 56.2437C25.4852 55.9609 26.2597 55.8003 27.0563 55.8003C30.1663 55.8003 32.7698 58.0186 33.3691 60.9558H26.9533H26.9547ZM24.4809 40.3338V39.0449H25.7694C27.9001 39.0449 29.6347 40.7801 29.6347 42.9115V44.2004H28.3463C26.2155 44.2004 24.4809 42.4652 24.4809 40.3338ZM41.2309 44.2004H33.5001C32.7889 44.2004 32.2117 43.623 32.2117 42.9115C32.2117 42.2001 32.7889 41.6227 33.5001 41.6227H41.2309C41.9421 41.6227 42.5194 42.2001 42.5194 42.9115C42.5194 43.623 41.9421 44.2004 41.2309 44.2004ZM46.3847 59.6669V54.5114C46.3847 53.252 47.2948 52.2047 48.489 51.9808L50.0116 60.9558H46.1462C46.292 60.5507 46.3847 60.1206 46.3847 59.6669ZM14.1732 73.8446H52.8271C52.8271 75.2675 51.6726 76.4223 50.2501 76.4223H16.7501C15.3277 76.4223 14.1732 75.2675 14.1732 73.8446ZM54.1155 71.2668H12.8847C8.34788 71.2668 4.5841 67.8995 3.9568 63.5336H63.042C62.4162 67.8995 58.6524 71.2668 54.1155 71.2668Z" fill="#242A34"/>
<path d="M2.19996 20.8442C0.780439 22.2612 0 24.1482 0 26.1559C0 28.1636 0.780439 30.049 2.19996 31.4675L3.33233 32.6002C3.83593 33.104 4.65024 33.104 5.15385 32.6002C5.65745 32.0965 5.65745 31.2819 5.15385 30.7781L4.02147 29.6454C3.07022 28.6938 2.55631 27.4212 2.5784 26.0734C2.60048 24.7256 3.16888 23.5192 4.09657 22.5927L4.24382 22.4454C5.66334 21.0283 6.44378 19.1414 6.44378 17.1337C6.44378 15.126 5.66334 13.2406 4.24382 11.8221L3.11145 10.6893C2.60785 10.1856 1.79354 10.1856 1.28993 10.6893C0.78633 11.1931 0.78633 12.0077 1.28993 12.5115L2.42231 13.6442C3.37209 14.5957 3.88747 15.8684 3.86538 17.2162C3.8433 18.5272 3.2749 19.7689 2.34721 20.6969L2.19996 20.8442Z" fill="#242A34"/>
<path d="M12.6548 12.2821C13.581 13.2086 14.1509 14.4519 14.173 15.7628C14.1951 17.0738 13.6797 18.3833 12.7299 19.3349L11.5976 20.4676C11.0939 20.9714 11.0939 21.7859 11.5976 22.2897C12.1012 22.7935 12.9155 22.7935 13.4191 22.2897L14.5514 21.157C15.971 19.7399 16.7514 17.853 16.7514 15.8453C16.7514 13.8376 15.971 11.9522 14.5514 10.5337L14.4042 10.3864C13.478 9.45985 12.9081 8.21664 12.886 6.90567C12.8639 5.55787 13.3793 4.2852 14.3291 3.33364L15.4615 2.2009C15.9651 1.69714 15.9651 0.882568 15.4615 0.378801C14.9579 -0.124965 14.1436 -0.124965 13.6399 0.378801L12.5076 1.51154C11.0881 2.92857 10.3076 4.81548 10.3076 6.82318C10.3076 8.83088 11.0881 10.7163 12.5076 12.1348L12.6548 12.2821Z" fill="#242A34"/>
<path d="M62.9048 22.5912C63.831 23.5177 64.4009 24.7609 64.423 26.0719C64.4451 27.3829 63.9297 28.6924 62.9799 29.6439L61.8476 30.7767C61.3439 31.2804 61.3439 32.095 61.8476 32.5988C62.3512 33.1025 63.1655 33.1025 63.6691 32.5988L64.8014 31.466C66.221 30.049 67.0014 28.1621 67.0014 26.1544C67.0014 24.1467 66.221 22.2613 64.8014 20.8428L64.6542 20.6955C63.728 19.7689 63.1581 18.5257 63.136 17.2148C63.1139 15.9038 63.6293 14.5943 64.5791 13.6427L65.7115 12.51C66.2151 12.0062 66.2151 11.1916 65.7115 10.6879C65.2079 10.1841 64.3936 10.1841 63.8899 10.6879L62.7576 11.8206C61.3381 13.2376 60.5576 15.1246 60.5576 17.1323C60.5576 19.14 61.3381 21.0254 62.7576 22.4439L62.9048 22.5912Z" fill="#242A34"/>
<path d="M52.45 10.5337C51.0304 11.9507 50.25 13.8376 50.25 15.8453C50.25 17.853 51.0304 19.7385 52.45 21.157L53.5823 22.2897C54.0859 22.7935 54.9002 22.7935 55.4038 22.2897C55.9075 21.7859 55.9075 20.9714 55.4038 20.4676L54.2715 19.3349C53.3202 18.3833 52.8063 17.1106 52.8284 15.7628C52.8505 14.415 53.4189 13.2086 54.3466 12.2821L54.4938 12.1348C55.9133 10.7178 56.6938 8.83088 56.6938 6.82318C56.6938 4.81548 55.9133 2.93004 54.4938 1.51154L53.3615 0.378801C52.8578 -0.124965 52.0435 -0.124965 51.5399 0.378801C51.0363 0.882568 51.0363 1.69714 51.5399 2.2009L52.6723 3.33364C53.6236 4.2852 54.1375 5.55787 54.1154 6.90567C54.0948 8.21664 53.5249 9.45985 52.5972 10.3864L52.45 10.5337Z" fill="#242A34"/>
<path d="M57.9439 55.7352C57.6332 49.9596 55.3405 44.5846 51.3838 40.363C50.8802 39.8253 50.0247 39.8253 49.5152 40.3571C49.0425 40.8505 49.0381 41.6283 49.5049 42.1276C53.0404 45.9029 55.0917 50.7064 55.37 55.8692C55.4068 56.5527 55.9708 57.0874 56.6555 57.0874C57.3917 57.0874 57.9837 56.4702 57.9439 55.7337V55.7352Z" fill="#242A34"/>
<path d="M47.371 36.9074C47.212 36.7984 47.053 36.6909 46.891 36.5848C46.2755 36.1812 45.4465 36.3874 45.0783 37.0238C44.7352 37.6189 44.9208 38.3745 45.4965 38.7516C45.6305 38.84 45.763 38.9284 45.8941 39.0197C46.461 39.4086 47.2297 39.2966 47.6508 38.7531C48.1014 38.1712 47.9777 37.3257 47.371 36.9074Z" fill="#242A34"/>
</g>
<defs>
<clipPath id="clip0_226_468">
<rect width="67" height="79" fill="white"/>
</clipPath>
</defs>
</svg>
