<?xml version="1.0" encoding="utf-8"?>
<!-- Generator: Adobe Illustrator 24.3.0, SVG Export Plug-In . SVG Version: 6.00 Build 0)  -->
<svg version="1.1" id="Capa_1" xmlns="http://www.w3.org/2000/svg" xmlns:xlink="http://www.w3.org/1999/xlink" x="0px" y="0px"
	 viewBox="0 0 512 512" style="enable-background:new 0 0 512 512;" xml:space="preserve">
<style type="text/css">
	.st0{fill:#FFFFFF;}
</style>
<g>
	<g>
		<path class="st0" d="M426.3,292c-2.4,0-4.6-1.3-5.8-3.6c-1.5-3.2-0.2-7,2.9-8.6l26.5-13c4.7-2.3,8.2-6.3,9.9-11.2
			c1.7-4.9,1.3-10.2-0.9-14.9L423.3,168c-1.6-3.2-0.2-7,2.9-8.6c3.2-1.6,7-0.2,8.6,2.9l35.6,72.7c3.8,7.7,4.4,16.5,1.6,24.7
			c-2.8,8.2-8.6,14.7-16.3,18.5l-26.5,13C428.2,291.8,427.2,292,426.3,292z"/>
	</g>
	<g>
		<path class="st0" d="M138.8,429.9c-11.9,0-23.5-6.6-29.1-18.1L3.3,194.6c-3.8-7.7-4.3-16.5-1.6-24.7c2.8-8.2,8.6-14.7,16.3-18.5
			L320.6,3.3c16-7.8,35.4-1.2,43.2,14.8l33.1,67.4c1.6,3.2,0.2,7-2.9,8.6c-3.2,1.6-7,0.2-8.6-2.9l-33.1-67.4
			c-4.7-9.7-16.4-13.6-26.1-8.9l-302.5,148c-4.7,2.3-8.2,6.3-9.9,11.2s-1.3,10.2,0.9,14.9l106.5,217.2c4.7,9.6,16.4,13.7,26.1,8.9
			l13.9-6.8c3.2-1.6,7-0.2,8.6,2.9c1.5,3.2,0.2,7-2.9,8.6l-13.9,6.8C148.4,428.8,143.6,429.9,138.8,429.9z"/>
	</g>
	<g>
		<path class="st0" d="M332.7,216.3c-6.9,0-13.6-3.8-16.8-10.4l-27-55c-2.2-4.5-2.5-9.6-0.9-14.3s5-8.5,9.5-10.7L397,78.3
			c9.2-4.5,20.4-0.7,24.9,8.6l27,55c2.2,4.5,2.5,9.5,0.9,14.3c-1.6,4.7-5,8.5-9.5,10.7l-99.5,47.5
			C338.3,215.7,335.5,216.3,332.7,216.3z M405.2,89.3c-0.9,0-1.7,0.2-2.6,0.6l-99.5,47.6c-1.4,0.7-2.4,1.9-2.9,3.3
			c-0.5,1.5-0.4,3.1,0.3,4.5l27,55c1.4,2.9,5,4.1,7.9,2.7c0,0,0,0,0.1,0l99.5-47.5c1.3-0.7,2.4-1.9,2.9-3.3s0.4-3.1-0.3-4.5l-27-55
			C409.5,90.5,407.4,89.3,405.2,89.3z"/>
	</g>
	<g>
		<path class="st0" d="M339.7,166.6c-2.4,0-4.6-1.3-5.8-3.6c-1.5-3.2-0.2-7,2.9-8.6L350,148c3.2-1.6,7-0.2,8.6,2.9
			c1.5,3.2,0.2,7-2.9,8.6l-13.2,6.5C341.6,166.3,340.6,166.6,339.7,166.6z"/>
	</g>
	<g>
		<path class="st0" d="M426.1,512c-4,0-8-0.7-11.9-2l-246.4-87.1c-18.6-6.6-28.3-27-21.8-45.6l50.1-141.9c3.2-9,9.7-16.2,18.3-20.3
			s18.3-4.7,27.3-1.5l246.4,87.1c9,3.2,16.2,9.7,20.3,18.3c4.1,8.6,4.7,18.3,1.5,27.3l-50.1,141.9c-3.2,9-9.7,16.2-18.3,20.3
			C436.6,510.8,431.4,512,426.1,512z M229.9,224.4c-3.4,0-6.8,0.8-9.9,2.3c-5.5,2.6-9.7,7.3-11.7,13l-50.1,141.9
			c-4.2,11.9,2.1,25,14,29.2l246.4,87.1l0,0c5.7,2,12,1.7,17.5-1c5.5-2.6,9.7-7.3,11.7-13L497.9,342c2-5.7,1.7-12-1-17.5
			c-2.6-5.5-7.3-9.7-13-11.7l-246.4-87.1C235,224.9,232.4,224.4,229.9,224.4z"/>
	</g>
	<g>
		<path class="st0" d="M216.9,388.4c-0.7,0-1.4-0.1-2.1-0.4l-20.7-7.3c-3.3-1.2-5.1-4.8-3.9-8.2c1.2-3.3,4.8-5.1,8.2-3.9l20.7,7.3
			c3.3,1.2,5.1,4.8,3.9,8.2C222.1,386.7,219.6,388.4,216.9,388.4z"/>
	</g>
	<g>
		<path class="st0" d="M283.2,411.8c-0.7,0-1.4-0.1-2.1-0.4l-20.7-7.3c-3.3-1.2-5.1-4.8-3.9-8.2c1.2-3.3,4.8-5.1,8.2-3.9l20.7,7.3
			c3.3,1.2,5.1,4.8,3.9,8.2C288.3,410.1,285.8,411.8,283.2,411.8z"/>
	</g>
	<g>
		<path class="st0" d="M349.5,435.2c-0.7,0-1.4-0.1-2.1-0.4l-20.7-7.3c-3.3-1.2-5.1-4.8-3.9-8.2c1.2-3.3,4.8-5.1,8.2-3.9l20.7,7.3
			c3.3,1.2,5.1,4.8,3.9,8.2C354.6,433.5,352.1,435.2,349.5,435.2z"/>
	</g>
	<g>
		<path class="st0" d="M495.1,368.4c-0.7,0-1.4-0.1-2.1-0.4L196.3,263.2c-3.3-1.2-5.1-4.8-3.9-8.2c1.2-3.3,4.8-5.1,8.2-3.9
			l296.7,104.8c3.3,1.2,5.1,4.8,3.9,8.2C500.2,366.7,497.8,368.4,495.1,368.4z"/>
	</g>
	<g>
		<path class="st0" d="M478.8,414.6c-0.7,0-1.4-0.1-2.1-0.4L180,309.4c-3.3-1.2-5.1-4.8-3.9-8.2c1.2-3.3,4.8-5.1,8.2-3.9L481,402.1
			c3.3,1.2,5.1,4.8,3.9,8.2C483.9,413,481.4,414.6,478.8,414.6z"/>
	</g>
	<g>
		<path class="st0" d="M415.7,458.6c-0.7,0-1.4-0.1-2.1-0.4l-20.7-7.3c-3.3-1.2-5.1-4.8-3.9-8.2c1.2-3.3,4.8-5.1,8.2-3.9l20.7,7.3
			c3.3,1.2,5.1,4.8,3.9,8.2C420.8,456.9,418.4,458.6,415.7,458.6z"/>
	</g>
</g>
</svg>
