<?xml version="1.0" encoding="utf-8"?>
<!-- Generator: Adobe Illustrator 24.3.0, SVG Export Plug-In . SVG Version: 6.00 Build 0)  -->
<svg version="1.1" id="Capa_1" xmlns="http://www.w3.org/2000/svg" xmlns:xlink="http://www.w3.org/1999/xlink" x="0px" y="0px"
	 viewBox="0 0 512 512" style="enable-background:new 0 0 512 512;" xml:space="preserve">
<style type="text/css">
	.st0{fill:#FFFFFF;}
</style>
<g>
	<g>
		<path class="st0" d="M206.5,263c-1.3,0-2.7-0.4-3.8-1.2c-1.8-1.3-2.7-3.3-2.6-5.5l2.6-49.4l-31.3-38.4c-1.4-1.7-1.8-3.9-1.1-6
			s2.3-3.6,4.4-4.2l48-12.8l27-41.5c2.4-3.6,8.4-3.6,10.7,0l27,41.5l48,12.8c2.1,0.6,3.8,2.1,4.4,4.2c0.7,2.1,0.2,4.3-1.1,6
			l-31.3,38.4l2.6,49.4c0.1,2.2-0.9,4.2-2.6,5.5s-4,1.6-6,0.8L255,244.9l-46.4,17.7C208.1,262.9,207.3,263,206.5,263z M255.2,231.6
			c0.8,0,1.5,0.1,2.3,0.4l39.5,15.1l-2.2-42c-0.1-1.6,0.4-3.1,1.4-4.4l26.6-32.7L282,157.1c-1.5-0.4-2.8-1.4-3.7-2.7l-23-35.3
			l-23,35.3c-0.9,1.3-2.2,2.3-3.7,2.7l-41,10.9l26.6,32.7c1,1.2,1.5,2.8,1.4,4.4l-2.2,42l39.5-15.1
			C253.6,231.7,254.4,231.6,255.2,231.6z"/>
	</g>
	<g>
		<g>
			<path class="st0" d="M133.5,129.2c-1.2,0-2.4-0.3-3.5-1l-34.1-22.3c-3-1.9-3.8-5.9-1.9-8.8c1.9-3,5.9-3.8,8.8-1.9l34.1,22.3
				c3,1.9,3.8,5.9,1.9,8.8C137.6,128.2,135.6,129.2,133.5,129.2z"/>
		</g>
		<g>
			<path class="st0" d="M126.6,188.2H87.3c-3.5,0-6.4-2.9-6.4-6.4s2.9-6.4,6.4-6.4h39.3c3.5,0,6.4,2.9,6.4,6.4
				C133,185.4,130.1,188.2,126.6,188.2z"/>
		</g>
		<g>
			<path class="st0" d="M98.9,269.7c-2.1,0-4.1-1-5.4-2.9c-1.9-3-1.1-6.9,1.9-8.8l34.1-22.3c3-1.9,6.9-1.1,8.8,1.9
				c1.9,3,1.1,6.9-1.9,8.8l-34.1,22.3C101.3,269.4,100.1,269.7,98.9,269.7z"/>
		</g>
		<g>
			<path class="st0" d="M413.3,269.7c-1.2,0-2.4-0.3-3.5-1l-34.1-22.3c-3-1.9-3.8-5.9-1.9-8.8c1.9-3,5.9-3.8,8.8-1.9l34.1,22.3
				c3,1.9,3.8,5.9,1.9,8.8C417.4,268.7,415.4,269.7,413.3,269.7z"/>
		</g>
		<g>
			<path class="st0" d="M425.5,188.4h-39.3c-3.5,0-6.4-2.9-6.4-6.4s2.9-6.4,6.4-6.4h39.3c3.5,0,6.4,2.9,6.4,6.4
				S429,188.4,425.5,188.4z"/>
		</g>
		<g>
			<path class="st0" d="M379.8,129.2c-2.1,0-4.1-1-5.4-2.9c-1.9-3-1.1-6.9,1.9-8.8l34.1-22.3c3-1.9,6.9-1.1,8.8,1.9s1.1,6.9-1.9,8.8
				l-34.1,22.3C382.2,128.8,381,129.2,379.8,129.2z"/>
		</g>
	</g>
</g>
<g>
	<path class="st0" d="M354.4,512c-0.7,0-1.4-0.1-2.1-0.4c-81-28.2-108.8-93.3-118.3-132.9h-54C80.3,378.8-0.8,297.7-0.8,198v-16.8
		C-0.8,81.5,80.3,0.4,180,0.4h150c99.7,0,180.8,81.1,180.8,180.8V198c0,97.6-77.7,177.3-174.4,180.7
		c-0.1,74.3,23.6,123.6,23.8,124.1c1.1,2.3,0.8,5.1-1,7.1C358,511.2,356.2,512,354.4,512z M180,13.2c-92.6,0-168,75.4-168,168V198
		c0,92.6,75.4,168,168,168h59.2c3,0,5.6,2.1,6.3,5.1c7.3,34,29.6,93.4,97.4,123.1c-7.8-21.1-20.3-64.5-19.2-121.9
		c0.1-3.5,2.9-6.3,6.4-6.3c92.6,0,168-75.4,168-168v-16.8c0-92.6-75.4-168-168-168L180,13.2L180,13.2z"/>
</g>
</svg>
