<?xml version="1.0" encoding="utf-8"?>
<!-- Generator: Adobe Illustrator 24.3.0, SVG Export Plug-In . SVG Version: 6.00 Build 0)  -->
<svg version="1.1" id="Capa_1" xmlns="http://www.w3.org/2000/svg" xmlns:xlink="http://www.w3.org/1999/xlink" x="0px" y="0px"
	 viewBox="0 0 512 512" style="enable-background:new 0 0 512 512;" xml:space="preserve">
<style type="text/css">
	.st0{fill:#FFFFFF;}
</style>
<g>
	<path class="st0" d="M434.3,297.3c-3.5,0-6.4-2.9-6.4-6.4V36.7h-47.4c-3.5,0-6.4-2.9-6.4-6.4s2.9-6.4,6.4-6.4h53.8
		c3.5,0,6.4,2.9,6.4,6.4v260.6C440.7,294.4,437.8,297.3,434.3,297.3z"/>
</g>
<g>
	<path class="st0" d="M106.2,71.4c-3.5,0-6.4-2.9-6.4-6.4V30.3c0-3.5,2.9-6.4,6.4-6.4H263c3.5,0,6.4,2.9,6.4,6.4s-2.9,6.4-6.4,6.4
		H112.6V65C112.6,68.5,109.8,71.4,106.2,71.4z"/>
</g>
<g>
	<path class="st0" d="M129.5,488.5h-23.2c-3.5,0-6.4-2.9-6.4-6.4V362.2c0-3.5,2.9-6.4,6.4-6.4s6.4,2.9,6.4,6.4v113.5h16.8
		c3.5,0,6.4,2.9,6.4,6.4S133,488.5,129.5,488.5z"/>
</g>
<g>
	<path class="st0" d="M434.3,488.5h-189c-3.5,0-6.4-2.9-6.4-6.4s2.9-6.4,6.4-6.4h182.6v-32.5c0-3.5,2.9-6.4,6.4-6.4s6.4,2.9,6.4,6.4
		v38.9C440.7,485.6,437.8,488.5,434.3,488.5z"/>
</g>
<g>
	<path class="st0" d="M138,512c-2.9,0-5.6-2-6.2-5L38.2,79.9c-0.4-1.7,0-3.4,0.9-4.8s2.4-2.4,4-2.8L370.7,0.5
		c3.5-0.7,6.9,1.4,7.6,4.9l93.5,427.1c0.4,1.7,0,3.4-0.9,4.8s-2.4,2.4-4,2.8l-327.6,71.7C138.9,512,138.4,512,138,512z M52.1,83.4
		L142.8,498l315.1-69L367.2,14.4L52.1,83.4z"/>
</g>
<g>
	<path class="st0" d="M133.7,278.4c-2.9,0-5.6-2-6.2-5c-0.8-3.5,1.4-6.9,4.9-7.6l238.1-52.2c3.4-0.7,6.9,1.4,7.6,4.9
		c0.8,3.5-1.4,6.9-4.9,7.6l-238.1,52.2C134.6,278.3,134.1,278.4,133.7,278.4z"/>
</g>
<g>
	<path class="st0" d="M146.1,335c-2.9,0-5.6-2-6.2-5c-0.8-3.5,1.4-6.9,4.9-7.6l238.1-52.2c3.4-0.7,6.9,1.4,7.6,4.9
		c0.8,3.5-1.4,6.9-4.9,7.6l-238.1,52.2C147,334.9,146.5,335,146.1,335z"/>
</g>
<g>
	<path class="st0" d="M158.5,391.6c-2.9,0-5.6-2-6.2-5c-0.8-3.5,1.4-6.9,4.9-7.6l238.1-52.2c3.4-0.7,6.9,1.4,7.6,4.9
		c0.8,3.5-1.4,6.9-4.9,7.6l-238.1,52.2C159.4,391.6,158.9,391.6,158.5,391.6z"/>
</g>
<g>
	<path class="st0" d="M170.9,448.2c-2.9,0-5.6-2-6.2-5c-0.8-3.5,1.4-6.9,4.9-7.6l238.1-52.2c3.4-0.8,6.9,1.4,7.6,4.9
		s-1.4,6.9-4.9,7.6l-238.1,52.2C171.8,448.2,171.3,448.2,170.9,448.2z"/>
</g>
<g>
	<path class="st0" d="M123,229.8c-1.2,0-2.4-0.3-3.5-1c-1.4-0.9-2.4-2.4-2.8-4L94,120.8c-0.8-3.5,1.4-6.9,4.9-7.6l104-22.8
		c3.4-0.7,6.9,1.4,7.6,4.9l22.8,104c0.4,1.7,0,3.4-0.9,4.8c-0.9,1.4-2.4,2.4-4,2.8l-104,22.8C124,229.8,123.5,229.8,123,229.8z
		 M107.9,124.3l20,91.5l91.5-20l-20-91.5L107.9,124.3z"/>
</g>
</svg>
