<?xml version="1.0" encoding="utf-8"?>
<!-- Generator: Adobe Illustrator 24.3.0, SVG Export Plug-In . SVG Version: 6.00 Build 0)  -->
<svg version="1.1" id="Capa_1" xmlns="http://www.w3.org/2000/svg" xmlns:xlink="http://www.w3.org/1999/xlink" x="0px" y="0px"
	 viewBox="0 0 512 512" style="enable-background:new 0 0 512 512;" xml:space="preserve">
<style type="text/css">
	.st0{fill:#BEBEBE;}
	.st1{fill:#DC1431;}
</style>
<g>
	<path class="st0" d="M268.3,512H64c-35.3,0-64-28.7-64-64V64C0,28.7,28.7,0,64,0h204.3c35.3,0,64,28.7,64,64v52.3
		c0,3.5-2.9,6.4-6.4,6.4s-6.4-2.9-6.4-6.4V64c0-28.2-23-51.2-51.2-51.2H64c-28.2,0-51.2,23-51.2,51.2v384c0,28.2,23,51.2,51.2,51.2
		h204.3c28.2,0,51.2-23,51.2-51.2v-95.1c0-3.5,2.9-6.4,6.4-6.4s6.4,2.9,6.4,6.4V448C332.3,483.3,303.5,512,268.3,512z"/>
</g>
<g>
	<path class="st0" d="M322.1,74.3h-312c-3.5,0-6.4-2.9-6.4-6.4s2.9-6.4,6.4-6.4h312c3.5,0,6.4,2.9,6.4,6.4S325.7,74.3,322.1,74.3z"
		/>
</g>
<g>
	<path class="st0" d="M322.1,407.9h-312c-3.5,0-6.4-2.9-6.4-6.4s2.9-6.4,6.4-6.4h312c3.5,0,6.4,2.9,6.4,6.4S325.7,407.9,322.1,407.9
		z"/>
</g>
<g>
	<path class="st0" d="M166.1,485.2c-16.9,0-30.7-13.8-30.7-30.7s13.8-30.7,30.7-30.7s30.7,13.8,30.7,30.7S183,485.2,166.1,485.2z
		 M166.1,436.7c-9.9,0-17.9,8-17.9,17.9c0,9.8,8,17.9,17.9,17.9c9.8,0,17.9-8,17.9-17.9S176,436.7,166.1,436.7z"/>
</g>
<g>
	<g>
		<path class="st1" d="M472.9,357.6H181.8c-21.5,0-39.1-17.5-39.1-39.1V150.8c0-21.5,17.5-39.1,39.1-39.1H473
			c21.5,0,39.1,17.5,39.1,39.1v167.7C512,340,494.5,357.6,472.9,357.6z M181.8,124.5c-14.5,0-26.3,11.8-26.3,26.3v167.7
			c0,14.5,11.8,26.3,26.3,26.3H473c14.5,0,26.3-11.8,26.3-26.3V150.8c0-14.5-11.8-26.3-26.3-26.3H181.8z"/>
	</g>
	<g>
		<path class="st1" d="M231.1,271.3h-38.6c-3.5,0-6.4-2.9-6.4-6.4s2.9-6.4,6.4-6.4h38.6c3.5,0,6.4,2.9,6.4,6.4
			S234.6,271.3,231.1,271.3z"/>
	</g>
	<g>
		<path class="st1" d="M453,271.3h-38.6c-3.5,0-6.4-2.9-6.4-6.4s2.9-6.4,6.4-6.4H453c3.5,0,6.4,2.9,6.4,6.4S456.6,271.3,453,271.3z"
			/>
	</g>
	<g>
		<path class="st1" d="M379,271.3h-38.6c-3.5,0-6.4-2.9-6.4-6.4s2.9-6.4,6.4-6.4H379c3.5,0,6.4,2.9,6.4,6.4S382.6,271.3,379,271.3z"
			/>
	</g>
	<g>
		<path class="st1" d="M305,271.3h-38.6c-3.5,0-6.4-2.9-6.4-6.4s2.9-6.4,6.4-6.4H305c3.5,0,6.4,2.9,6.4,6.4S308.6,271.3,305,271.3z"
			/>
	</g>
	<g>
		<path class="st1" d="M386.2,313.2h-45.8c-3.5,0-6.4-2.9-6.4-6.4s2.9-6.4,6.4-6.4h45.8c3.5,0,6.4,2.9,6.4,6.4
			C392.6,310.3,389.7,313.2,386.2,313.2z"/>
	</g>
	<g>
		<path class="st1" d="M453,168.9H340.4c-3.5,0-6.4-2.9-6.4-6.4s2.9-6.4,6.4-6.4H453c3.5,0,6.4,2.9,6.4,6.4S456.6,168.9,453,168.9z"
			/>
	</g>
	<g>
		<path class="st1" d="M453,210.8H340.4c-3.5,0-6.4-2.9-6.4-6.4s2.9-6.4,6.4-6.4H453c3.5,0,6.4,2.9,6.4,6.4S456.6,210.8,453,210.8z"
			/>
	</g>
	<g>
		<path class="st1" d="M309.7,313.2H192.2c-3.5,0-6.4-2.9-6.4-6.4s2.9-6.4,6.4-6.4h117.5c3.5,0,6.4,2.9,6.4,6.4
			C316.1,310.3,313.2,313.2,309.7,313.2z"/>
	</g>
	<g>
		<path class="st1" d="M246.1,231.8h-44.9c-8.5,0-15.3-6.9-15.3-15.4v-44.9c0-8.5,6.9-15.4,15.3-15.4h44.9c8.5,0,15.4,6.9,15.4,15.4
			v44.9C261.4,224.9,254.5,231.8,246.1,231.8z M201.2,168.9c-1.4,0-2.6,1.1-2.6,2.6v44.9c0,1.4,1.1,2.6,2.6,2.6h44.9
			c1.4,0,2.6-1.1,2.6-2.6v-44.9c0-1.4-1.1-2.6-2.6-2.6H201.2z"/>
	</g>
</g>
</svg>
