<?xml version="1.0" encoding="utf-8"?>
<!-- Generator: Adobe Illustrator 24.3.0, SVG Export Plug-In . SVG Version: 6.00 Build 0)  -->
<svg version="1.1" id="Capa_1" xmlns="http://www.w3.org/2000/svg" xmlns:xlink="http://www.w3.org/1999/xlink" x="0px" y="0px"
	 viewBox="0 0 512 512" style="enable-background:new 0 0 512 512;" xml:space="preserve">
<style type="text/css">
	.st0{fill:#FFFFFF;}
</style>
<g>
	<path class="st0" d="M340.2,342.8c-1.3,0-2.7-0.4-3.8-1.2c-1.8-1.3-2.7-3.3-2.6-5.5l2.4-44.5L308,257c-1.4-1.7-1.8-3.9-1.1-6
		c0.7-2.1,2.3-3.6,4.4-4.2l43.3-11.6l24.4-37.4c1.2-1.8,3.2-2.9,5.4-2.9l0,0c2.2,0,4.2,1.1,5.4,2.9l24.4,37.4l43.2,11.5
		c2.1,0.6,3.8,2.1,4.4,4.2c0.7,2.1,0.2,4.3-1.1,6l-28.2,34.7l2.3,44.5c0.1,2.2-0.9,4.2-2.6,5.5c-1.8,1.3-4,1.6-6,0.8l-41.8-16
		l-41.8,16C341.8,342.7,341,342.8,340.2,342.8z M324.2,256.5l23.5,28.9c1,1.2,1.5,2.8,1.4,4.4l-2,37.2l34.9-13.4
		c1.5-0.6,3.1-0.6,4.6,0l34.9,13.3l-1.9-37.2c-0.1-1.6,0.4-3.1,1.4-4.4l23.5-28.9l-36.1-9.6c-1.5-0.4-2.9-1.4-3.7-2.7l-20.4-31.2
		L364,244.2c-0.9,1.3-2.2,2.3-3.7,2.7L324.2,256.5z"/>
</g>
<g>
	<path class="st0" d="M260,481.5H6.5c-3.5,0-6.4-2.9-6.4-6.4V6.6c0-3.5,2.9-6.4,6.4-6.4h347.8c3.5,0,6.4,2.9,6.4,6.4v141
		c0,3.5-2.9,6.4-6.4,6.4s-6.4-2.9-6.4-6.4V13h-335v455.7H260c3.5,0,6.4,2.9,6.4,6.4S263.5,481.5,260,481.5z"/>
</g>
<g>
	<path class="st0" d="M317,80H43.9c-2.3,0-4.5-1.3-5.6-3.3l-36.1-66C0.5,7.6,1.7,3.7,4.8,2s7-0.6,8.7,2.5l34.2,62.6h265.5l34.2-62.6
		c1.7-3.1,5.6-4.2,8.7-2.5s4.2,5.6,2.5,8.7l-36.1,65.9C321.5,78.7,319.3,80,317,80z"/>
</g>
<g>
	<path class="st0" d="M505.5,512H263.2c-3.5,0-6.4-2.9-6.4-6.4V150.9c0-3.5,2.9-6.4,6.4-6.4h242.3c3.5,0,6.4,2.9,6.4,6.4v354.7
		C511.9,509.1,509,512,505.5,512z M269.6,499.2h229.5V157.3H269.6V499.2z"/>
</g>
<g>
	<path class="st0" d="M455.7,400.2H313c-3.5,0-6.4-2.9-6.4-6.4s2.9-6.4,6.4-6.4h142.7c3.5,0,6.4,2.9,6.4,6.4
		C462.1,397.4,459.3,400.2,455.7,400.2z"/>
</g>
<g>
	<path class="st0" d="M455.7,448.9H313c-3.5,0-6.4-2.9-6.4-6.4s2.9-6.4,6.4-6.4h142.7c3.5,0,6.4,2.9,6.4,6.4
		S459.3,448.9,455.7,448.9z"/>
</g>
</svg>
