<?xml version="1.0" encoding="utf-8"?>
<!-- Generator: Adobe Illustrator 24.3.0, SVG Export Plug-In . SVG Version: 6.00 Build 0)  -->
<svg version="1.1" id="Capa_1" xmlns="http://www.w3.org/2000/svg" xmlns:xlink="http://www.w3.org/1999/xlink" x="0px" y="0px"
	 viewBox="0 0 512 512" style="enable-background:new 0 0 512 512;" xml:space="preserve">
<style type="text/css">
	.st0{fill:#DC1431;}
	.st1{fill:#BEBEBE;}
</style>
<g>
	<path class="st0" d="M255,432.1c-3.2,0-5.5-0.2-6.4-0.2C190,427,146.2,407,118.4,372.6c-38.2-47.4-32-104.6-31.4-109
		c2.2-27.9,15.6-38.1,28.4-44.5c13.5-6.6,29.9-1.6,37.3,11.4l18,31.6c5.1,8.9,4.9,19.9-0.6,28.6l-10,20c-0.9,1.6-1.1,2.8-0.7,3.6
		c18.7,33.7,26.9,37.4,46.6,46.2c0.7,0.3,2.5,1,4.1,0.1l23-10.8c8.8-5.3,20.7-4.9,29.8,1.1l27.1,18c12.4,8.2,16.3,24.7,8.8,37.5
		l-6,10.2C285.8,430.2,265.6,432.1,255,432.1z M128,228.9c-2.3,0-4.7,0.5-6.9,1.6c-11.7,5.7-19.8,13.7-21.3,34.1c0,0.1,0,0.2,0,0.3
		c-0.1,0.6-6.7,55.8,28.8,99.6c25.5,31.5,66.2,49.9,121.2,54.5c6.8,0.6,27.4,0.2,32.2-8.8l6.1-10.4c4.1-6.9,2-15.9-4.8-20.4
		l-27.1-18c-5-3.3-11.6-3.5-16.8-0.4l-23,10.8c-4.2,2.5-9.9,2.7-15.3,0.3c-21.2-9.5-31.9-14.2-52.6-51.7c-2.7-4.8-2.4-11,0.7-16
		l10-20c3.2-5.3,3.4-11.2,0.6-16l-18-31.6C138.8,231.8,133.5,228.9,128,228.9z"/>
</g>
<g>
	<path class="st0" d="M184.5,512C82.8,512,0,430,0,329.3s82.8-182.7,184.5-182.7c15.6,0,31.1,1.9,46.1,5.8c3.4,0.9,5.5,4.4,4.6,7.8
		c-0.9,3.4-4.3,5.5-7.8,4.6c-14-3.6-28.4-5.4-43-5.4c-94.7,0-171.7,76.2-171.7,169.9s77,169.9,171.7,169.9
		c36.7,0,71.8-11.3,101.3-32.7c2.3-1.6,5.3-1.6,7.6,0c2.2,1.6,50.3,36.4,87.5,6.5c-17.8-8.8-54.6-31.4-44.5-63.1
		c0.1-0.3,0.2-0.6,0.4-0.9c9.4-19.1,16.7-43.6,18.6-62.3c0.1-0.5,4.5-34.4-3.8-64.7c-0.9-3.4,1.1-6.9,4.5-7.9
		c3.4-0.9,6.9,1.1,7.9,4.5c9,32.9,4.4,68.1,4.2,69.6c-2,19.8-9.7,45.7-19.6,66c-8.7,29,45.6,50.7,46.1,50.9c2,0.8,3.4,2.5,3.9,4.5
		c0.5,2.1-0.1,4.2-1.6,5.8c-39.1,42-92.4,13.3-107.2,4C258.7,500.8,222.5,512,184.5,512z"/>
</g>
<g>
	<path class="st1" d="M289.3,291.9c-10.3,0-22.3-2.4-36-8.9c-2.3-1.1-3.7-3.4-3.7-5.9s1.5-4.8,3.8-5.8c4.2-1.9,15.7-8.5,17.6-16.6
		c0.8-3.6-0.4-7.3-3.6-11.4c-0.9-0.9-1.8-1.8-2.7-2.7c-54.3-55.9-53.8-143,1.1-198.3c55.5-55.9,146.6-56.8,203.2-1.8
		c27.4,26.6,42.7,62.3,43,100.3s-14.3,73.9-41.2,101c-37.5,37.8-92,51.7-143.1,36.8C322.1,283.4,309,291.9,289.3,291.9z
		 M270.4,276.1c32.4,9.9,50.3-8,51.1-8.9c1.7-1.7,4.3-2.4,6.6-1.7c47.5,15.1,98.7,2.7,133.7-32.5c24.5-24.7,37.8-57.3,37.5-91.9
		s-14.2-67-39.1-91.2C408.6-0.2,325.6,0.5,275,51.5c-49.9,50.3-50.4,129.6-1,180.4c0.9,0.9,1.8,1.8,2.7,2.7c0.2,0.2,0.3,0.3,0.5,0.5
		c7.6,9.2,7.7,17.5,6.4,22.8C281.7,265.7,275.9,271.8,270.4,276.1z"/>
</g>
<g>
	<path class="st1" d="M341.2,109.7c-3.5,0-6.4-2.9-6.4-6.4c0-10.3-8.4-18.7-18.7-18.7c-10.3,0-18.7,8.4-18.7,18.7
		c0,3.5-2.9,6.4-6.4,6.4s-6.4-2.9-6.4-6.4c0-17.4,14.1-31.5,31.5-31.5s31.5,14.1,31.5,31.5C347.6,106.8,344.7,109.7,341.2,109.7z"/>
</g>
<g>
	<path class="st1" d="M445.7,109.7c-3.5,0-6.4-2.9-6.4-6.4c0-10.3-8.4-18.7-18.7-18.7c-10.3,0-18.7,8.4-18.7,18.7
		c0,3.5-2.9,6.4-6.4,6.4s-6.4-2.9-6.4-6.4c0-17.4,14.1-31.5,31.5-31.5s31.5,14.1,31.5,31.5C452.1,106.8,449.3,109.7,445.7,109.7z"/>
</g>
<g>
	<path class="st1" d="M368.4,222c-26.1,0-50.5-14-63.6-36.6c-1.8-3.1-0.8-7,2.3-8.8c3.1-1.8,7-0.8,8.8,2.3
		c10.9,18.7,31.1,30.3,52.6,30.3s41.7-11.6,52.6-30.3c1.8-3.1,5.7-4.1,8.8-2.3c3.1,1.8,4.1,5.7,2.3,8.8
		C418.8,208,394.4,222,368.4,222z"/>
</g>
</svg>
