<?xml version="1.0" encoding="utf-8"?>
<!-- Generator: Adobe Illustrator 24.3.0, SVG Export Plug-In . SVG Version: 6.00 Build 0)  -->
<svg version="1.1" id="Capa_1" xmlns="http://www.w3.org/2000/svg" xmlns:xlink="http://www.w3.org/1999/xlink" x="0px" y="0px"
	 viewBox="0 0 512 512" style="enable-background:new 0 0 512 512;" xml:space="preserve">
<style type="text/css">
	.st0{fill:#FFFFFF;}
</style>
<g>
	<g>
		<path class="st0" d="M223.1,294.3c-19,0-32.2-7.8-38.6-12.8c-51.2,14.4-105.5,0.3-143-37.5C14.4,216.7-0.4,180.5,0,142.2
			C0.3,103.8,15.7,67.9,43.4,41c57-55.4,148.9-54.6,204.8,1.8c55.4,55.8,55.9,143.7,1.1,200c-0.8,0.9-1.7,1.7-2.6,2.6
			c-3.9,4.9-3.2,7.8-3,8.8c1.5,6.3,11.3,12.5,15.9,14.5c3.2,1.4,5.4,4.6,5.4,8.2c0,3.5-2,6.8-5.2,8.3
			C246,291.9,233.6,294.3,223.1,294.3z M186.6,262.4c2.5,0,4.9,1,6.6,2.8c0.7,0.7,15.7,15.6,42.9,9.4c-4.4-4.2-8.4-9.6-9.9-16.1
			c-1.4-5.9-1.3-14.9,6.9-24.9c0.2-0.2,0.4-0.5,0.7-0.7c0.9-0.9,1.8-1.7,2.6-2.6c47.8-49.2,47.3-125.9-1-174.6
			C186.3,6.2,105.9,5.5,56,54c-24.1,23.5-37.6,54.8-37.9,88.3c-0.3,33.5,12.6,65.1,36.3,88.9c33.8,34.1,83.4,46.2,129.5,31.5
			C184.8,262.5,185.7,262.4,186.6,262.4z"/>
	</g>
	<g>
		<path class="st0" d="M326.8,512c-37.4,0-73.3-10.9-104-31.6c-25.1,16.1-73.5,31.9-108.1-5.4c-2-2.2-2.9-5.3-2.2-8.2
			c0.7-2.9,2.7-5.3,5.5-6.4c0.5-0.2,51.5-21.1,44.1-46.9c-9.9-20.3-17.6-46.2-19.6-66.2c-0.2-1.2-4.8-36.6,4.3-69.6
			c1.3-4.8,6.3-7.7,11.1-6.3c4.8,1.3,7.7,6.3,6.3,11.1c-8.1,29.4-3.8,62.4-3.7,62.7c1.9,18.5,9,42.4,18.2,61
			c0.2,0.4,0.4,0.8,0.5,1.2c9.9,31.1-22.3,53.5-41.5,63.7c34.6,23.6,77.8-7.6,79.7-9c3.2-2.3,7.5-2.4,10.7-0.1
			c28.8,20.8,62.9,31.8,98.6,31.8c92.2,0,167.1-74.2,167.1-165.4S418.8,163,326.7,163c-14.2,0-28.3,1.8-41.8,5.2
			c-4.9,1.3-9.8-1.7-11-6.5c-1.2-4.9,1.7-9.8,6.5-11c15.1-3.8,30.6-5.8,46.3-5.8c102.2,0,185.3,82.3,185.3,183.5
			S428.9,512,326.8,512z"/>
	</g>
	<g>
		<path class="st0" d="M201.9,125.2h-114c-5,0-9.1-4.1-9.1-9.1s4.1-9.1,9.1-9.1h114c5,0,9.1,4.1,9.1,9.1
			C210.9,121.2,206.9,125.2,201.9,125.2z"/>
	</g>
	<g>
		<path class="st0" d="M201.9,185.8h-114c-5,0-9.1-4.1-9.1-9.1s4.1-9.1,9.1-9.1h114c5,0,9.1,4.1,9.1,9.1S206.9,185.8,201.9,185.8z"
			/>
	</g>
</g>
</svg>
