<?xml version="1.0" encoding="utf-8"?>
<!-- Generator: Adobe Illustrator 24.3.0, SVG Export Plug-In . SVG Version: 6.00 Build 0)  -->
<svg version="1.1" id="Capa_1" xmlns="http://www.w3.org/2000/svg" xmlns:xlink="http://www.w3.org/1999/xlink" x="0px" y="0px"
	 viewBox="0 0 512 512" style="enable-background:new 0 0 512 512;" xml:space="preserve">
<style type="text/css">
	.st0{fill:#BEBEBE;}
	.st1{fill:#DC1431;}
</style>
<g>
	<path class="st0" d="M468.5,277.3h-55.2c-3.5,0-6.4-2.9-6.4-6.4s2.9-6.4,6.4-6.4h55.2c16.9,0,30.7-13.8,30.7-30.7V43.5
		c0-16.9-13.8-30.7-30.7-30.7H137.9c-16.9,0-30.7,13.8-30.7,30.7v193.8c0,3.5-2.9,6.4-6.4,6.4s-6.4-2.9-6.4-6.4V43.5
		c0-24,19.5-43.5,43.5-43.5h330.6c24,0,43.5,19.5,43.5,43.5v190.3C512,257.8,492.5,277.3,468.5,277.3z"/>
</g>
<g>
	<path class="st0" d="M502.8,61.3H103.9c-3.5,0-6.4-2.9-6.4-6.4s2.9-6.4,6.4-6.4h398.9c3.5,0,6.4,2.9,6.4,6.4S506.3,61.3,502.8,61.3
		z"/>
</g>
<g>
	<path class="st0" d="M502.8,111.6H103.9c-3.5,0-6.4-2.9-6.4-6.4s2.9-6.4,6.4-6.4h398.9c3.5,0,6.4,2.9,6.4,6.4
		S506.3,111.6,502.8,111.6z"/>
</g>
<g>
	<path class="st1" d="M408.2,307.7H9.3c-3.5,0-6.4-2.9-6.4-6.4s2.9-6.4,6.4-6.4h398.9c3.5,0,6.4,2.9,6.4,6.4
		S411.8,307.7,408.2,307.7z"/>
</g>
<g>
	<path class="st1" d="M408.2,358H9.3c-3.5,0-6.4-2.9-6.4-6.4s2.9-6.4,6.4-6.4h398.9c3.5,0,6.4,2.9,6.4,6.4
		C414.6,355.1,411.8,358,408.2,358z"/>
</g>
<g>
	<path class="st0" d="M174.4,182.5h-22.9c-3.5,0-6.4-2.9-6.4-6.4s2.9-6.4,6.4-6.4h22.9c3.5,0,6.4,2.9,6.4,6.4
		C180.8,179.6,177.9,182.5,174.4,182.5z"/>
</g>
<g>
	<path class="st0" d="M236.3,182.5h-22.9c-3.5,0-6.4-2.9-6.4-6.4s2.9-6.4,6.4-6.4h22.9c3.5,0,6.4,2.9,6.4,6.4
		S239.8,182.5,236.3,182.5z"/>
</g>
<g>
	<path class="st0" d="M298.2,182.5h-22.9c-3.5,0-6.4-2.9-6.4-6.4s2.9-6.4,6.4-6.4h22.9c3.5,0,6.4,2.9,6.4,6.4
		S301.7,182.5,298.2,182.5z"/>
</g>
<g>
	<path class="st0" d="M418.9,219.8c-24.1,0-43.8-19.6-43.8-43.8s19.6-43.8,43.8-43.8c24.1,0,43.8,19.6,43.8,43.8
		S443,219.8,418.9,219.8z M418.9,145.1c-17.1,0-31,13.9-31,31s13.9,31,31,31s31-13.9,31-31S436,145.1,418.9,145.1z"/>
</g>
<g>
	<path class="st1" d="M374.1,512H43.5C19.5,512,0,492.5,0,468.5V278.2c0-24,19.5-43.5,43.5-43.5h330.6c24,0,43.5,19.5,43.5,43.5
		v190.3C417.6,492.5,398.1,512,374.1,512z M43.5,247.5c-16.9,0-30.7,13.8-30.7,30.7v190.3c0,16.9,13.8,30.7,30.7,30.7h330.6
		c16.9,0,30.7-13.8,30.7-30.7V278.2c0-16.9-13.8-30.7-30.7-30.7L43.5,247.5L43.5,247.5z"/>
</g>
<g>
	<path class="st1" d="M84.8,445.8H57.1c-3.5,0-6.4-2.9-6.4-6.4s2.9-6.4,6.4-6.4h27.7c3.5,0,6.4,2.9,6.4,6.4S88.4,445.8,84.8,445.8z"
		/>
</g>
<g>
	<path class="st1" d="M173.7,445.8H146c-3.5,0-6.4-2.9-6.4-6.4s2.9-6.4,6.4-6.4h27.7c3.5,0,6.4,2.9,6.4,6.4S177.2,445.8,173.7,445.8
		z"/>
</g>
<g>
	<path class="st1" d="M262.6,445.8h-27.7c-3.5,0-6.4-2.9-6.4-6.4s2.9-6.4,6.4-6.4h27.7c3.5,0,6.4,2.9,6.4,6.4
		S266.1,445.8,262.6,445.8z"/>
</g>
<g>
	<path class="st1" d="M351.5,445.8h-27.7c-3.5,0-6.4-2.9-6.4-6.4s2.9-6.4,6.4-6.4h27.7c3.5,0,6.4,2.9,6.4,6.4S355,445.8,351.5,445.8
		z"/>
</g>
</svg>
