<?xml version="1.0" encoding="utf-8"?>
<!-- Generator: Adobe Illustrator 24.3.0, SVG Export Plug-In . SVG Version: 6.00 Build 0)  -->
<svg version="1.1" id="Capa_1" xmlns="http://www.w3.org/2000/svg" xmlns:xlink="http://www.w3.org/1999/xlink" x="0px" y="0px"
	 viewBox="0 0 512 512" style="enable-background:new 0 0 512 512;" xml:space="preserve">
<style type="text/css">
	.st0{fill:#BEBEBE;}
	.st1{fill:#DC1431;}
</style>
<g>
	<path class="st0" d="M225.7,182.5H73.5c-0.5,0-1-0.1-1.5-0.2c-24.6-1.9-43.6-22.4-43.6-47.2c0-24.4,18.5-44.5,42.3-47.1
		c-0.4-2.5-0.6-5.1-0.6-7.7c0-29,23.6-52.5,52.5-52.5c19.7,0,37.6,11.1,46.5,28.2c6-3.2,12.7-4.9,19.7-4.9
		c17.3,0,32.7,10.6,39.1,26.4c1-0.1,2-0.1,3-0.1c26.4,0,48.8,19.7,52.1,45.8c0.4,3.1-1.8,6-4.9,6.4s-6-1.8-6.4-4.9
		c-2.6-20.5-20.1-35.9-40.8-35.9c-1.8,0-3.7,0.2-6,0.5c-2.9,0.4-5.5-1.3-6.3-4.1c-3.7-13.3-15.9-22.6-29.7-22.6
		c-6.8,0-13.3,2.2-18.7,6.4c-1.4,1.1-3.3,1.4-5.1,0.9c-1.7-0.5-3.1-1.8-3.7-3.5c-5.9-16.2-21.4-27.2-38.6-27.2
		c-22.7,0-41.1,18.5-41.1,41.1c0,3.9,0.6,7.8,1.7,11.6c0.5,1.8,0.1,3.7-1,5.1s-3,2.3-4.7,2.2L76,99.1c-19.8,0-36,16.1-36,36
		c0,19.1,15,34.9,34,35.9c0.3,0,0.5,0.1,0.8,0.1h151.1c3.1,0,5.7,2.5,5.7,5.7S228.8,182.5,225.7,182.5z"/>
</g>
<g>
	<path class="st1" d="M356.2,314.9c-1.8,0-3.6-0.9-4.7-2.5L316,258.9l-25.9,25.9c-2.2,2.2-5.8,2.2-8,0s-2.2-5.8,0-8l30.8-30.8
		c1.2-1.2,2.9-1.8,4.6-1.6s3.2,1.1,4.2,2.5l39.3,59.3c1.7,2.6,1,6.1-1.6,7.9C358.4,314.5,357.3,314.9,356.2,314.9z"/>
</g>
<g>
	<path class="st1" d="M424,352.4c-2.5,0-4.8-1.7-5.5-4.3l-40.6-159c-1.1-4.6,0-8.3,3.3-11.6c17.6-17.5,31.3-31.2,46.8-46.7
		l17.7-17.7c4.1-4.1,6.6-8.3,7.8-13.1c1.8-7.2,0.1-14.7-4.8-20.4c-4.9-5.8-11.8-8.8-19.3-8.2c-6.5,0.5-11.9,3.1-16.9,8.2l-28,28
		c-11.8,11.8-23.2,23.2-36.9,36.9c-3,3.1-6.6,4.1-10.7,3.1c-18.2-4.3-113.2-28-170.1-43.3l-15.1,15.2l126.9,84.1
		c1.4,0.9,2.3,2.3,2.5,4c0.2,1.6-0.3,3.3-1.3,4.5L279,213c-0.6,0.7-1,1.2-1.5,1.7l-18.6,18.6c-14,14-25.9,25.9-42.9,42.9
		c-2.7,2.7-5.9,3.7-9.7,3.2c-6.4-0.9-12.7-1.9-19.1-2.8c-7.7-1.1-15.3-2.2-23-3.3c-0.5-0.1-0.7,0-0.7,0c-4,4.2-7.7,7.9-11.5,11.7
		l-1.7,1.7l6.4,3.6c14.6,8.1,29.2,16.2,43.8,24.4c2.7,1.5,3.7,5,2.2,7.7s-5,3.7-7.7,2.2c-14.6-8.2-29.1-16.3-43.7-24.4l-13.1-7.3
		c-1.5-0.9-2.6-2.4-2.8-4.2c-0.2-1.8,0.4-3.5,1.6-4.8l7-7c3.7-3.7,7.4-7.4,11-11.1c3-3.1,6.5-4.3,10.9-3.7
		c7.6,1.2,15.3,2.2,22.9,3.3c6.4,0.9,12.8,1.8,19.2,2.8c17.1-17.1,28.9-28.9,42.8-42.9l15.9-15.9l-127-84.2
		c-1.4-0.9-2.3-2.5-2.5-4.2s0.4-3.4,1.6-4.6L161,94c1.4-1.4,3.5-2,5.5-1.5c56.3,15.2,154.1,39.7,172.8,44.1
		c13.9-13.9,25.3-25.3,37-37l28-28c7-7,14.9-10.8,24.1-11.5c11.1-0.9,21.6,3.6,28.9,12.2s9.9,19.7,7.2,30.5
		c-1.7,6.8-5.2,12.8-10.8,18.4L436,138.9c-15.5,15.5-29.2,29.2-46.8,46.7c-0.2,0.2-0.3,0.3-0.4,0.4c0,0.1,0,0.2,0.1,0.4l40.6,158.8
		c0.8,3-1.1,6.1-4.1,6.9C424.9,352.4,424.4,352.4,424,352.4z"/>
</g>
<g>
	<path class="st0" d="M412.4,484.1H192.3c-0.6,0-1.2-0.1-1.7-0.3c-33.3-2.5-59.2-30.2-59.2-63.8c0-33.8,26.3-61.5,59.5-63.9
		c-0.8-4.2-1.2-8.5-1.2-12.7c0-39.3,31.9-71.2,71.2-71.2c27.4,0,52.4,16,64.1,40.4c8.6-5.1,18.4-7.7,28.5-7.7c23.8,0,45,15,53.2,37
		c2-0.2,3.8-0.3,5.7-0.3c39.3,0,71.2,31.9,71.2,71.2S451.7,484.1,412.4,484.1z M193.6,472.8h218.8c33,0,59.8-26.8,59.8-59.8
		s-26.8-59.8-59.8-59.8c-2.7,0-5.5,0.2-8.8,0.7c-2.9,0.4-5.6-1.3-6.3-4.1c-5.4-19.6-23.4-33.3-43.8-33.3c-10,0-19.6,3.2-27.6,9.4
		c-1.4,1.1-3.3,1.4-5.1,0.9c-1.7-0.5-3.1-1.8-3.7-3.5c-8.5-23.6-31.1-39.5-56.2-39.5c-33,0-59.8,26.8-59.8,59.8
		c0,5.6,0.8,11.3,2.4,16.8c0.5,1.8,0.1,3.7-1,5.1s-2.9,2.3-4.7,2.2l-1-0.1c-0.4,0-0.9-0.1-1.3-0.1c-29,0-52.6,23.6-52.6,52.6
		c0,27.9,21.9,51,49.8,52.5C193,472.6,193.3,472.7,193.6,472.8z"/>
</g>
</svg>
