<?xml version="1.0" encoding="utf-8"?>
<!-- Generator: Adobe Illustrator 24.3.0, SVG Export Plug-In . SVG Version: 6.00 Build 0)  -->
<svg version="1.1" id="Capa_1" xmlns="http://www.w3.org/2000/svg" xmlns:xlink="http://www.w3.org/1999/xlink" x="0px" y="0px"
	 viewBox="0 0 512 512" style="enable-background:new 0 0 512 512;" xml:space="preserve">
<style type="text/css">
	.st0{fill:#BEBEBE;}
	.st1{fill:#DC1431;}
</style>
<g>
	<path class="st0" d="M218.3,512c-3.1,0-5.8-2.3-6.3-5.4l-16.4-106.4c-0.5-3.5,1.9-6.8,5.3-7.3c3.5-0.6,6.8,1.9,7.3,5.4l15.4,100.1
		L498.3,456L444,103.1L347.7,118c-3.6,0.5-6.8-1.9-7.3-5.4s1.9-6.8,5.4-7.3l102.7-15.8c1.7-0.3,3.4,0.2,4.8,1.2s2.3,2.5,2.5,4.2
		L512,460.5c0.5,3.5-1.9,6.8-5.4,7.3L219.3,512C218.9,512,218.6,512,218.3,512z"/>
</g>
<g>
	<path class="st0" d="M449.6,474.3c-3.5,0-6.3-2.8-6.4-6.3c-0.7-32.7-8.7-78.3-42.9-110c-13.1-12.2-30.5-23-56.4-35.1
		c-0.2,0-67.6-25.4-47.8-96.3c1-3.4,4.5-5.4,7.9-4.4c3.4,0.9,5.4,4.5,4.4,7.9c-16.6,59.3,38,80.2,40.4,81
		c27.6,12.9,46,24.4,60.2,37.5c37.4,34.8,46.2,84,46.9,119.1c0.1,3.5-2.7,6.5-6.3,6.5C449.7,474.3,449.7,474.3,449.6,474.3z"/>
</g>
<g>
	<path class="st0" d="M215.6,471c-3.3,0-6.1-2.5-6.4-5.9c-0.3-3.5,2.4-6.6,5.9-6.9c0.1,0,7-0.6,17.9-2.6c3.5-0.6,6.8,1.7,7.5,5.1
		c0.6,3.5-1.7,6.8-5.1,7.5c-11.6,2.1-18.9,2.7-19.2,2.8C216,471,215.8,471,215.6,471z M258.5,462.7c-2.8,0-5.4-1.9-6.2-4.7
		c-0.9-3.4,1.1-6.9,4.5-7.9c5.9-1.6,11.8-3.5,17.4-5.5c3.4-1.2,7,0.6,8.2,3.9s-0.6,7-3.9,8.2c-5.9,2.1-12,4-18.2,5.7
		C259.7,462.6,259.1,462.7,258.5,462.7z M299.4,447.7c-2.4,0-4.7-1.4-5.8-3.7c-1.5-3.2-0.1-7,3.1-8.5c5.6-2.6,11-5.4,16.1-8.4
		c3-1.8,7-0.7,8.7,2.4c1.8,3.1,0.7,7-2.4,8.7c-5.4,3.1-11.2,6.1-17.1,8.9C301.3,447.5,300.3,447.7,299.4,447.7z M336.8,425.4
		c-1.9,0-3.8-0.9-5.1-2.5c-2.1-2.8-1.6-6.8,1.2-9c4.8-3.7,9.4-7.6,13.7-11.6c2.6-2.4,6.6-2.3,9,0.2c2.4,2.6,2.3,6.6-0.2,9
		c-4.6,4.4-9.5,8.6-14.7,12.6C339.5,424.9,338.1,425.4,336.8,425.4z M367.5,394.7c-1.3,0-2.7-0.4-3.9-1.3c-2.8-2.1-3.4-6.1-1.2-9
		c3.6-4.8,6.9-9.8,9.8-14.9c1.8-3.1,5.7-4.1,8.7-2.4c3.1,1.8,4.1,5.7,2.4,8.7c-3.2,5.6-6.8,11.1-10.7,16.3
		C371.4,393.9,369.5,394.7,367.5,394.7z M388.3,356.7c-0.8,0-1.6-0.1-2.4-0.5c-3.3-1.3-4.9-5-3.5-8.3c2.5-6.3,4.7-12,6.6-17.2
		c1.2-3.3,4.9-5,8.2-3.8c3.3,1.2,5,4.9,3.9,8.2c-1.9,5.3-4.2,11.2-6.8,17.6C393.2,355.1,390.8,356.7,388.3,356.7z M402.6,315.7
		c-0.6,0-1.2-0.1-1.7-0.2c-3.4-1-5.4-4.5-4.4-7.9c1.6-5.8,3-11.2,4.3-17.7c0.7-3.5,4.1-5.7,7.6-4.9c3.5,0.7,5.7,4.1,4.9,7.6
		c-1.4,6.7-2.8,12.4-4.5,18.5C408,313.8,405.4,315.7,402.6,315.7z M412.5,273.4c-0.6,0-1.2-0.1-1.8-0.3c-3.4-1-5.3-4.5-4.4-7.9
		c1.8-6.1,3.9-11.9,6.9-18.3c1.5-3.2,5.3-4.6,8.5-3.2c3.2,1.5,4.6,5.3,3.2,8.5c-2.7,5.8-4.6,11-6.2,16.5
		C417.8,271.6,415.3,273.4,412.5,273.4z M430.6,234.1c-1.1,0-2.2-0.3-3.2-0.9c-3.1-1.8-4.1-5.7-2.3-8.8c2.8-4.9,6.1-10.2,9.8-16.1
		c1.9-3,5.8-3.9,8.8-2s3.9,5.8,2,8.8c-3.6,5.8-6.8,11-9.6,15.7C434.9,233,432.8,234.1,430.6,234.1z M453.9,197.4
		c-1.2,0-2.5-0.4-3.6-1.1c-2.9-2-3.7-5.9-1.7-8.9c1.8-2.6,3.6-5.4,5.6-8.2c2-2.9,6-3.7,8.9-1.7s3.7,6,1.7,8.9
		c-1.9,2.8-3.8,5.5-5.5,8.1C458,196.4,456,197.4,453.9,197.4z"/>
</g>
<g>
	<path class="st1" d="M206.9,403.2c-5.4,0-10.9-1.1-16.1-3.3l0,0L3.9,319c-3.2-1.4-4.7-5.2-3.3-8.4L133,3.9c0.7-1.6,1.9-2.8,3.5-3.4
		s3.3-0.6,4.9,0.1l186.9,80.8c20.7,8.9,30.2,33,21.3,53.7L244.5,378.5C237.8,393.9,222.7,403.2,206.9,403.2z M195.9,388.1
		c14.2,6.1,30.7-0.4,36.8-14.6l105.2-243.6c6.1-14.2-0.4-30.7-14.6-36.8l-181-78.3l-127.4,295L195.9,388.1z"/>
</g>
<g>
	<path class="st1" d="M136.1,322.9c-0.8,0-1.7-0.2-2.5-0.5c-1.6-0.7-2.9-2-3.5-3.7c-1.7-4.6-41.2-112.8-15.4-173.1l0,0
		c9.2-21.4,26.1-38,47.7-46.6c21.6-8.7,45.3-8.4,66.6,0.8c44.1,18.9,64.5,70.2,45.6,114.4c-24.5,57.2-131.4,106.1-135.9,108.1
		C137.9,322.7,137,322.9,136.1,322.9z M194.8,105.4c-9.3,0-18.7,1.8-27.6,5.4c-18.4,7.4-32.9,21.5-40.7,39.8l0,0
		c-20.4,47.6,5.2,132.7,13.3,157c23.3-11.4,103.7-53.4,123.1-98.5c16.2-37.7-1.2-81.5-38.8-97.6
		C214.6,107.4,204.7,105.4,194.8,105.4z M120.6,148.1L120.6,148.1L120.6,148.1z"/>
</g>
<g>
	<path class="st1" d="M197.7,221.3c-6.4,0-12.8-1.3-18.8-3.9c-11.7-5-20.8-14.3-25.6-26.2c-4.7-11.9-4.6-24.9,0.5-36.6
		c5-11.7,14.3-20.8,26.2-25.6c11.8-4.7,24.9-4.6,36.6,0.5c11.7,5,20.8,14.3,25.5,26.2s4.6,24.9-0.5,36.6
		c-5,11.7-14.3,20.8-26.2,25.6C209.7,220.2,203.7,221.3,197.7,221.3z M197.7,138.5c-13.6,0-26.5,8-32.2,21.2
		c-3.7,8.6-3.8,18.1-0.3,26.8s10.1,15.5,18.7,19.2c17.7,7.6,38.4-0.6,46-18.4c3.7-8.6,3.8-18.1,0.3-26.8s-10.1-15.5-18.7-19.2
		C207,139.4,202.3,138.5,197.7,138.5z"/>
</g>
</svg>
