<?xml version="1.0" encoding="utf-8"?>
<!-- Generator: Adobe Illustrator 24.3.0, SVG Export Plug-In . SVG Version: 6.00 Build 0)  -->
<svg version="1.1" id="Capa_1" xmlns="http://www.w3.org/2000/svg" xmlns:xlink="http://www.w3.org/1999/xlink" x="0px" y="0px"
	 viewBox="0 0 512 512" style="enable-background:new 0 0 512 512;" xml:space="preserve">
<style type="text/css">
	.st0{fill:#FFFFFF;}
</style>
<g>
	<g>
		<g>
			<path class="st0" d="M427.7,214.3h-13.6c-3.5,0-6.4-2.9-6.4-6.4s2.9-6.4,6.4-6.4h13.6c39.4,0,71.4-30.7,71.4-68.4v-90h-78.9
				c-3.5,0-6.4-2.9-6.4-6.4s2.9-6.4,6.4-6.4h85.3c3.5,0,6.4,2.9,6.4,6.4v96.5C511.8,177.9,474.1,214.3,427.7,214.3z"/>
		</g>
	</g>
	<g>
		<g>
			<path class="st0" d="M426.5,168.7h-7c-3.5,0-6.4-2.9-6.4-6.4s2.9-6.4,6.4-6.4h7c18.5,0,33.6-14.4,33.6-32V80.6h-37.5
				c-3.5,0-6.4-2.9-6.4-6.4s2.9-6.4,6.4-6.4h43.9c3.5,0,6.4,2.9,6.4,6.4v49.6C472.9,148.6,452.1,168.7,426.5,168.7z"/>
		</g>
	</g>
	<g>
		<g>
			<path class="st0" d="M97.9,214.3H84.3c-46.4,0-84.2-36.4-84.2-81.1V36.7c0-3.5,2.9-6.4,6.4-6.4h85.3c3.5,0,6.4,2.9,6.4,6.4
				s-2.9,6.4-6.4,6.4H13v90.1c0,37.7,32,68.4,71.4,68.4H98c3.5,0,6.4,2.9,6.4,6.4C104.3,211.5,101.4,214.3,97.9,214.3z"/>
		</g>
	</g>
	<g>
		<g>
			<path class="st0" d="M92.4,168.7h-7c-25.6,0-46.4-20.1-46.4-44.8V74.2c0-3.5,2.9-6.4,6.4-6.4h43.9c3.5,0,6.4,2.9,6.4,6.4
				s-2.9,6.4-6.4,6.4H51.9v43.2c0,17.7,15.1,32,33.6,32h7c3.5,0,6.4,2.9,6.4,6.4C98.8,165.8,96,168.7,92.4,168.7z"/>
		</g>
	</g>
	<g>
		<g>
			<path class="st0" d="M321.8,451.9c-3.5,0-6.4-2.9-6.4-6.4v-24c0-6.4-5.1-11.6-11.3-11.6h-96.2c-6.2,0-11.3,5.2-11.3,11.6v24
				c0,3.5-2.9,6.4-6.4,6.4s-6.4-2.9-6.4-6.4v-24c0-13.5,10.8-24.4,24.1-24.4h96.2c13.3,0,24.1,11,24.1,24.4v24
				C328.2,449,325.4,451.9,321.8,451.9z"/>
		</g>
		<g>
			<path class="st0" d="M294.2,409.8c-3,0-5.7-2.2-6.3-5.3l-12.8-72.1c-0.3-1.7,0.1-3.4,1.1-4.9c1-1.4,2.5-2.3,4.2-2.6
				c75.7-11.3,132.8-80.4,132.8-160.7V13H98.9v151.2c0,80.3,57.1,149.4,132.8,160.7c1.7,0.3,3.2,1.2,4.2,2.6s1.4,3.2,1.1,4.9
				l-12.8,72.1c-0.6,3.5-3.9,5.8-7.4,5.2c-3.5-0.6-5.8-3.9-5.2-7.4l11.7-65.8c-78.7-15.1-137.2-88-137.2-172.3V6.6
				c0-3.5,2.9-6.4,6.4-6.4h327.1c3.5,0,6.4,2.9,6.4,6.4v157.6c0,84.3-58.5,157.1-137.2,172.3l11.7,65.8c0.6,3.5-1.7,6.8-5.2,7.4
				C294.9,409.8,294.5,409.8,294.2,409.8z"/>
		</g>
		<g>
			<path class="st0" d="M352.3,511.8H159.8c-3.5,0-6.4-2.9-6.4-6.4v-39.2c0-13.6,10.7-24.7,23.9-24.7h157.5
				c13.2,0,23.9,11.1,23.9,24.7v39.2C358.7,508.9,355.8,511.8,352.3,511.8z M166.2,499h179.7v-32.8c0-6.6-5-11.9-11.1-11.9H177.3
				c-6.1,0-11.1,5.3-11.1,11.9V499z"/>
		</g>
	</g>
	<g>
		<path class="st0" d="M255.5,280.5c-65.2,0-118.3-53.1-118.3-118.3S190.3,44,255.5,44s118.3,53.1,118.3,118.3
			S320.7,280.5,255.5,280.5z M255.5,56.8c-58.2,0-105.5,47.3-105.5,105.5s47.3,105.5,105.5,105.5S361,220.5,361,162.3
			S313.6,56.8,255.5,56.8z"/>
	</g>
	<g>
		<path class="st0" d="M214.4,225.9c-1.3,0-2.7-0.4-3.8-1.2c-1.8-1.3-2.7-3.3-2.6-5.5l2.2-41.4L184,145.6c-1.4-1.7-1.8-3.9-1.1-6
			s2.3-3.6,4.4-4.2l40.2-10.7l22.7-34.8c1.2-1.8,3.2-2.9,5.4-2.9l0,0c2.2,0,4.2,1.1,5.4,2.9l22.6,34.8l40.2,10.7
			c2.1,0.6,3.8,2.1,4.4,4.2c0.7,2.1,0.2,4.3-1.1,6l-26.2,32.2l2.2,41.4c0.1,2.2-0.9,4.2-2.6,5.5s-4,1.6-6,0.8l-38.8-14.9l-38.8,14.9
			C215.9,225.8,215.1,225.9,214.4,225.9z M200.1,145.2l21.5,26.4c1,1.2,1.5,2.8,1.4,4.4l-1.8,34l31.9-12.2c1.5-0.6,3.1-0.6,4.6,0
			l31.9,12.2l-1.8-34c-0.1-1.6,0.4-3.1,1.4-4.4l21.5-26.4l-33-8.8c-1.5-0.4-2.8-1.4-3.7-2.7l-18.6-28.6l-18.6,28.6
			c-0.9,1.3-2.2,2.3-3.7,2.7L200.1,145.2z"/>
	</g>
</g>
</svg>
