<svg width="66" height="67" viewBox="0 0 66 67" fill="none" xmlns="http://www.w3.org/2000/svg">
<g clip-path="url(#clip0_19_182)">
<path d="M35.4663 62.5606L34.1901 61.2983L37.8895 57.6391V44.0235L25.2214 38.8042V43.7186H23.4148V23.3803H20.3965V50.498L18.8767 51.1575L7.21947 40.57L4.74609 43.5767L20.0954 57.3413L20.3965 58.0078V62.1209H18.5827V58.405L2.89642 44.3284L2.80322 43.1016L6.42369 38.7049L7.73566 38.6127L18.5827 48.4628V22.4868L19.4932 21.5933H24.3181L25.2214 22.4868V36.8611L39.1441 42.5981L39.6961 43.4278V58.0078L39.4309 58.639L35.4663 62.5606Z" fill="white"/>
<path d="M39.6962 67.0002H15.8728V61.2349H39.7034V67.0002H39.6962ZM17.6795 65.2132H37.8895V63.0219H17.6795V65.2132Z" fill="white"/>
<path d="M35.7744 50.4982H33.9678V46.9241L29.7881 44.8251L30.6054 43.2295L35.2797 45.5839L35.7744 46.3781V50.4982Z" fill="white"/>
<path d="M16.396 19.0618L10.1373 14.5587L3.87856 19.0618L6.27308 11.7789L0 7.28292H7.74278L10.1301 0L12.5247 7.28292H20.2674L14.0087 11.7789L16.4032 19.0618H16.396ZM10.1373 12.3462L12.9548 14.3744L11.8794 11.0981L14.6969 9.06996H11.2127L10.1373 5.79371L9.06192 9.06996H5.57767L8.39518 11.0981L7.31979 14.3744L10.1373 12.3462Z" fill="white"/>
<path d="M39.266 19.0618L33.0072 14.5587L26.7485 19.0618L29.143 11.7789L22.8843 7.28292H30.6271L33.0001 0L35.3946 7.28292H43.1302L36.8715 11.7789L39.266 19.0618ZM33.0072 12.3462L35.8248 14.3744L34.7494 11.0981L37.5669 9.06996H34.0826L33.0072 5.79371L31.9319 9.06996H28.4476L31.2651 11.0981L30.1897 14.3744L33.0072 12.3462Z" fill="white"/>
<path d="M62.1359 19.0618L55.8771 14.5587L49.6184 19.0618L52.0129 11.7789L45.7542 7.28292H53.4969L55.8915 0L58.286 7.28292H66.0288L59.77 11.7789L62.1645 19.0618H62.1359ZM51.3175 9.06996L54.135 11.0981L53.0596 14.3744L55.8771 12.3462L58.6946 14.3744L57.6192 11.0981L60.4368 9.06996H56.9525L55.8771 5.79371L54.8017 9.06996H51.3175Z" fill="white"/>
<path d="M61.3686 34.2515H50.3782V36.0385H61.3686V34.2515Z" fill="white"/>
<path d="M61.3686 40.1021H50.3782V41.8891H61.3686V40.1021Z" fill="white"/>
<path d="M61.3686 45.9453H50.3782V47.7324H61.3686V45.9453Z" fill="white"/>
<path d="M61.3686 57.6323H50.3782V59.4194H61.3686V57.6323Z" fill="white"/>
<path d="M61.3686 51.7891H50.3782V53.5761H61.3686V51.7891Z" fill="white"/>
</g>
<defs>
<clipPath id="clip0_19_182">
<rect width="66" height="67" fill="white"/>
</clipPath>
</defs>
</svg>
