<svg width="61" height="68" viewBox="0 0 61 68" fill="none" xmlns="http://www.w3.org/2000/svg">
<g clip-path="url(#clip0_19_174)">
<path d="M57.7436 2.09379C56.2006 2.09379 54.9058 3.16481 54.57 4.59766H35.8689V0.723661C35.8689 0.323235 35.5428 0 35.1388 0H25.8564C25.4524 0 25.1262 0.323235 25.1262 0.723661V4.60248H6.43002C6.09903 3.16963 4.80426 2.09862 3.26125 2.09862C1.46026 2.09379 0 3.54594 0 5.32614C0 7.10635 1.46026 8.55367 3.25638 8.55367C4.79939 8.55367 6.09416 7.48265 6.42515 6.04981H22.2739C14.0818 9.02646 8.10445 16.2727 6.91677 25.0049C5.36403 25.2509 4.17148 26.5825 4.17148 28.189C4.17148 29.7955 5.3689 31.1319 6.92164 31.3731C7.89028 38.4167 12.091 44.7367 18.2873 48.4177V49.894H16.7103C16.3063 49.894 15.9801 50.2172 15.9801 50.6177V54.757C15.9801 55.1574 16.3063 55.4807 16.7103 55.4807H18.2873V57.2995H16.7103C16.3063 57.2995 15.9801 57.6227 15.9801 58.0231V62.1625C15.9801 62.5629 16.3063 62.8861 16.7103 62.8861H24.6541C25.0143 65.7663 27.4967 68.0048 30.4951 68.0048C33.4935 68.0048 35.976 65.7663 36.3362 62.8861H44.28C44.684 62.8861 45.0101 62.5629 45.0101 62.1625V58.0231C45.0101 57.6227 44.684 57.2995 44.28 57.2995H42.7029V55.4807H44.28C44.684 55.4807 45.0101 55.1574 45.0101 54.757V50.6177C45.0101 50.2172 44.684 49.894 44.28 49.894H42.7029V48.4177C48.8944 44.7367 53.1 38.4167 54.0686 31.3731C55.6262 31.1319 56.8188 29.7955 56.8188 28.189C56.8188 26.5825 55.6262 25.2509 54.0735 25.0049C52.8858 16.2824 46.9036 9.02646 38.7115 6.04981H54.5651C54.8961 7.48265 56.1909 8.55367 57.7388 8.55367C59.5349 8.55367 60.9951 7.10635 60.9951 5.32614C60.9951 3.54594 59.5349 2.09862 57.7388 2.09862L57.7436 2.09379ZM26.5865 1.44732H34.4086V9.20014H26.5865V1.44732ZM3.25638 7.10635C2.26341 7.10635 1.46026 6.3055 1.46026 5.32614C1.46026 4.34679 2.26827 3.54594 3.25638 3.54594C4.24449 3.54594 5.05251 4.34679 5.05251 5.32614C5.05251 6.3055 4.24449 7.10635 3.25638 7.10635ZM5.63661 28.189C5.63661 27.2048 6.44462 26.4088 7.43273 26.4088C8.42084 26.4088 9.22885 27.2097 9.22885 28.189C9.22885 29.1684 8.42084 29.9692 7.43273 29.9692C6.44462 29.9692 5.63661 29.1684 5.63661 28.189ZM30.5 66.5527C28.3047 66.5527 26.4843 64.9606 26.1338 62.8813H34.871C34.5206 64.9606 32.7001 66.5527 30.5049 66.5527H30.5ZM43.5547 61.434H17.4404V58.742H43.5547V61.434ZM41.2475 57.2946H19.7476V55.4758H41.2475V57.2946ZM43.5547 54.0285H17.4404V51.3365H43.5547V54.0285ZM30.5 27.3833C31.3713 27.3833 32.0771 28.0829 32.0771 28.9464C32.0771 29.81 31.3713 30.5095 30.5 30.5095C29.6287 30.5095 28.9229 29.81 28.9229 28.9464C28.9229 28.0829 29.6287 27.3833 30.5 27.3833ZM29.7699 26.0277C28.4459 26.3509 27.4627 27.5377 27.4627 28.9464C27.4627 30.606 28.8256 31.9569 30.5 31.9569C32.1744 31.9569 33.5373 30.606 33.5373 28.9464C33.5373 27.5377 32.5541 26.3509 31.2301 26.0277V15.2065L39.4417 27.9767C34.9392 31.0885 34.983 34.7357 35.2166 36.1734H25.7882C26.0219 34.7357 26.0657 31.0885 21.5632 27.9767L29.7747 15.2065V26.0277H29.7699ZM38.9403 37.6159V39.2176H22.0548V37.6159H38.9403ZM35.5914 49.8892H31.2301V40.6649H35.5914V49.8892ZM29.7699 40.6649V49.8892H25.4086V40.6649H29.7699ZM55.3634 28.1842C55.3634 29.1684 54.5554 29.9644 53.5673 29.9644C52.5792 29.9644 51.7711 29.1635 51.7711 28.1842C51.7711 27.2048 52.5792 26.404 53.5673 26.404C54.5554 26.404 55.3634 27.2048 55.3634 28.1842ZM52.6181 25.0966C51.2844 25.5018 50.3109 26.732 50.3109 28.1842C50.3109 29.6363 51.2795 30.8617 52.6132 31.2718C51.6641 37.9729 47.5899 43.9648 41.6175 47.3757C41.3887 47.5059 41.2524 47.7423 41.2524 48.0028V49.894H37.0566V40.6697H39.6753C40.0793 40.6697 40.4054 40.3465 40.4054 39.9461V36.8971C40.4054 36.4966 40.0793 36.1734 39.6753 36.1734H36.7012C36.5114 35.3388 36.049 31.7832 40.8338 28.7969C40.9993 28.6956 41.1161 28.5315 41.155 28.3434C41.1989 28.1552 41.1648 27.9574 41.0577 27.7982L31.1182 12.336C31.1182 12.336 31.1182 12.336 31.1133 12.3312C30.9819 12.1334 30.758 12.0031 30.5049 12.0031C30.2518 12.0031 30.023 12.1334 29.8964 12.3312C29.8964 12.3312 29.8964 12.3312 29.8916 12.336L19.952 27.7982C19.8498 27.9623 19.8109 28.1601 19.8547 28.3434C19.8985 28.5315 20.0153 28.6956 20.1759 28.7969C24.9607 31.7832 24.4983 35.3388 24.3085 36.1734H21.3344C20.9304 36.1734 20.6043 36.4966 20.6043 36.8971V39.9461C20.6043 40.3465 20.9304 40.6697 21.3344 40.6697H23.9532V49.894H19.7573V48.0028C19.7573 47.7423 19.6162 47.5059 19.3923 47.3757C13.4198 43.9696 9.34568 37.9777 8.39651 31.2718C9.72534 30.8665 10.6989 29.6363 10.6989 28.1842C10.6989 26.732 9.72534 25.5018 8.39164 25.0966C9.65233 16.1328 16.2917 8.84796 25.1408 6.68663V9.91898C25.1408 10.3194 25.467 10.6426 25.871 10.6426H35.1534C35.5574 10.6426 35.8835 10.3194 35.8835 9.91898V6.69145C44.7229 8.85279 51.372 16.1425 52.6327 25.0966H52.6181ZM57.7436 7.10153C56.7506 7.10153 55.9475 6.30067 55.9475 5.32132C55.9475 4.34197 56.7555 3.54111 57.7436 3.54111C58.7317 3.54111 59.5397 4.34197 59.5397 5.32132C59.5397 6.30067 58.7317 7.10153 57.7436 7.10153Z" fill="#1A1A1A"/>
</g>
<defs>
<clipPath id="clip0_19_174">
<rect width="61" height="68" fill="white"/>
</clipPath>
</defs>
</svg>
