<svg width="82" height="68" viewBox="0 0 82 68" fill="none" xmlns="http://www.w3.org/2000/svg">
<g clip-path="url(#clip0_19_200)">
<path d="M61.6883 50.9224L60.438 52.1758L66.1675 57.9195L67.4178 56.6661L61.6883 50.9224Z" fill="#1A1A1A"/>
<path d="M20.0202 51.2124L14.582 56.6641L15.8323 57.9175L21.2705 52.4658L20.0202 51.2124Z" fill="#1A1A1A"/>
<path d="M41.8812 61.4028H40.113V68.0055H41.8812V61.4028Z" fill="#1A1A1A"/>
<path d="M41.8812 0H40.113V5.48406H41.8812V0Z" fill="#1A1A1A"/>
<path d="M68.5529 41.9221L67.876 43.5596L74.3517 46.2499L75.0286 44.6124L68.5529 41.9221Z" fill="#1A1A1A"/>
<path d="M29.1867 57.7045L26.2205 64.8799L27.8539 65.5585L30.8202 58.3831L29.1867 57.7045Z" fill="#1A1A1A"/>
<path d="M52.5632 1.43777L50.4336 6.30811L52.053 7.01973L54.1826 2.1494L52.5632 1.43777Z" fill="#1A1A1A"/>
<path d="M13.1233 42.0481L6.96387 44.6045L7.64023 46.2422L13.7997 43.6859L13.1233 42.0481Z" fill="#1A1A1A"/>
<path d="M52.6032 57.2121L50.9695 57.8901L54.1368 65.5595L55.7705 64.8815L52.6032 57.2121Z" fill="#1A1A1A"/>
<path d="M29.2195 1.43534L27.6001 2.14697L29.7297 7.01731L31.3491 6.30568L29.2195 1.43534Z" fill="#1A1A1A"/>
<path d="M73.1818 31.5332C72.2662 31.5332 71.385 31.1488 70.7613 30.4719L55.0193 13.7042C53.7719 12.3619 53.852 10.2566 55.1853 9.01755L60.6958 3.88341C61.3081 3.30977 62.1092 3 62.9447 3C63.8602 3 64.7472 3.38434 65.3709 4.06125L81.1128 20.8289C82.3603 22.1713 82.2802 24.2765 80.9469 25.5156L75.4364 30.6497C74.8241 31.2234 74.023 31.5389 73.1875 31.5389L73.1818 31.5332ZM62.9504 4.77257C62.5613 4.77257 62.1893 4.92171 61.9032 5.18559L56.3927 10.3197C55.7689 10.8991 55.7346 11.88 56.3126 12.4996L72.0545 29.2673C72.621 29.8811 73.6338 29.9155 74.2347 29.3533L79.7452 24.2192C80.3689 23.6398 80.4033 22.6588 79.8253 22.0393L64.0834 5.27164C63.7858 4.9504 63.3853 4.77257 62.9504 4.77257Z" fill="#1A1A1A"/>
<path d="M32.4623 33.6957C31.5009 33.6957 30.5282 33.3745 29.7213 32.7263C28.7714 31.9633 28.1935 30.8791 28.0905 29.663C27.9875 28.4469 28.3766 27.2824 29.1834 26.3703L36.8684 17.7197C38.8712 15.4653 41.7438 14.1746 44.748 14.1746H49.4231C51.1569 14.1746 52.8164 13.6353 54.224 12.6143L55.2598 14.0484C53.5545 15.2874 51.5346 15.9471 49.4231 15.9471H44.748C42.2416 15.9471 39.8497 17.0256 38.1845 18.9014L30.4995 27.552C30.0189 28.097 29.7843 28.7911 29.8472 29.5196C29.9102 30.2424 30.2535 30.8964 30.82 31.3495C31.8729 32.1928 33.3778 32.101 34.322 31.1373L39.8841 25.4582C41.1487 24.1675 43.1 23.8807 44.6335 24.7526C46.6478 25.8942 49.7378 26.6743 53.0338 23.8692L54.1783 25.2173C49.8866 28.8656 45.8123 27.4545 43.7637 26.29C42.9226 25.8139 41.8468 25.9802 41.143 26.6973L35.5809 32.3764C34.7226 33.2483 33.5896 33.6957 32.4508 33.6957H32.4623Z" fill="#1A1A1A"/>
<path d="M64.1979 40.9351L62.9504 39.6845L64.1063 38.5258C65.5255 37.1031 66.3724 35.2043 66.4868 33.1966L66.5097 32.8237L70.458 29.3589L71.6197 30.6897L68.2206 33.667C68.0032 35.973 66.9961 38.1299 65.3538 39.7706L64.1979 40.9293V40.9351Z" fill="#1A1A1A"/>
<path d="M8.8179 31.5332C7.98245 31.5332 7.18134 31.2176 6.56906 30.644L1.0528 25.5156C-0.280491 24.2708 -0.360603 22.1713 0.881128 20.8289L16.6288 4.05551C17.2468 3.38434 18.1337 3 19.0493 3C19.8848 3 20.6859 3.31551 21.2982 3.88341L26.8087 9.01755C28.142 10.2624 28.2221 12.3619 26.9804 13.7042L11.2327 30.4834C10.6147 31.1545 9.72774 31.5389 8.81218 31.5389L8.8179 31.5332ZM19.0493 4.77257C18.6144 4.77257 18.2139 4.9504 17.922 5.2659L2.17436 22.0393C1.60213 22.6588 1.63647 23.6398 2.26019 24.2192L7.77073 29.3533C8.37729 29.9155 9.39013 29.8753 9.94519 29.273L25.6929 12.4996C26.2651 11.88 26.2307 10.8991 25.607 10.3197L20.0965 5.18559C19.8104 4.92171 19.4384 4.77257 19.0493 4.77257Z" fill="#1A1A1A"/>
<path d="M44.4389 15.9471H31.8728C30.2648 15.9471 28.6626 15.5512 27.2435 14.7998L26.6255 14.4728L27.4495 12.9067L28.0675 13.2337C29.2348 13.8533 30.5567 14.1802 31.8785 14.1802H44.4446V15.9528L44.4389 15.9471Z" fill="#1A1A1A"/>
<path d="M17.4127 40.5454L16.646 39.7767C15.0151 38.1418 14.008 35.9963 13.7791 33.7018L10.0825 30.845L11.164 29.4453L15.4901 32.7897L15.5129 33.1912C15.6274 35.2047 16.4743 37.0978 17.8934 38.5204L18.6602 39.2891L17.4127 40.5396V40.5454Z" fill="#1A1A1A"/>
<path d="M44.0155 58.9478C43.0199 58.9478 42.0299 58.5979 41.2231 57.9038L40.8225 57.703L41.6122 56.1198L42.2302 56.4295L42.3217 56.5156C43.3117 57.4277 44.8338 57.399 45.7894 56.441C46.2758 55.9534 46.5391 55.3052 46.5219 54.6111C46.5104 54.0891 46.3445 53.5957 46.0412 53.1827L41.4233 48.8861L42.6193 47.5839L46.9053 51.5134C47.0655 51.6625 47.2143 51.8232 47.3516 51.9895L47.9982 52.5918C48.9882 53.5039 50.5103 53.4695 51.4602 52.5173C51.9466 52.0297 52.2098 51.3815 52.1926 50.6873C52.1812 50.1539 52.0038 49.649 51.6891 49.2303L46.2129 44.0789L47.4203 42.7825L52.5875 47.5897C52.7363 47.7273 52.8793 47.8765 53.0052 48.0314L53.6633 48.6509C54.6475 49.5573 56.1696 49.5228 57.1195 48.5706C57.6059 48.083 57.8691 47.4348 57.852 46.7407C57.8348 46.0523 57.5487 45.4098 57.0451 44.9451L51.0139 39.266L52.2213 37.9753L58.4585 43.8437C59.4427 44.7501 60.9649 44.7157 61.9148 43.7634C62.4126 43.2644 62.6701 42.6161 62.6587 41.9278C62.6472 41.2394 62.3611 40.6026 61.8575 40.1323L48.3873 27.6899L49.5833 26.3877L63.0592 38.8301C63.9176 39.6332 64.4039 40.7174 64.4268 41.8876C64.4497 43.0636 64.0034 44.165 63.1794 44.9968C62.1952 45.9834 60.8619 46.3965 59.5915 46.2301C59.6087 46.385 59.6259 46.5399 59.6259 46.7005C59.6487 47.8765 59.2081 48.9836 58.3784 49.8154C57.1882 51.0086 55.4715 51.3585 53.9723 50.8422C53.9437 51.9436 53.5088 52.9762 52.7248 53.7621C51.5289 54.961 49.8007 55.3052 48.3015 54.7832C48.2729 55.8846 47.8323 56.9057 47.0541 57.6916C46.2186 58.5291 45.1256 58.9478 44.0327 58.9478H44.0155Z" fill="#1A1A1A"/>
<path d="M21.012 46.6715C20.022 46.6715 19.0492 46.3273 18.2767 45.7078C17.3268 44.9448 16.7489 43.8606 16.6459 42.6445C16.5429 41.4284 16.932 40.2639 17.7388 39.3518L20.7774 36.1795C21.6014 35.3248 22.7058 34.8486 23.8903 34.8486C24.9661 34.8486 25.9961 35.2502 26.7972 35.9787C28.5482 37.5792 28.6798 40.3097 27.0947 42.0708L24.1649 45.3291C23.3066 46.2068 22.1965 46.6715 21.012 46.6715ZM23.8903 36.6212C23.1922 36.6212 22.5341 36.9023 22.0534 37.4071L19.0378 40.5564C18.58 41.0727 18.3454 41.7725 18.4083 42.5011C18.4713 43.2239 18.8146 43.8778 19.3811 44.331C19.8504 44.7096 20.4169 44.9046 21.0177 44.9046C21.7273 44.9046 22.391 44.6236 22.8889 44.1188L25.7901 40.8891C26.7285 39.8508 26.6484 38.2331 25.6127 37.2924C25.1434 36.8621 24.5312 36.6269 23.896 36.6269L23.8903 36.6212Z" fill="#1A1A1A"/>
<path d="M26.471 50.9796C25.481 50.9796 24.5082 50.6354 23.7357 50.0159C22.7858 49.2529 22.2079 48.1687 22.1049 46.9526C22.0019 45.7365 22.391 44.572 23.1978 43.6599L26.2363 40.4876C27.0604 39.6329 28.1648 39.1567 29.3493 39.1567C30.425 39.1567 31.4551 39.5583 32.2562 40.2868C34.0072 41.8873 34.1388 44.6178 32.5537 46.3789L29.6239 49.6372C28.7656 50.5149 27.6555 50.9796 26.471 50.9796ZM29.3493 40.9293C28.6511 40.9293 27.9931 41.2104 27.5124 41.7152L24.4911 44.8645C24.0333 45.3808 23.7987 46.0806 23.8616 46.8034C23.9246 47.5262 24.2679 48.1802 24.8344 48.6334C25.3036 49.012 25.8701 49.207 26.471 49.207C27.1805 49.207 27.8443 48.9259 28.3421 48.4211L31.2433 45.1915C32.1818 44.1532 32.1017 42.5355 31.0659 41.5947C30.5967 41.1645 29.9844 40.9293 29.3493 40.9293Z" fill="#1A1A1A"/>
<path d="M31.9586 55.3165C30.9687 55.3165 29.9959 54.9723 29.2177 54.3528C28.2678 53.5898 27.6898 52.5056 27.5868 51.2895C27.4838 50.0734 27.8729 48.9089 28.6798 47.9968L31.724 44.8245C32.548 43.9698 33.6524 43.4937 34.8369 43.4937C35.9127 43.4937 36.9427 43.8952 37.7438 44.6237C39.4948 46.2242 39.6265 48.9548 38.0414 50.7159L35.1116 53.9742C34.2532 54.8518 33.1431 55.3165 31.9586 55.3165ZM34.8369 45.2662C34.1388 45.2662 33.4807 45.5473 33.0001 46.0521L29.9787 49.2014C29.5209 49.7177 29.2863 50.4176 29.3493 51.1404C29.4122 51.8631 29.7556 52.5171 30.3221 52.9703C30.7913 53.3489 31.3578 53.5439 31.9586 53.5439C32.6682 53.5439 33.332 53.2628 33.8298 52.758L36.731 49.5284C37.6694 48.4901 37.5893 46.8724 36.5536 45.9316C36.0844 45.5014 35.4721 45.2662 34.8369 45.2662Z" fill="#1A1A1A"/>
<path d="M37.4865 59.877C36.4965 59.877 35.5237 59.5329 34.7455 58.9133C33.7956 58.1504 33.2176 57.0662 33.1146 55.8501C33.0116 54.6339 33.4008 53.4694 34.2076 52.5573L37.2518 49.3851C38.0758 48.5303 39.1802 48.0542 40.3647 48.0542C41.4405 48.0542 42.4705 48.4558 43.2717 49.1843C45.0227 50.7848 45.1543 53.5153 43.5692 55.2764L40.6394 58.5347C39.7811 59.4124 38.671 59.877 37.4865 59.877ZM40.3647 49.8268C39.6666 49.8268 39.0086 50.1079 38.5279 50.6127L35.5065 53.762C35.0488 54.2783 34.8142 54.9781 34.8771 55.7009C34.94 56.4237 35.2834 57.0777 35.8499 57.5308C36.3191 57.9094 36.8856 58.1045 37.4865 58.1045C38.196 58.1045 38.8598 57.8234 39.3576 57.3186L42.2588 54.089C43.1973 53.0507 43.1172 51.433 42.0814 50.4922C41.6122 50.062 40.9999 49.8268 40.3647 49.8268Z" fill="#1A1A1A"/>
<path d="M75.002 32.739L74.8135 34.5015L78.1419 34.8592L78.3304 33.0968L75.002 32.739Z" fill="#1A1A1A"/>
<path d="M7.9637 32.7438L4.63525 33.1016L4.82376 34.864L8.15221 34.5063L7.9637 32.7438Z" fill="#1A1A1A"/>
</g>
<defs>
<clipPath id="clip0_19_200">
<rect width="82" height="68" fill="white"/>
</clipPath>
</defs>
</svg>
