<?xml version="1.0" encoding="utf-8"?>
<!-- Generator: Adobe Illustrator 24.3.0, SVG Export Plug-In . SVG Version: 6.00 Build 0)  -->
<svg version="1.1" id="Capa_1" xmlns="http://www.w3.org/2000/svg" xmlns:xlink="http://www.w3.org/1999/xlink" x="0px" y="0px"
	 viewBox="0 0 512 512" style="enable-background:new 0 0 512 512;" xml:space="preserve">
<style type="text/css">
	.st0{fill:#BEBEBE;}
	.st1{fill:#DC1431;}
</style>
<g>
	<path class="st0" d="M189.7,375.9h-0.1c-46.8-1-88.4-26-111.5-66.7C15.9,199.2,28.8,39.8,29.3,33.1c0.3-2.9,2.7-5.2,5.7-5.2h315
		c3,0,5.4,2.2,5.7,5.2c0,0.5,4.1,46.7-1.8,107.4c-0.3,3.1-3.1,5.5-6.2,5.1c-3.1-0.3-5.4-3.1-5.1-6.2c4.7-47.9,3-86.5,2.2-100H40.4
		C38.7,67.9,33.7,207.6,88,303.6c21.1,37.2,59.1,60,101.8,60.9c3.1,0.1,5.6,2.7,5.6,5.8C195.3,373.4,192.8,375.9,189.7,375.9z"/>
</g>
<g>
	<path class="st0" d="M150.9,113.4c-3.2,0-5.7-2.6-5.7-5.7c0-12.6-10.7-22.8-23.8-22.8s-23.8,10.2-23.8,22.8c0,3.1-2.5,5.7-5.7,5.7
		s-5.7-2.6-5.7-5.7c0-18.9,15.8-34.3,35.2-34.3s35.2,15.4,35.2,34.3C156.6,110.9,154,113.4,150.9,113.4z"/>
</g>
<g>
	<path class="st0" d="M293.1,113.4c-3.2,0-5.7-2.6-5.7-5.7c0-12.6-10.7-22.8-23.8-22.8s-23.8,10.2-23.8,22.8c0,3.1-2.5,5.7-5.7,5.7
		s-5.7-2.6-5.7-5.7c0-18.9,15.8-34.3,35.2-34.3s35.2,15.4,35.2,34.3C298.8,110.9,296.2,113.4,293.1,113.4z"/>
</g>
<g>
	<path class="st0" d="M132.3,296.9c-1,0-2.1-0.3-3-0.9c-2.7-1.7-3.5-5.2-1.8-7.9c8.4-13.3,21.1-24,35.9-29.9
		c2.9-1.2,6.2,0.2,7.4,3.2c1.2,2.9-0.2,6.2-3.2,7.4c-12.6,5.1-23.4,14.1-30.5,25.4C136,295.9,134.2,296.9,132.3,296.9z"/>
</g>
<g>
	<path class="st1" d="M319.5,484.1c-48,0-90.8-25-114.5-66.8c-62.2-110-49.3-269.4-48.7-276.1c0.3-2.9,2.7-5.2,5.7-5.2h315
		c3,0,5.4,2.3,5.7,5.2c0.6,6.7,13.5,166.2-48.7,276.1C410.3,459.2,367.5,484.1,319.5,484.1z M167.3,147.5
		c-1.7,28.6-6.7,168.3,47.6,264.3c21.6,38.2,60.7,61,104.5,61c43.9,0,82.9-22.8,104.5-61c54.3-96,49.3-235.7,47.6-264.3H167.3z"/>
</g>
<g>
	<path class="st1" d="M277.8,241.2c-3.2,0-5.7-2.6-5.7-5.7c0-12.6-10.7-22.8-23.8-22.8s-23.8,10.2-23.8,22.8c0,3.1-2.5,5.7-5.7,5.7
		s-5.7-2.6-5.7-5.7c0-18.9,15.8-34.3,35.2-34.3s35.2,15.4,35.2,34.3C283.5,238.7,281,241.2,277.8,241.2z"/>
</g>
<g>
	<path class="st1" d="M420,241.2c-3.2,0-5.7-2.6-5.7-5.7c0-12.6-10.7-22.8-23.8-22.8c-13.1,0-23.8,10.2-23.8,22.8
		c0,3.1-2.5,5.7-5.7,5.7s-5.7-2.6-5.7-5.7c0-18.9,15.8-34.3,35.2-34.3c19.4,0,35.2,15.4,35.2,34.3
		C425.7,238.7,423.2,241.2,420,241.2z"/>
</g>
<g>
	<path class="st1" d="M319.5,411c-26.8,0-51.1-13.3-65.1-35.5c-1.7-2.7-0.9-6.2,1.8-7.9c2.7-1.7,6.2-0.9,7.9,1.8
		c11.9,18.9,32.6,30.2,55.4,30.2s43.5-11.3,55.4-30.2c1.7-2.7,5.2-3.5,7.9-1.8c2.7,1.7,3.5,5.2,1.8,7.9
		C370.6,397.7,346.2,411,319.5,411z"/>
</g>
</svg>
