<?xml version="1.0" encoding="utf-8"?>
<!-- Generator: Adobe Illustrator 24.3.0, SVG Export Plug-In . SVG Version: 6.00 Build 0)  -->
<svg version="1.1" id="Capa_1" xmlns="http://www.w3.org/2000/svg" xmlns:xlink="http://www.w3.org/1999/xlink" x="0px" y="0px"
	 viewBox="0 0 512 512" style="enable-background:new 0 0 512 512;" xml:space="preserve">
<style type="text/css">
	.st0{fill:#FFFFFF;}
</style>
<g>
	<path class="st0" d="M505.6,350.5H6.4c-3.5,0-6.4-2.9-6.4-6.4V6.4C0,2.9,2.9,0,6.4,0h499.2c3.5,0,6.4,2.9,6.4,6.4v337.7
		C512,347.6,509.1,350.5,505.6,350.5z M12.8,337.7h486.4V12.8H12.8V337.7z"/>
</g>
<g>
	<g>
		<path class="st0" d="M345.6,349c-3.5,0-6.4-2.9-6.4-6.4v-19c0-3.5,2.9-6.4,6.4-6.4s6.4,2.9,6.4,6.4v19
			C352,346.2,349.1,349,345.6,349z"/>
	</g>
	<g>
		<path class="st0" d="M345.6,296.4c-3.5,0-6.4-2.9-6.4-6.4v-19c0-3.5,2.9-6.4,6.4-6.4s6.4,2.9,6.4,6.4v19
			C352,293.5,349.1,296.4,345.6,296.4z"/>
	</g>
	<g>
		<path class="st0" d="M345.6,243.8c-3.5,0-6.4-2.9-6.4-6.4v-19c0-3.5,2.9-6.4,6.4-6.4s6.4,2.9,6.4,6.4v19
			C352,240.9,349.1,243.8,345.6,243.8z"/>
	</g>
	<g>
		<path class="st0" d="M345.6,191.1c-3.5,0-6.4-2.9-6.4-6.4v-19c0-3.5,2.9-6.4,6.4-6.4s6.4,2.9,6.4,6.4v19
			C352,188.3,349.1,191.1,345.6,191.1z"/>
	</g>
	<g>
		<path class="st0" d="M345.6,138.5c-3.5,0-6.4-2.9-6.4-6.4v-19c0-3.5,2.9-6.4,6.4-6.4s6.4,2.9,6.4,6.4v19
			C352,135.6,349.1,138.5,345.6,138.5z"/>
	</g>
	<g>
		<path class="st0" d="M345.6,85.8c-3.5,0-6.4-2.9-6.4-6.4v-19c0-3.5,2.9-6.4,6.4-6.4s6.4,2.9,6.4,6.4v19
			C352,83,349.1,85.8,345.6,85.8z"/>
	</g>
	<g>
		<path class="st0" d="M345.6,33.2c-3.5,0-6.4-2.9-6.4-6.4v-19c0-3.5,2.9-6.4,6.4-6.4s6.4,2.9,6.4,6.4v19
			C352,30.3,349.1,33.2,345.6,33.2z"/>
	</g>
</g>
<g>
	<g>
		<path class="st0" d="M476.9,512h-373c-1,0-1.9-0.2-2.8-0.6L7.3,465.9c-0.4-0.2-0.7-0.4-1.1-0.7c-4-3-6.3-7.6-6.3-12.6
			S2.2,443,6.2,440c0.3-0.3,0.7-0.5,1.1-0.7l93.7-45.4c0.9-0.4,1.8-0.6,2.8-0.6h373c19.4,0,35.1,15.8,35.1,35.1v48.5
			C512,496.2,496.2,512,476.9,512z M105.3,499.2h371.5c12.3,0,22.3-10,22.3-22.3v-48.5c0-12.3-10-22.3-22.3-22.3H105.3l-91.7,44.4
			c-0.7,0.7-0.9,1.6-0.9,2.1s0.1,1.4,0.9,2.1L105.3,499.2z"/>
	</g>
	<g>
		<path class="st0" d="M449.6,507.7c-3.5,0-6.4-2.9-6.4-6.4V404c0-3.5,2.9-6.4,6.4-6.4s6.4,2.9,6.4,6.4v97.4
			C456,504.9,453.1,507.7,449.6,507.7z"/>
	</g>
	<g>
		<path class="st0" d="M408.5,507.7c-3.5,0-6.4-2.9-6.4-6.4V404c0-3.5,2.9-6.4,6.4-6.4s6.4,2.9,6.4,6.4v97.4
			C414.9,504.9,412.1,507.7,408.5,507.7z"/>
	</g>
	<g>
		<path class="st0" d="M106.7,507.7c-3.5,0-6.4-2.9-6.4-6.4V404c0-3.5,2.9-6.4,6.4-6.4s6.4,2.9,6.4,6.4v97.4
			C113.1,504.9,110.2,507.7,106.7,507.7z"/>
	</g>
	<g>
		<path class="st0" d="M55.2,487c-3.5,0-6.4-2.9-6.4-6.4v-56c0-3.5,2.9-6.4,6.4-6.4s6.4,2.9,6.4,6.4v56
			C61.6,484.2,58.7,487,55.2,487z"/>
	</g>
</g>
<g>
	<path class="st0" d="M245.4,110.1H55.2c-3.5,0-6.4-2.9-6.4-6.4V47.1c0-3.5,2.9-6.4,6.4-6.4h190.2c3.5,0,6.4,2.9,6.4,6.4v56.5
		C251.8,107.2,248.9,110.1,245.4,110.1z M61.6,97.3H239V53.5H61.6V97.3z"/>
</g>
<g>
	<path class="st0" d="M245.4,297.9H55.2c-3.5,0-6.4-2.9-6.4-6.4V235c0-3.5,2.9-6.4,6.4-6.4h190.2c3.5,0,6.4,2.9,6.4,6.4v56.5
		C251.8,295,248.9,297.9,245.4,297.9z M61.6,285.1H239v-43.7H61.6V285.1z"/>
</g>
<g>
	<path class="st0" d="M303.2,204h-248c-3.5,0-6.4-2.9-6.4-6.4V141c0-3.5,2.9-6.4,6.4-6.4h248c3.5,0,6.4,2.9,6.4,6.4v56.5
		C309.6,201.1,306.7,204,303.2,204z M61.6,191.2h235.2v-43.7H61.6V191.2z"/>
</g>
<g>
	<path class="st0" d="M460.7,65.8h-62.8c-3.5,0-6.4-2.9-6.4-6.4s2.9-6.4,6.4-6.4h62.8c3.5,0,6.4,2.9,6.4,6.4S464.2,65.8,460.7,65.8z
		"/>
</g>
<g>
	<path class="st0" d="M460.7,122.3h-62.8c-3.5,0-6.4-2.9-6.4-6.4s2.9-6.4,6.4-6.4h62.8c3.5,0,6.4,2.9,6.4,6.4
		S464.2,122.3,460.7,122.3z"/>
</g>
<g>
	<path class="st0" d="M460.7,178.8h-62.8c-3.5,0-6.4-2.9-6.4-6.4s2.9-6.4,6.4-6.4h62.8c3.5,0,6.4,2.9,6.4,6.4
		C467.1,176,464.2,178.8,460.7,178.8z"/>
</g>
<g>
	<path class="st0" d="M460.7,235.4h-62.8c-3.5,0-6.4-2.9-6.4-6.4s2.9-6.4,6.4-6.4h62.8c3.5,0,6.4,2.9,6.4,6.4
		S464.2,235.4,460.7,235.4z"/>
</g>
<g>
	<path class="st0" d="M460.7,291.9h-62.8c-3.5,0-6.4-2.9-6.4-6.4s2.9-6.4,6.4-6.4h62.8c3.5,0,6.4,2.9,6.4,6.4
		C467.1,289.1,464.2,291.9,460.7,291.9z"/>
</g>
</svg>
