<?xml version="1.0" encoding="utf-8"?>
<!-- Generator: Adobe Illustrator 24.3.0, SVG Export Plug-In . SVG Version: 6.00 Build 0)  -->
<svg version="1.1" id="Capa_1" xmlns="http://www.w3.org/2000/svg" xmlns:xlink="http://www.w3.org/1999/xlink" x="0px" y="0px"
	 viewBox="0 0 512 512" style="enable-background:new 0 0 512 512;" xml:space="preserve">
<style type="text/css">
	.st0{fill:#DC1431;}
	.st1{fill:#BEBEBE;}
</style>
<path class="st0" d="M511.2,101.2L469.9,7.5c-0.3-0.7-0.7-1.3-1.2-1.8c-3.4-3.7-8.5-5.8-13.9-5.8S444.3,2,440.9,5.7
	c-0.5,0.6-0.9,1.1-1.2,1.8l-41.3,93.7c-0.3,0.8-0.5,1.7-0.5,2.6v379.7c0,15.5,14.8,28.1,33,28.1h47.9c18.2,0,33-12.6,32.9-28.1
	V103.8C511.7,102.9,511.6,102,511.2,101.2z M410.7,113h37.8v306.7h-37.8V113z M434.6,51H475l21.7,49.2h-83.9L434.6,51z M461.3,113
	H499v306.7h-37.7V113z M450.9,14c2-1.4,5.8-1.4,7.8,0l10.7,24.2h-29.2L450.9,14z M478.8,498.9h-47.9c-11.1,0-20.2-6.8-20.2-15.3
	v-51.1H499v51.1C499,492,489.9,498.9,478.8,498.9z"/>
<path class="st1" d="M186.1,44.1c-3.5,0-6.4,2.9-6.4,6.4v17.2c0,3.5,2.9,6.4,6.4,6.4s6.4-2.9,6.4-6.4V50.5
	C192.5,47,189.6,44.1,186.1,44.1z"/>
<path class="st1" d="M337.3,78.9h-32.1c-2.2-22.1-20.8-39.4-43.5-39.4h-15.8c-5.9,0-11.1-3.2-13.3-8.3
	c-8.1-18.7-26.4-30.8-46.7-30.8s-38.6,12.1-46.6,30.8c-2.1,5-7.4,8.3-13.3,8.3h-15.8c-22.7,0-41.4,17.4-43.5,39.5h-32
	c-19,0-34.5,15.5-34.6,34.5v363.9c0,19.1,15.5,34.6,34.6,34.6h302.7c19,0,34.5-15.5,34.5-34.6V113.5
	C371.9,94.4,356.4,78.9,337.3,78.9z M79.3,83.2c0-17,13.9-30.9,30.9-30.9H126c11.1,0,20.9-6.3,25.1-16.1c6-14,19.7-23,34.9-23
	s28.9,9,34.9,23c4.2,9.8,14,16.1,25.1,16.1h15.8c17,0,30.9,13.9,30.9,30.9V105H79.3V83.2z M359.1,477.5c0,12-9.8,21.8-21.8,21.8
	H34.7c-12,0-21.8-9.8-21.8-21.8V113.6c0-12,9.8-21.8,21.8-21.8h31.8v19.6c0,3.5,2.9,6.4,6.4,6.4h226.3c3.5,0,6.4-2.8,6.2-6.3V91.7
	h31.9c12,0,21.8,9.8,21.8,21.8V477.5z"/>
<path class="st0" d="M186.1,169.2c-70.5,0-127.8,57.3-127.8,127.8s57.3,127.8,127.8,127.8c70.4,0,127.8-57.4,127.8-127.8
	C313.9,226.5,256.6,169.2,186.1,169.2z M186.1,411.9c-63.4,0-115-51.6-115-115s51.6-115,115-115s115,51.6,115,115
	S249.5,411.9,186.1,411.9z"/>
<path class="st0" d="M259.9,268.4l-43.8-11.7l-24.7-37.9c-2.3-3.6-8.3-3.6-10.7,0L156,256.7l-43.8,11.7c-2.1,0.6-3.7,2.1-4.4,4.2
	c-0.7,2.1-0.3,4.3,1.1,6l28.5,35.1l-2.4,45.1c-0.1,2.2,0.9,4.2,2.6,5.5c1.1,0.8,2.5,1.2,3.8,1.2c0.8,0,1.6-0.2,2.5-0.4l42.3-16.2
	l42.3,16.2c2,0.8,4.2,0.5,6-0.8c1.7-1.3,2.7-3.3,2.6-5.5l-2.4-45.1l28.5-35.1c1.3-1.7,1.8-3.9,1.1-6
	C263.7,270.5,262,269,259.9,268.4z M223.2,307.5c-1,1.3-1.5,2.8-1.4,4.4l2,37.7L188.4,336c-0.8-0.3-1.5-0.4-2.3-0.4
	s-1.6,0.2-2.3,0.4l-35.4,13.6l2-37.7c0.1-1.6-0.4-3.2-1.4-4.4l-23.9-29.3l36.6-9.8c1.5-0.4,2.8-1.4,3.7-2.7l20.7-31.7l20.7,31.7
	c0.9,1.3,2.2,2.3,3.7,2.7l36.6,9.8L223.2,307.5z"/>
</svg>
