<?xml version="1.0" encoding="utf-8"?>
<!-- Generator: Adobe Illustrator 24.3.0, SVG Export Plug-In . SVG Version: 6.00 Build 0)  -->
<svg version="1.1" id="Capa_1" xmlns="http://www.w3.org/2000/svg" xmlns:xlink="http://www.w3.org/1999/xlink" x="0px" y="0px"
	 viewBox="0 0 512 512" style="enable-background:new 0 0 512 512;" xml:space="preserve">
<style type="text/css">
	.st0{fill:#DC1431;}
	.st1{fill:#BEBEBE;}
</style>
<g>
	<path class="st0" d="M318.6,316.1H193.4c-3.2,0-5.7-2.6-5.7-5.7v-38.3c0-3.2,2.6-5.7,5.7-5.7h125.2c3.2,0,5.7,2.6,5.7,5.7v38.3
		C324.3,313.6,321.8,316.1,318.6,316.1z M199.1,304.7h113.8v-26.9H199.1V304.7z"/>
</g>
<g>
	<path class="st1" d="M418.4,205.3c-2.7,0-5.1-1.9-5.6-4.7L388.6,69.3c-3.2-17.4-16.8-30-32.4-30H155.8c-15.6,0-29.3,12.6-32.4,30
		L99.2,200.6c-0.6,3.1-3.5,5.2-6.6,4.6c-3.1-0.6-5.1-3.5-4.6-6.6l24.2-131.4c4.1-22.8,22.5-39.3,43.6-39.3h200.3
		c21.2,0,39.5,16.6,43.7,39.4L424,198.6c0.6,3.1-1.5,6.1-4.6,6.6C419.1,205.3,418.7,205.3,418.4,205.3z"/>
</g>
<g>
	<path class="st0" d="M117.1,324.6c-18.4,0-33.4-15-33.4-33.4s15-33.4,33.4-33.4s33.4,15,33.4,33.4
		C150.5,309.7,135.5,324.6,117.1,324.6z M117.1,269.3c-12.1,0-22,9.9-22,22s9.9,22,22,22s22-9.9,22-22S129.2,269.3,117.1,269.3z"/>
</g>
<g>
	<path class="st0" d="M394.9,324.6c-18.4,0-33.4-15-33.4-33.4s15-33.4,33.4-33.4s33.4,15,33.4,33.4
		C428.3,309.7,413.3,324.6,394.9,324.6z M394.9,269.3c-12.1,0-22,9.9-22,22s9.9,22,22,22s22-9.9,22-22S407,269.3,394.9,269.3z"/>
</g>
<g>
	<path class="st1" d="M94.4,484.1c-17.2,0-31.1-14-31.1-31.1v-46.6c0-3.2,2.6-5.7,5.7-5.7c3.2,0,5.7,2.6,5.7,5.7V453
		c0,10.9,8.9,19.7,19.7,19.7s19.7-8.9,19.7-19.7v-46.6c0-3.2,2.6-5.7,5.7-5.7c3.2,0,5.7,2.6,5.7,5.7V453
		C125.5,470.2,111.5,484.1,94.4,484.1z"/>
</g>
<g>
	<path class="st1" d="M417.6,484.1c-17.2,0-31.1-14-31.1-31.1v-46.6c0-3.2,2.6-5.7,5.7-5.7s5.7,2.6,5.7,5.7V453
		c0,10.9,8.9,19.7,19.7,19.7c10.9,0,19.7-8.9,19.7-19.7v-46.6c0-3.2,2.6-5.7,5.7-5.7s5.7,2.6,5.7,5.7V453
		C448.8,470.2,434.8,484.1,417.6,484.1z"/>
</g>
<g>
	<path class="st1" d="M229.1,205.3c-3.2,0-5.7-2.6-5.7-5.7c0-21.6-17.6-39.2-39.2-39.2S145,178,145,199.6c0,3.2-2.6,5.7-5.7,5.7
		s-5.7-2.6-5.7-5.7c0-27.9,22.7-50.6,50.6-50.6s50.6,22.7,50.6,50.6C234.8,202.8,232.2,205.3,229.1,205.3z"/>
</g>
<g>
	<path class="st1" d="M464.3,372.2c-3.2,0-5.7-2.6-5.7-5.7V253.6c0-24.9-20.3-45.2-45.2-45.2H98.6c-24.9,0-45.2,20.3-45.2,45.2
		v112.9c0,3.2-2.6,5.7-5.7,5.7s-5.7-2.6-5.7-5.7V253.6c0-31.2,25.4-56.6,56.6-56.6h314.8c31.2,0,56.6,25.4,56.6,56.6v112.9
		C470,369.7,467.4,372.2,464.3,372.2z"/>
</g>
<g>
	<path class="st1" d="M478.4,409H33.6c-3.2,0-5.7-2.6-5.7-5.7v-32.5c0-3.2,2.6-5.7,5.7-5.7h444.9c3.2,0,5.7,2.6,5.7,5.7v32.5
		C484.1,406.4,481.6,409,478.4,409z M39.3,397.6h433.5v-21.1H39.3V397.6z"/>
</g>
</svg>
