<?xml version="1.0" encoding="utf-8"?>
<!-- Generator: Adobe Illustrator 24.3.0, SVG Export Plug-In . SVG Version: 6.00 Build 0)  -->
<svg version="1.1" id="Capa_1" xmlns="http://www.w3.org/2000/svg" xmlns:xlink="http://www.w3.org/1999/xlink" x="0px" y="0px"
	 viewBox="0 0 512 512" style="enable-background:new 0 0 512 512;" xml:space="preserve">
<style type="text/css">
	.st0{fill:#FFFFFF;}
</style>
<g>
	<path class="st0" d="M71.7,419c-11.3,0-21.2-8.1-23.2-19.6L30.9,295.3c-2.2-12.8,6.5-24.9,19.3-27.1l28.2-4.8
		c3.5-0.6,6.8,1.8,7.4,5.2l23.2,138c0.3,1.7-0.1,3.4-1.1,4.8s-2.5,2.3-4.1,2.6l-28.2,4.8C74.3,418.9,73,419,71.7,419z M74.2,277.1
		l-21.9,3.7c-5.8,1-9.8,6.5-8.8,12.4l17.6,104.1c1,5.8,6.5,9.7,12.4,8.8l21.9-3.7L74.2,277.1z"/>
</g>
<g>
	<path class="st0" d="M121.2,437.9c-4.8,0-9.5-1.5-13.6-4.4c-5.1-3.6-8.5-9.1-9.6-15.2l-26.5-157c-2.2-12.8,6.5-24.9,19.3-27.1
		l40.5-6.8c6.2-1,12.4,0.4,17.5,4s8.5,9.1,9.6,15.2l26.5,157c1,6.2-0.4,12.4-4,17.5s-9.1,8.5-15.2,9.6l-40.5,6.8
		C123.8,437.8,122.5,437.9,121.2,437.9z M135.2,239.8c-0.6,0-1.2,0-1.8,0.1l-40.5,6.8c-5.8,1-9.8,6.5-8.8,12.4l26.5,157
		c0.5,2.8,2,5.3,4.4,6.9c2.3,1.7,5.2,2.3,8,1.8l40.5-6.8l0,0c2.8-0.5,5.3-2,6.9-4.4c1.7-2.3,2.3-5.2,1.8-8l-26.5-157
		C144.9,243.5,140.3,239.8,135.2,239.8z"/>
</g>
<g>
	<path class="st0" d="M434,279c-0.3,0-0.6,0-0.9-0.1c-3.5-0.5-5.9-3.7-5.4-7.2c3.2-22.7,5-57.5,5-72.9
		c0-102.3-84.3-185.5-187.9-185.5S56.9,96.5,56.9,198.8c0,15.4,1.8,50.3,5,72.9c0.5,3.5-1.9,6.7-5.4,7.2s-6.7-1.9-7.2-5.4
		c-3.3-23.3-5.1-58.9-5.1-74.7C44,89.5,134,0.5,244.7,0.5s200.7,89,200.7,198.3c0,15.8-1.8,51.5-5.1,74.7
		C439.9,276.7,437.1,279,434,279z"/>
</g>
<g>
	<path class="st0" d="M417.7,419c-1.3,0-2.6-0.1-3.9-0.3l-28.2-4.8c-1.7-0.3-3.2-1.2-4.1-2.6c-1-1.4-1.4-3.1-1.1-4.8l23.3-137.9
		c0.6-3.5,3.9-5.8,7.4-5.2l28.2,4.8c12.8,2.2,21.4,14.3,19.3,27.1L441,399.4C438.9,410.9,429,419,417.7,419z M394,402.4l21.9,3.7
		c5.8,0.9,11.4-3,12.4-8.8l17.6-104.1c1-5.8-3-11.4-8.8-12.4l-21.9-3.7L394,402.4z"/>
</g>
<g>
	<path class="st0" d="M368.2,437.9c-1.3,0-2.6-0.1-4-0.3l-40.5-6.8c-6.2-1-11.6-4.4-15.2-9.6c-3.6-5.1-5.1-11.3-4-17.5l26.5-157
		c1-6.2,4.4-11.6,9.6-15.2s11.3-5.1,17.5-4l40.5,6.8c12.8,2.2,21.4,14.3,19.3,27.1l-26.5,157c-1,6.2-4.4,11.6-9.6,15.2
		C377.8,436.4,373.1,437.9,368.2,437.9z M354.2,239.8c-5.1,0-9.7,3.7-10.6,8.9l-26.5,157c-0.5,2.8,0.2,5.7,1.8,8
		c1.7,2.3,4.1,3.9,6.9,4.4l0,0l40.5,6.8c2.8,0.5,5.7-0.2,8-1.8c2.3-1.7,3.9-4.1,4.4-6.9l26.5-157c0.5-2.8-0.2-5.7-1.8-8
		c-1.7-2.3-4.1-3.9-6.9-4.4L356,240C355.4,239.8,354.8,239.8,354.2,239.8z"/>
</g>
<g>
	<path class="st0" d="M272.5,512.5h-55.6c-19.8,0-35.9-16.1-35.9-35.9v-3.4c0-19.8,16.1-35.9,35.9-35.9h55.6
		c19.8,0,35.9,16.1,35.9,35.9v3.4C308.4,496.4,292.3,512.5,272.5,512.5z M216.9,450.1c-12.7,0-23.1,10.4-23.1,23.1v3.4
		c0,12.7,10.4,23.1,23.1,23.1h55.6c12.7,0,23.1-10.4,23.1-23.1v-3.4c0-12.7-10.4-23.1-23.1-23.1H216.9z"/>
</g>
<g>
	<path class="st0" d="M413.5,481.3H304.7c-3.5,0-6.4-2.9-6.4-6.4s2.9-6.4,6.4-6.4h108.8c23.4,0,43.6-18.6,46.9-43.3l8-50.5
		c1.6-11.7-6.1-22.6-17-24.3l-7.5-0.9c-3.5-0.4-6-3.6-5.6-7.1s3.6-6,7.1-5.6l7.7,1c18,2.7,30.5,20.1,27.9,38.8l-8,50.5
		C468.9,457.9,443.3,481.3,413.5,481.3z"/>
</g>
</svg>
