<?xml version="1.0" encoding="utf-8"?>
<!-- Generator: Adobe Illustrator 24.3.0, SVG Export Plug-In . SVG Version: 6.00 Build 0)  -->
<svg version="1.1" id="Capa_1" xmlns="http://www.w3.org/2000/svg" xmlns:xlink="http://www.w3.org/1999/xlink" x="0px" y="0px"
	 viewBox="0 0 512 512" style="enable-background:new 0 0 512 512;" xml:space="preserve">
<style type="text/css">
	.st0{fill:#FFFFFF;}
</style>
<g>
	<g>
		<path class="st0" d="M478.8,511.6h-47.9c-18.2,0-33-12.6-33-28.1V103.8c0-0.9,0.2-1.8,0.5-2.6l41.3-93.7c0.3-0.7,0.7-1.2,1.2-1.8
			c3.4-3.7,8.5-5.8,13.9-5.8s10.5,2.1,13.9,5.8c0.5,0.5,0.9,1.1,1.2,1.8l41.3,93.7c0.4,0.8,0.5,1.7,0.5,2.6v379.7
			C511.8,499,497,511.6,478.8,511.6z M410.7,105.2v378.4c0,8.5,9.1,15.3,20.2,15.3h47.9c11.1,0,20.2-6.9,20.2-15.3V105.2L458.7,14
			c-2-1.4-5.8-1.4-7.8,0L410.7,105.2z"/>
	</g>
	<g>
		<path class="st0" d="M500.2,432.5h-90.6c-3.5,0-6.4-2.9-6.4-6.4s2.9-6.4,6.4-6.4h90.6c3.5,0,6.4,2.9,6.4,6.4
			S503.7,432.5,500.2,432.5z"/>
	</g>
	<g>
		<path class="st0" d="M500.2,113h-90.6c-3.5,0-6.4-2.9-6.4-6.4s2.9-6.4,6.4-6.4h90.6c3.5,0,6.4,2.9,6.4,6.4S503.7,113,500.2,113z"
			/>
	</g>
	<g>
		<path class="st0" d="M454.9,427.7c-3.5,0-6.4-2.9-6.4-6.4V109.6c0-3.5,2.9-6.4,6.4-6.4s6.4,2.9,6.4,6.4v311.7
			C461.3,424.8,458.4,427.7,454.9,427.7z"/>
	</g>
	<g>
		<path class="st0" d="M476.2,51h-42.7c-3.5,0-6.4-2.9-6.4-6.4s2.9-6.4,6.4-6.4h42.7c3.5,0,6.4,2.9,6.4,6.4S479.7,51,476.2,51z"/>
	</g>
</g>
<g>
	<path class="st0" d="M299.2,117.8H72.9c-3.5,0-6.4-2.9-6.4-6.4V83.2c0-24.1,19.6-43.7,43.7-43.7H126c5.9,0,11.2-3.3,13.3-8.3
		c8-18.7,26.3-30.8,46.6-30.8s38.6,12.1,46.7,30.8c2.2,5.1,7.4,8.3,13.3,8.3h15.8c24.1,0,43.7,19.6,43.7,43.7v28.3
		C305.6,115,302.7,117.8,299.2,117.8z M79.3,105h213.4V83.2c0-17-13.9-30.9-30.9-30.9H246c-11.1,0-20.9-6.3-25.1-16.1
		c-6-14-19.7-23-34.9-23s-28.9,9-34.9,23c-4.2,9.8-14,16.1-25.1,16.1h-15.8c-17,0-30.9,13.9-30.9,30.9V105z"/>
</g>
<g>
	<path class="st0" d="M186.1,74.1c-3.5,0-6.4-2.9-6.4-6.4V50.5c0-3.5,2.9-6.4,6.4-6.4s6.4,2.9,6.4,6.4v17.2
		C192.5,71.2,189.6,74.1,186.1,74.1z"/>
</g>
<g>
	<path class="st0" d="M337.4,512H34.7c-19.1,0-34.6-15.5-34.6-34.6V113.5C0.2,94.5,15.7,79,34.7,79h36.4c3.5,0,6.4,2.9,6.4,6.4
		s-2.9,6.4-6.4,6.4H34.7c-12,0-21.8,9.8-21.8,21.8v363.9c0,12,9.8,21.8,21.8,21.8h302.6c12,0,21.8-9.8,21.8-21.8v-364
		c0-12-9.8-21.8-21.8-21.8h-36.9c-3.5,0-6.4-2.9-6.4-6.4s2.9-6.4,6.4-6.4h36.9c19.1,0,34.6,15.5,34.6,34.6v363.9
		C371.9,496.5,356.4,512,337.4,512z"/>
</g>
<g>
	<path class="st0" d="M186.1,424.8c-70.5,0-127.8-57.3-127.8-127.8s57.3-127.8,127.8-127.8S313.9,226.5,313.9,297
		C313.9,367.4,256.5,424.8,186.1,424.8z M186.1,181.9c-63.4,0-115,51.6-115,115s51.6,115,115,115s115-51.6,115-115
		S249.5,181.9,186.1,181.9z"/>
</g>
<g>
	<path class="st0" d="M141.4,365.5c-1.3,0-2.7-0.4-3.8-1.2c-1.7-1.3-2.7-3.3-2.6-5.5l2.4-45.1l-28.5-35.1c-1.4-1.7-1.8-3.9-1.1-6
		c0.7-2.1,2.3-3.6,4.4-4.2l43.8-11.7l24.7-37.9c2.4-3.6,8.4-3.6,10.7,0l24.7,37.9l43.8,11.7c2.1,0.6,3.8,2.1,4.4,4.2
		c0.7,2.1,0.2,4.3-1.1,6l-28.5,35.1l2.4,45.1c0.1,2.2-0.9,4.2-2.6,5.5c-1.8,1.3-4,1.6-6,0.8l-42.3-16.2l-42.3,16.2
		C143,365.3,142.2,365.5,141.4,365.5z M186.1,335.6c0.8,0,1.5,0.1,2.3,0.4l35.4,13.6l-2-37.7c-0.1-1.6,0.4-3.1,1.4-4.4l23.9-29.3
		l-36.6-9.8c-1.5-0.4-2.8-1.4-3.7-2.7L186.1,234l-20.7,31.7c-0.9,1.3-2.2,2.3-3.7,2.7l-36.6,9.8l23.9,29.3c1,1.2,1.5,2.8,1.4,4.4
		l-2,37.7l35.4-13.6C184.5,335.8,185.3,335.6,186.1,335.6z"/>
</g>
</svg>
