<svg width="118" height="84" viewBox="0 0 118 84" fill="none" xmlns="http://www.w3.org/2000/svg">
<g clip-path="url(#clip0_55_1177)">
<path d="M101.6 33.0996H99.6V43.2996H101.6V33.0996Z" fill="white"/>
<path d="M27.5 71.0996H4.90002V73.0996H27.5V71.0996Z" fill="white"/>
<path d="M81.7 83.7004H34.8C32.1 83.7004 30 81.5004 30 78.9004V50.2004C30 47.5004 32.2 45.4004 34.8 45.4004H81.7C84.4 45.4004 86.5 47.6004 86.5 50.2004V78.9004C86.6 81.5004 84.4 83.7004 81.7 83.7004ZM34.8 47.3004C33.2 47.3004 32 48.6004 32 50.1004V78.8004C32 80.4004 33.3 81.6004 34.8 81.6004H81.7C83.3 81.6004 84.5 80.3004 84.5 78.8004V50.2004C84.5 48.6004 83.2 47.4004 81.7 47.4004H34.8V47.3004Z" fill="white"/>
<path d="M80.6 55.4004H36V57.4004H80.6V55.4004Z" fill="white"/>
<path d="M75 73.1992H63.7V75.1992H75V73.1992Z" fill="white"/>
<path d="M22 69H20V27.7L20.1 27.5C21.4 25 24.6 23 26 22.2V0L33.9 0.1V22.3C35.2 23 38.4 24.9 39.8 27.5L39.9 27.7V42.1H37.9V28.2C36.4 25.7 32.5 23.8 32.4 23.8L31.8 23.5V2.1L28 2V23.5L27.5 23.8C27.5 23.8 23.5 25.8 22 28.3V69Z" fill="white"/>
<path d="M48.5 40.7993C39.3 32.5993 38.5 18.4993 46.7 9.29928C54.9 0.0992818 69 -0.700718 78.2 7.49928C83.9 12.4993 86.6 20.0993 85.4 27.5993L83.4 27.2993C83.6 26.2993 83.6 25.1993 83.6 24.1993C83.6 12.9993 74.5 3.89928 63.3 3.79928C52.1 3.69928 43 12.8993 43 24.0993C43 29.8993 45.5 35.4993 49.8 39.2993L48.5 40.7993Z" fill="white"/>
<path d="M64.4 11.5996H62.4V36.7996H64.4V11.5996Z" fill="white"/>
<path d="M76 23.1992H50.8V25.1992H76V23.1992Z" fill="white"/>
<path d="M6.6 68.3004L0 29.4004H17.4V31.4004H2.4L8.6 67.9004L6.6 68.3004Z" fill="white"/>
<path d="M117.5 80.6996H93.2V78.6996H115.4L112.8 34.0996H78.7L78.3 40.2996L76.3 40.1996L76.8 32.0996H114.7L117.5 80.6996Z" fill="white"/>
<path d="M103.8 34.0994H87.7V27.9994C87.9 23.5994 91.6 20.0994 96 20.1994C100.2 20.2994 103.6 23.6994 103.8 27.9994V34.0994ZM89.7 32.0994H101.8V27.9994C101.7 24.6994 98.8 22.0994 95.5 22.1994C92.3 22.2994 89.8 24.8994 89.7 27.9994V32.0994Z" fill="white"/>
<path d="M105.6 52.3H95.6V38.5H105.6V52.3ZM97.6 50.3H103.6V40.6H97.6V50.3Z" fill="white"/>
</g>
<defs>
<clipPath id="clip0_55_1177">
<rect width="117.5" height="83.7" fill="white"/>
</clipPath>
</defs>
</svg>
