<svg width="78" height="79" viewBox="0 0 78 79" fill="none" xmlns="http://www.w3.org/2000/svg">
<g clip-path="url(#clip0_226_434)">
<path d="M71.0997 0H6.58307C2.94715 0 0 2.94715 0 6.58307V72.4169C0 76.0529 2.94715 79 6.58307 79H71.0997C74.7356 79 77.6828 76.0529 77.6828 72.4169V6.58307C77.6828 2.94715 74.7356 0 71.0997 0ZM75.0498 72.4169C75.0435 74.5959 73.2787 76.3607 71.0997 76.3671H6.58307C4.40405 76.3607 2.63926 74.5959 2.63291 72.4169V15.8006H75.0498V72.4169ZM75.0498 13.1677H2.63291V6.58466C2.63926 4.40564 4.40405 2.64085 6.58307 2.6345H71.0997C73.2787 2.64085 75.0435 4.40564 75.0498 6.58466V13.1677Z" fill="#242A34"/>
<path d="M60.7378 54.2738L62.9501 39.9094C63.0708 39.154 62.8549 38.3843 62.3582 37.8034C61.8567 37.2099 61.1203 36.8687 60.3442 36.8687H57.697C59.2031 28.2732 53.4549 20.0856 44.861 18.5795C36.2656 17.0734 28.078 22.8217 26.5719 31.4156C26.256 33.22 26.256 35.0642 26.5719 36.8687H22.4376L22.3852 36.6576C22.2694 34.5611 20.5347 32.9201 18.4351 32.9185H10.5348C9.08262 32.9233 7.90503 34.0993 7.90186 35.5514V38.1843C7.90662 39.6365 9.08262 40.8141 10.5348 40.8172H14.8134L19.7507 58.1319C19.8603 60.2348 21.5949 61.8821 23.7009 61.8837H24.2532C23.8882 62.7137 23.6993 63.6104 23.7009 64.5166C23.7009 68.1525 26.648 71.0997 30.284 71.0997C33.9199 71.0997 36.867 68.1525 36.867 64.5166C36.867 63.6104 36.6798 62.7137 36.3147 61.8837H45.3212C44.9562 62.7137 44.7674 63.6104 44.7689 64.5166C44.7689 68.1525 47.7161 71.0997 51.352 71.0997C54.9879 71.0997 57.9351 68.1525 57.9351 64.5166C57.9351 63.6104 57.7478 62.7137 57.3828 61.8837H59.2523C61.4345 61.8853 63.2041 60.1189 63.2057 57.9367C63.2057 56.3274 62.2312 54.8785 60.7394 54.2738H60.7378ZM42.1329 21.0664C49.4047 21.0664 55.299 26.9623 55.299 34.2326C55.299 41.5044 49.4031 47.3987 42.1329 47.3987C34.8626 47.3987 28.9667 41.5044 28.9667 34.2326C28.9778 26.9655 34.8674 21.0776 42.1329 21.0664ZM27.2543 39.5C30.1491 47.7177 39.1587 52.0313 47.3749 49.1349C51.8805 47.5479 55.4228 44.004 57.0098 39.5H60.341L58.116 53.9834H27.3194L23.1851 39.5H27.2543ZM30.2824 68.4668C28.1002 68.4668 26.3322 66.6988 26.3322 64.5166C26.3322 62.3344 28.1002 60.5664 30.2824 60.5664C32.4646 60.5664 34.2325 62.3344 34.2325 64.5166C34.2262 66.6956 32.4614 68.4604 30.2824 68.4668ZM51.3488 68.4668C49.1666 68.4668 47.3987 66.6988 47.3987 64.5166C47.3987 62.3344 49.1666 60.5664 51.3488 60.5664C53.531 60.5664 55.299 62.3344 55.299 64.5166C55.2927 66.6956 53.5279 68.4604 51.3488 68.4668ZM59.2492 59.2508H55.2593C52.9486 57.4955 49.7507 57.4955 47.4384 59.2508H34.1929C31.8821 57.4955 28.6842 57.4955 26.3719 59.2508H23.6993C22.9724 59.2508 22.3821 58.662 22.3821 57.9335C22.3852 57.8129 22.3678 57.6923 22.3297 57.578L17.0639 39.1445C16.9052 38.5779 16.3894 38.1843 15.8006 38.1843H10.5348V35.5498H18.4335C19.1604 35.5498 19.7507 36.1386 19.7507 36.8671C19.7492 36.9925 19.7666 37.1162 19.8031 37.2353L25.0689 55.6561C25.2276 56.2227 25.7434 56.6163 26.3322 56.6163H59.2492C59.9776 56.6163 60.5664 57.2051 60.5664 57.9335C60.5664 58.662 59.9776 59.2508 59.2492 59.2508Z" fill="#242A34"/>
<path d="M30.2826 63.1992C31.0094 63.1992 31.5998 63.788 31.5998 64.5165C31.5998 65.2449 31.011 65.8337 30.2826 65.8337C29.5541 65.8337 28.9653 65.2449 28.9653 64.5165C28.9653 63.788 29.5541 63.1992 30.2826 63.1992Z" fill="#242A34"/>
<path d="M51.3506 63.1992C52.0774 63.1992 52.6662 63.788 52.6662 64.5165C52.6662 65.2449 52.0774 65.8337 51.349 65.8337C50.6205 65.8337 50.0317 65.2449 50.0317 64.5165C50.0317 63.7896 50.6221 63.1992 51.349 63.1992H51.3506Z" fill="#242A34"/>
<path d="M9.21582 6.58447H11.8487V9.21738H9.21582V6.58447Z" fill="#242A34"/>
<path d="M14.4834 6.58447H17.1163V9.21738H14.4834V6.58447Z" fill="#242A34"/>
<path d="M19.749 6.58447H22.3819V9.21738H19.749V6.58447Z" fill="#242A34"/>
<path d="M40.2397 40.4841C39.762 40.4841 39.3049 40.2889 38.9764 39.9429L35.2135 35.9944C34.5486 35.2961 34.5755 34.1915 35.2738 33.5265C35.9721 32.8615 37.0767 32.8885 37.7417 33.5868L40.2254 36.1943L47.2719 28.6352C47.9289 27.9306 49.0335 27.8909 49.7398 28.5495C50.4444 29.2066 50.4841 30.3112 49.8255 31.0174L41.5157 39.9318C41.1872 40.2842 40.7285 40.4841 40.2476 40.4873H40.2381L40.2397 40.4841Z" fill="#242A34"/>
</g>
<defs>
<clipPath id="clip0_226_434">
<rect width="77.6828" height="79" fill="white"/>
</clipPath>
</defs>
</svg>
