<svg width="80" height="79" viewBox="0 0 80 79" fill="none" xmlns="http://www.w3.org/2000/svg">
<g clip-path="url(#clip0_226_446)">
<path d="M34.0817 25.6425H37.7227V29.2835C37.7227 30.2892 38.5384 31.105 39.5441 31.105C40.5499 31.105 41.3656 30.2892 41.3656 29.2835V25.6425H45.0066C46.0123 25.6425 46.828 24.8268 46.828 23.8211C46.828 22.8153 46.0123 22.0015 45.0066 22.0015H41.3656V18.3605C41.3656 17.3548 40.5499 16.541 39.5441 16.541C38.5384 16.541 37.7227 17.3567 37.7227 18.3605V22.0015H34.0817C33.076 22.0015 32.2603 22.8173 32.2603 23.823C32.2603 24.8287 33.076 25.6444 34.0817 25.6444V25.6425Z" fill="#242A34"/>
<path d="M14.9093 79C14.5216 79 14.1435 78.8426 13.869 78.5682C13.5945 78.2937 13.4372 77.9156 13.4372 77.5279V70.6547C13.4372 70.3764 13.2875 70.1192 13.0437 69.9849L9.95356 68.2613C6.93636 66.58 4.41819 64.1175 2.66967 61.1406C0.92115 58.1598 -0.000132503 54.7607 0.00178684 51.3078C0.00178684 51.3078 0.00178684 33.1777 0.00178684 33.172C-0.0557933 30.9974 0.982569 28.9686 2.77715 27.7422C3.84238 27.0147 5.08612 26.6309 6.37591 26.6309C7.2281 26.6309 8.05917 26.7978 8.8461 27.1299C10.8403 27.9686 12.2587 29.7363 12.6483 31.863C12.6502 31.8783 12.6522 31.8956 12.656 31.911L14.8959 43.1065C14.9458 43.3598 15.1204 43.5709 15.3603 43.6669C15.4525 43.7053 15.5504 43.7226 15.6482 43.7226C15.8018 43.7226 15.9534 43.6765 16.0839 43.5863C17.3142 42.738 18.7537 42.2907 20.247 42.2907C20.4293 42.2907 20.6155 42.2984 20.7978 42.3119C22.4581 42.4366 24.0415 43.1295 25.2584 44.2677L30.7803 49.8107C33.8589 52.9104 34.2965 54.9296 34.2965 60.7567V77.5279C34.2965 77.9156 34.1391 78.2937 33.8647 78.5682C33.5902 78.8426 33.2121 79 32.8244 79H14.9112H14.9093ZM15.6367 68.0598C16.0935 68.3208 16.3795 68.8083 16.3795 69.3362V75.2919C16.3795 75.716 16.7231 76.0596 17.1472 76.0596H30.4041C30.8283 76.0596 31.1719 75.716 31.1719 75.2919V60.8258C31.1719 55.4497 30.8225 54.2924 28.5059 51.9757L22.9763 46.4231C22.1797 45.6573 21.1471 45.2427 20.0589 45.2427C18.9706 45.2427 17.938 45.6573 17.153 46.4116C16.3642 47.2023 15.9342 48.2369 15.9342 49.3386C15.9342 50.4403 16.3622 51.4748 17.1415 52.254L22.4926 57.6052C23.0703 58.1829 23.0703 59.1214 22.4926 59.6992C22.2124 59.9794 21.8419 60.1329 21.4466 60.1329C21.0512 60.1329 20.6788 59.9794 20.4005 59.6992L15.0494 54.348C14.7404 54.0333 14.4563 53.682 14.2087 53.3058C14.1512 53.2195 14.1013 53.1312 14.0609 53.0429C14.0475 53.0122 14.0302 52.9834 14.011 52.9546C13.8441 52.6955 13.6944 52.4249 13.5658 52.1466L13.4007 51.6494C13.3661 51.5362 13.3162 51.4153 13.274 51.3097C13.2337 51.2138 13.1761 51.0679 13.1723 51.018C13.1723 51.0045 13.1723 50.993 13.1723 50.9796C13.1627 50.7915 13.1627 50.5996 13.1723 50.4096C13.1723 50.3961 13.1723 50.3827 13.1723 50.3692V49.5862C13.1723 49.5363 13.1665 49.4844 13.1569 49.4345L9.77506 32.5962C9.42382 31.0127 8.00543 29.8745 6.40086 29.8745C6.3049 29.8745 6.20701 29.8784 6.10912 29.8861C4.39323 30.03 3.03626 31.4369 2.94989 33.1566C2.94989 33.17 2.94989 33.1816 2.94989 33.195V51.3097C2.92494 54.2578 3.69651 57.1695 5.184 59.7222C6.67149 62.2749 8.82307 64.3843 11.4065 65.818L15.6425 68.0598H15.6367Z" fill="#242A34"/>
<path d="M46.2597 79C45.872 79 45.4939 78.8426 45.2194 78.5681C44.945 78.2937 44.7876 77.9156 44.7876 77.5279V60.7567C44.7876 54.9277 45.2252 52.9123 48.3019 49.8356L53.8258 44.2907C55.0407 43.1506 56.6242 42.4539 58.2844 42.3291C58.4667 42.3157 58.651 42.308 58.8333 42.308C60.3285 42.308 61.768 42.7571 62.9964 43.6093C63.1269 43.6995 63.2804 43.7456 63.434 43.7456C63.5319 43.7456 63.6278 43.7264 63.7219 43.6899C63.9618 43.594 64.1365 43.3828 64.1864 43.1295L66.4262 31.934C66.7103 30.4849 67.4915 29.174 68.6315 28.2392C69.7659 27.3084 71.1977 26.7959 72.6641 26.7959C74.3876 26.8017 75.9941 27.4696 77.2014 28.6769C78.4087 29.8841 79.0766 31.4887 79.0823 33.1969V51.3097C79.0843 54.7645 78.163 58.1637 76.4145 61.1425C74.6717 64.1098 72.1631 66.5665 69.1594 68.2479C69.1498 68.2536 66.0404 69.9868 66.0404 69.9868C65.7967 70.1231 65.647 70.3783 65.647 70.6566V77.5317C65.647 77.9194 65.4896 78.2975 65.2151 78.572C64.9407 78.8465 64.5625 79.0038 64.1748 79.0038H46.2616L46.2597 79ZM55.9255 46.352L50.394 51.9047C48.0793 54.2213 47.7299 55.3787 47.7299 60.7548V75.288C47.7299 75.7122 48.0735 76.0557 48.4977 76.0557H61.9331C62.3572 76.0557 62.7008 75.7122 62.7008 75.288V69.2191C62.7008 68.6989 62.981 68.2152 63.4282 67.9523L67.6661 65.7105C70.2457 64.2767 72.3858 62.1866 73.8713 59.6569C75.3569 57.1272 76.14 54.2386 76.1362 51.3039V33.1892C76.1362 33.1758 76.1362 33.1643 76.1362 33.1508C76.0498 31.4311 74.6909 30.0261 72.9769 29.8822C72.879 29.8745 72.7812 29.8707 72.6833 29.8707C71.0787 29.8707 69.6603 31.0088 69.3129 32.5769L65.7295 49.3769C65.718 49.4287 65.7122 49.4825 65.7122 49.5362V50.2521C65.7122 50.2656 65.7122 50.279 65.7122 50.2924C65.7218 50.4652 65.7218 50.6379 65.7161 50.8107C65.6988 50.8702 65.6719 50.9412 65.6431 51.0141C65.576 51.1926 65.4934 51.4057 65.4704 51.6609C65.4282 51.7934 65.3783 51.9277 65.3226 52.0582C65.2113 52.3097 65.0712 52.5688 64.9138 52.8164C64.8946 52.8471 64.8754 52.8797 64.86 52.9143C64.8082 53.0294 64.7506 53.1388 64.6911 53.2367C64.4378 53.6052 64.1518 53.9584 63.8447 54.2847L58.5013 59.6281C58.221 59.9083 57.8506 60.0619 57.4533 60.0619C57.056 60.0619 56.6856 59.9083 56.4054 59.6281C56.1251 59.3479 55.9716 58.9775 55.9716 58.5802C55.9716 58.1828 56.1251 57.8124 56.4054 57.5322C56.413 57.5245 61.7565 52.1792 61.7565 52.1792C62.5357 51.3999 62.9637 50.3654 62.9637 49.2637C62.9637 48.162 62.5357 47.1275 61.7565 46.3482C60.9599 45.5824 59.9293 45.1678 58.8391 45.1678C57.7489 45.1678 56.7393 45.5747 55.9581 46.3156C55.9466 46.3271 55.9351 46.3367 55.9217 46.3482L55.9255 46.352Z" fill="#242A34"/>
<path d="M39.5401 47.6438C39.1524 47.6438 38.7858 47.494 38.5094 47.2234L15.4466 24.5196C12.7442 21.8536 11.1934 18.1474 11.1934 14.3528C11.1934 10.5583 12.7442 6.85012 15.4466 4.18416C18.2028 1.48557 21.8438 0 25.7016 0C29.5595 0 33.2024 1.48557 35.9586 4.18416L39.0084 7.12267C39.1562 7.26662 39.3481 7.33763 39.5401 7.33763C39.732 7.33763 39.9239 7.26662 40.0737 7.12267L43.1196 4.188C45.8777 1.48557 49.5206 0 53.3785 0C57.2364 0 60.8774 1.48557 63.6335 4.18416C66.3129 6.84244 67.8522 10.5372 67.8522 14.3164C67.8522 18.0955 66.3129 21.7903 63.6297 24.4524L40.5688 47.2234C40.2944 47.4921 39.9278 47.6418 39.5401 47.6418V47.6438ZM17.5041 6.24745C15.3698 8.35488 14.1453 11.2819 14.1453 14.2818C14.1453 17.2817 15.3794 20.2318 17.5291 22.343L39.0007 43.569C39.1505 43.7168 39.3462 43.7916 39.5401 43.7916C39.7339 43.7916 39.9297 43.7168 40.0794 43.569L61.553 22.3411C63.7026 20.2337 64.9349 17.2952 64.9349 14.2818C64.9349 11.2684 63.7007 8.32993 61.5511 6.22058C59.3515 4.06516 56.4456 2.87901 53.367 2.87901C50.2884 2.87901 47.3806 4.06516 45.1829 6.22058C45.1772 6.22634 40.5727 10.6965 40.5727 10.6965C40.2925 10.9709 39.9278 11.1187 39.5401 11.1187C39.1524 11.1187 38.8011 10.9748 38.5267 10.7138C38.5209 10.708 33.8953 6.21674 33.8953 6.21674C31.7015 4.0594 28.7937 2.86941 25.7132 2.86941C22.6326 2.86941 19.7248 4.0594 17.5272 6.22058C17.5195 6.22826 17.5099 6.23785 17.5022 6.24553L17.5041 6.24745Z" fill="#242A34"/>
</g>
<defs>
<clipPath id="clip0_226_446">
<rect width="79.0806" height="79" fill="white"/>
</clipPath>
</defs>
</svg>
