<svg width="79" height="79" viewBox="0 0 79 79" fill="none" xmlns="http://www.w3.org/2000/svg">
<g clip-path="url(#clip0_226_464)">
<path d="M49.375 28.2143H29.625C28.8447 28.2143 28.2143 28.8463 28.2143 29.625V49.375C28.2143 50.1537 28.8447 50.7857 29.625 50.7857H49.375C50.1553 50.7857 50.7857 50.1537 50.7857 49.375V29.625C50.7857 28.8463 50.1553 28.2143 49.375 28.2143ZM47.9643 47.9643H31.0357V31.0357H47.9643V47.9643ZM74.7679 67.9142V39.5C74.7679 38.7213 74.1375 38.0893 73.3571 38.0893H59.25V21.1607C59.25 20.382 58.6196 19.75 57.8393 19.75H50.7857V15.5179H66.3036V24.1837C63.8755 24.8141 62.0714 27.0051 62.0714 29.6266C62.0714 32.7382 64.6027 35.2695 67.7143 35.2695C70.8259 35.2695 73.3571 32.7382 73.3571 29.6266C73.3571 27.0051 71.553 24.8141 69.125 24.1837V14.1071C69.125 13.3284 68.4946 12.6964 67.7143 12.6964H49.375C48.5947 12.6964 47.9643 13.3284 47.9643 14.1071V19.75H40.9107V7.05357H67.9158C68.5462 9.48 70.7356 11.2857 73.3571 11.2857C76.4688 11.2857 79 8.75449 79 5.64286C79 2.53122 76.4688 0 73.3571 0C70.734 0 68.5446 1.80571 67.9142 4.23214H39.5C38.7197 4.23214 38.0893 4.86414 38.0893 5.64286V19.75H21.1607C20.3804 19.75 19.75 20.382 19.75 21.1607V28.2143H15.5179V12.6964H24.1821C24.8124 15.1229 27.0035 16.9286 29.625 16.9286C32.7366 16.9286 35.2679 14.3973 35.2679 11.2857C35.2679 8.17408 32.7366 5.64286 29.625 5.64286C27.0035 5.64286 24.8124 7.44857 24.1821 9.875H14.1071C13.3268 9.875 12.6964 10.507 12.6964 11.2857V29.625C12.6964 30.4037 13.3268 31.0357 14.1071 31.0357H19.75V38.0893H7.05357V11.0858C9.48161 10.4554 11.2857 8.26437 11.2857 5.64286C11.2857 2.53122 8.75449 0 5.64286 0C2.53122 0 0 2.53122 0 5.64286C0 8.26437 1.8041 10.4554 4.23214 11.0858V39.5C4.23214 40.2787 4.86253 40.9107 5.64286 40.9107H19.75V57.8393C19.75 58.618 20.3804 59.25 21.1607 59.25H28.2143V63.4821H12.6964V54.8179C15.1245 54.1876 16.9286 51.9965 16.9286 49.375C16.9286 46.2634 14.3973 43.7321 11.2857 43.7321C8.17408 43.7321 5.64286 46.2634 5.64286 49.375C5.64286 51.9965 7.44696 54.1876 9.875 54.8179V64.8929C9.875 65.6716 10.5054 66.3036 11.2857 66.3036H29.625C30.4053 66.3036 31.0357 65.6716 31.0357 64.8929V59.25H38.0893V71.9464H11.0858C10.4554 69.52 8.26437 67.7143 5.64286 67.7143C2.53122 67.7143 0 70.2455 0 73.3571C0 76.4688 2.53122 79 5.64286 79C8.26437 79 10.4554 77.1943 11.0858 74.7679H39.5C40.2803 74.7679 40.9107 74.1359 40.9107 73.3571V59.25H57.8393C58.6196 59.25 59.25 58.618 59.25 57.8393V50.7857H63.4821V66.3036H54.8179C54.1876 63.8771 51.9965 62.0714 49.375 62.0714C46.2634 62.0714 43.7321 64.6027 43.7321 67.7143C43.7321 70.8259 46.2634 73.3571 49.375 73.3571C51.9965 73.3571 54.1876 71.5514 54.8179 69.125H64.8929C65.6732 69.125 66.3036 68.493 66.3036 67.7143V49.375C66.3036 48.5963 65.6732 47.9643 64.8929 47.9643H59.25V40.9107H71.9464V67.9142C69.5184 68.5446 67.7143 70.7356 67.7143 73.3571C67.7143 76.4688 70.2455 79 73.3571 79C76.4688 79 79 76.4688 79 73.3571C79 70.7356 77.1959 68.5446 74.7679 67.9142ZM70.5357 29.625C70.5357 31.1808 69.2701 32.4464 67.7143 32.4464C66.1585 32.4464 64.8929 31.1808 64.8929 29.625C64.8929 28.0692 66.1585 26.8036 67.7143 26.8036C69.2701 26.8036 70.5357 28.0692 70.5357 29.625ZM73.3571 2.82143C74.913 2.82143 76.1786 4.08704 76.1786 5.64286C76.1786 7.19867 74.913 8.46429 73.3571 8.46429C71.8013 8.46429 70.5357 7.19867 70.5357 5.64286C70.5357 4.08704 71.8013 2.82143 73.3571 2.82143ZM29.625 8.46429C31.1808 8.46429 32.4464 9.7299 32.4464 11.2857C32.4464 12.8415 31.1808 14.1071 29.625 14.1071C28.0692 14.1071 26.8036 12.8415 26.8036 11.2857C26.8036 9.7299 28.0692 8.46429 29.625 8.46429ZM2.82143 5.64286C2.82143 4.08704 4.08704 2.82143 5.64286 2.82143C7.19867 2.82143 8.46429 4.08704 8.46429 5.64286C8.46429 7.19867 7.19867 8.46429 5.64286 8.46429C4.08704 8.46429 2.82143 7.19867 2.82143 5.64286ZM8.46429 49.375C8.46429 47.8192 9.7299 46.5536 11.2857 46.5536C12.8415 46.5536 14.1071 47.8192 14.1071 49.375C14.1071 50.9308 12.8415 52.1964 11.2857 52.1964C9.7299 52.1964 8.46429 50.9308 8.46429 49.375ZM5.64286 76.1786C4.08704 76.1786 2.82143 74.913 2.82143 73.3571C2.82143 71.8013 4.08704 70.5357 5.64286 70.5357C7.19867 70.5357 8.46429 71.8013 8.46429 73.3571C8.46429 74.913 7.19867 76.1786 5.64286 76.1786ZM49.375 70.5357C47.8192 70.5357 46.5536 69.2701 46.5536 67.7143C46.5536 66.1585 47.8192 64.8929 49.375 64.8929C50.9308 64.8929 52.1964 66.1585 52.1964 67.7143C52.1964 69.2701 50.9308 70.5357 49.375 70.5357ZM56.4286 56.4286H22.5714V22.5714H56.427V56.4286H56.4286ZM73.3588 76.1786C71.8029 76.1786 70.5373 74.913 70.5373 73.3571C70.5373 71.8013 71.8029 70.5357 73.3588 70.5357C74.9146 70.5357 76.1802 71.8013 76.1802 73.3571C76.1802 74.913 74.9146 76.1786 73.3588 76.1786Z" fill="#242A34"/>
</g>
<defs>
<clipPath id="clip0_226_464">
<rect width="79" height="79" fill="white"/>
</clipPath>
</defs>
</svg>
