<svg width="79" height="79" viewBox="0 0 79 79" fill="none" xmlns="http://www.w3.org/2000/svg">
<g clip-path="url(#clip0_226_488)">
<path d="M1.31667 18.4333C1.66577 18.4333 2.00133 18.2949 2.24811 18.0481C2.4949 17.8013 2.63333 17.4658 2.63333 17.1167C2.63785 13.2765 4.16518 9.59587 6.87977 6.87977C9.59587 4.16518 13.2765 2.63785 17.1167 2.63333C17.8435 2.63333 18.4333 2.04347 18.4333 1.31667C18.4333 0.589867 17.8435 0 17.1167 0C12.5783 0.00601905 8.22804 1.81023 5.01989 5.01838C1.81023 8.22804 0.00601905 12.5783 0 17.1167C0 17.4658 0.138438 17.8013 0.385219 18.0481C0.632 18.2949 0.967562 18.4333 1.31667 18.4333Z" fill="#242A34"/>
<path d="M17.1165 13.1665C17.8433 13.1665 18.4332 12.5767 18.4332 11.8499C18.4332 11.1231 17.8433 10.5332 17.1165 10.5332C15.371 10.5362 13.6977 11.2299 12.4638 12.4638C11.2299 13.6977 10.5362 15.371 10.5332 17.1165C10.5332 17.8433 11.1231 18.4332 11.8499 18.4332C12.5767 18.4332 13.1665 17.8433 13.1665 17.1165C13.1665 16.0692 13.5834 15.064 14.3237 14.3237C15.064 13.5834 16.0692 13.1665 17.1165 13.1665Z" fill="#242A34"/>
<path d="M7.89993 17.1166C7.90294 14.6729 8.87502 12.33 10.6025 10.6025C12.33 8.87502 14.6729 7.90294 17.1166 7.89993C17.8434 7.89993 18.4333 7.31007 18.4333 6.58327C18.4333 5.85647 17.8434 5.2666 17.1166 5.2666C13.9747 5.26961 10.9621 6.52007 8.7411 8.7411C6.52007 10.9636 5.26961 13.9747 5.2666 17.1166C5.2666 17.8434 5.85647 18.4333 6.58327 18.4333C7.31007 18.4333 7.89993 17.8434 7.89993 17.1166Z" fill="#242A34"/>
<path d="M65.8333 75.0498H73.7333C74.4601 75.0498 75.0499 74.46 75.0499 73.7332C75.0499 73.0064 74.4601 72.4165 73.7333 72.4165H65.8333C65.1065 72.4165 64.5166 73.0064 64.5166 73.7332C64.5166 74.46 65.1065 75.0498 65.8333 75.0498Z" fill="#242A34"/>
<path d="M60.5667 75.0498H61.8833C62.6101 75.0498 63.2 74.46 63.2 73.7332C63.2 73.0064 62.6101 72.4165 61.8833 72.4165H60.5667C59.8399 72.4165 59.25 73.0064 59.25 73.7332C59.25 74.46 59.8399 75.0498 60.5667 75.0498Z" fill="#242A34"/>
<path d="M61.8833 64.5166H60.5667C59.8399 64.5166 59.25 65.1065 59.25 65.8333C59.25 66.5601 59.8399 67.1499 60.5667 67.1499H61.8833C62.6101 67.1499 63.2 66.5601 63.2 65.8333C63.2 65.1065 62.6101 64.5166 61.8833 64.5166Z" fill="#242A34"/>
<path d="M73.7333 64.5166H65.8333C65.1065 64.5166 64.5166 65.1065 64.5166 65.8333C64.5166 66.5601 65.1065 67.1499 65.8333 67.1499H73.7333C74.4601 67.1499 75.0499 66.5601 75.0499 65.8333C75.0499 65.1065 74.4601 64.5166 73.7333 64.5166Z" fill="#242A34"/>
<path d="M77.6831 60.5669H56.6165C55.8897 60.5669 55.2998 61.1568 55.2998 61.8836V77.6836C55.2998 78.0327 55.4382 78.3682 55.685 78.615C55.9318 78.8618 56.2674 79.0002 56.6165 79.0002H77.6831C78.0322 79.0002 78.3678 78.8618 78.6146 78.615C78.8614 78.3682 78.9998 78.0327 78.9998 77.6836V61.8836C78.9998 61.5345 78.8614 61.1989 78.6146 60.9521C78.3678 60.7053 78.0322 60.5669 77.6831 60.5669ZM76.3665 76.3669H57.9331V71.1002H76.3665V76.3669ZM76.3665 68.4669H57.9331V63.2002H76.3665V68.4669Z" fill="#242A34"/>
<path d="M39.4998 63.1998C45.7852 63.1998 51.8133 60.7034 56.2583 56.2583C60.7034 51.8133 63.1998 45.7852 63.1998 39.4998C63.1998 33.2144 60.7034 27.1863 56.2583 22.7413C51.8133 18.2962 45.7852 15.7998 39.4998 15.7998C33.2144 15.7998 27.1863 18.2962 22.7413 22.7413C18.2962 27.1863 15.7998 33.2144 15.7998 39.4998C15.8073 45.7837 18.3067 51.8073 22.7488 56.2508C27.1909 60.6944 33.2159 63.1938 39.4998 63.1998ZM38.1831 47.4434C35.0577 47.5322 31.9564 48.0243 28.9559 48.9061C28.2051 46.2712 27.7807 43.5536 27.6889 40.8165H38.1831V47.4434ZM38.1831 50.0768V60.422C34.7538 59.7103 31.7172 56.2749 29.7956 51.3995C32.5252 50.608 35.3421 50.1626 38.1831 50.0768ZM40.8165 60.4235V50.0768C43.656 50.161 46.4744 50.6034 49.204 51.3934C47.2824 56.2734 44.2398 59.7103 40.8165 60.422V60.4235ZM40.8165 47.448V40.8195H51.3107C51.2189 43.5581 50.7946 46.2742 50.0437 48.9091C47.0432 48.0273 43.9419 47.5352 40.8165 47.4465V47.448ZM53.944 40.821H60.5003C60.258 44.786 58.8902 48.6006 56.5593 51.8163C55.2953 51.0263 53.9621 50.3506 52.5762 49.8014C53.4008 46.8761 53.8613 43.8606 53.944 40.821ZM53.944 38.1877C53.8613 35.1495 53.4008 32.134 52.5762 29.2072C53.9621 28.6565 55.2953 27.9824 56.5593 27.1909C58.8917 30.408 60.258 34.2211 60.5003 38.1861H53.944V38.1877ZM51.3107 38.1877H40.8165V31.5607C43.9419 31.4719 47.0432 30.9798 50.0437 30.0981C50.7946 32.7329 51.2189 35.4505 51.3107 38.1877ZM40.8165 28.9289V18.5836C44.2398 19.2954 47.2824 22.7307 49.204 27.6062C46.4744 28.3977 43.6575 28.8416 40.8165 28.9273V28.9289ZM38.1831 18.5836V28.9289C35.3437 28.8446 32.5252 28.4022 29.7956 27.6122C31.7172 22.7322 34.7598 19.2954 38.1831 18.5836ZM38.1831 31.5592V38.1861H27.6889C27.7807 35.4475 28.2051 32.7314 28.9559 30.0965C31.9564 30.9783 35.0577 31.4704 38.1831 31.5592ZM25.0556 38.1861H18.4993C18.7416 34.2211 20.1094 30.4065 22.4403 27.1909C23.7043 27.9809 25.0375 28.6565 26.4234 29.2072C25.5988 32.1325 25.1384 35.148 25.0556 38.1877V38.1861ZM25.0556 40.8195C25.1384 43.8576 25.5988 46.8731 26.4234 49.7999C25.0375 50.3506 23.7043 51.0248 22.4403 51.8148C20.1079 48.5976 18.7416 44.7845 18.4993 40.8195H25.0556ZM24.1257 53.8537C25.1263 53.2533 26.1721 52.7327 27.2541 52.2963C28.1223 54.6392 29.3773 56.8196 30.9678 58.7487C28.3826 57.5931 26.0563 55.9288 24.1272 53.8552L24.1257 53.8537ZM48.0288 58.7427C49.6178 56.8151 50.8728 54.6347 51.7425 52.2903C52.826 52.7282 53.8718 53.2518 54.8725 53.8537C52.9434 55.9273 50.6155 57.5916 48.0288 58.7472V58.7412V58.7427ZM54.8755 25.1399C53.8733 25.7433 52.8275 26.2684 51.7441 26.7078C50.8758 24.3649 49.6208 22.1845 48.0303 20.2554C50.6155 21.4111 52.9418 23.0753 54.8709 25.1489L54.874 25.1384L54.8755 25.1399ZM30.9693 20.2569C29.3803 22.1845 28.1253 24.3649 27.2556 26.7093C26.1736 26.2729 25.1263 25.7523 24.1257 25.1519C26.0548 23.0783 28.3826 21.4141 30.9693 20.2584V20.2569Z" fill="#242A34"/>
<path d="M72.4168 5.26685C72.2588 5.26685 72.1143 5.26685 71.9684 5.28039C71.2401 3.20984 69.6842 1.53655 67.6723 0.65927C65.6604 -0.216501 63.3732 -0.216501 61.3613 0.65927C59.3495 1.53504 57.7935 3.20984 57.0652 5.28039C56.9208 5.26685 56.7748 5.26685 56.6168 5.26685C54.2649 5.26685 52.092 6.52182 50.9153 8.55927C49.7385 10.5967 49.7385 13.1052 50.9153 15.1426C52.0905 17.18 54.2649 18.435 56.6168 18.435H72.4168C74.7687 18.435 76.9416 17.18 78.1184 15.1426C79.2951 13.1052 79.2951 10.5967 78.1184 8.55927C76.9431 6.52333 74.7687 5.26685 72.4168 5.26685ZM72.4168 15.8002H56.6168C55.2053 15.8002 53.9022 15.0478 53.1965 13.8259C52.4907 12.6041 52.4907 11.0978 53.1965 9.87594C53.9022 8.65407 55.2068 7.90169 56.6168 7.90169C56.9734 7.90169 57.3271 7.94984 57.6701 8.04615C58.0298 8.15148 58.418 8.10032 58.737 7.90169C59.056 7.70156 59.2757 7.37653 59.3434 7.00636C59.6218 5.36316 60.6646 3.95018 62.1513 3.1978C63.6395 2.44693 65.3956 2.44693 66.8838 3.1978C68.372 3.95018 69.4148 5.36316 69.6917 7.00636C69.7594 7.37653 69.9791 7.70156 70.2981 7.90169C70.6171 8.10032 71.0053 8.15148 71.365 8.04615C71.7081 7.94984 72.0617 7.90169 72.4183 7.90169C73.8298 7.90169 75.1329 8.65407 75.8386 9.87594C76.5444 11.0978 76.5444 12.6041 75.8386 13.8259C75.1329 15.0478 73.8298 15.8002 72.4183 15.8002H72.4168Z" fill="#242A34"/>
<path d="M23.739 13.4227C23.9707 13.4227 24.1979 13.361 24.3981 13.2451C30.8941 9.51935 38.5368 8.32306 45.859 9.8835C46.5707 10.0355 47.2705 9.58255 47.4224 8.87079C47.5744 8.15904 47.1215 7.45933 46.4097 7.30735C38.4495 5.61148 30.1433 6.9131 23.0829 10.9639C22.5668 11.2619 22.3155 11.8698 22.469 12.4446C22.624 13.0209 23.1446 13.4212 23.7405 13.4212H23.739V13.4227Z" fill="#242A34"/>
<path d="M65.1936 57.9485C65.8015 58.3473 66.6156 58.1802 67.0159 57.5723C70.5039 52.256 72.3804 46.0428 72.4165 39.6837C72.4526 33.3246 70.6469 27.0904 67.2175 21.7349C66.8248 21.1225 66.0092 20.9449 65.3968 21.3377C64.7843 21.7304 64.6068 22.546 64.9995 23.1584C68.1535 28.085 69.8147 33.8197 69.7816 39.6687C69.75 45.5192 68.0256 51.2343 64.8174 56.1247C64.4172 56.7327 64.5857 57.5482 65.1921 57.9485H65.1936Z" fill="#242A34"/>
<path d="M13.6018 21.3388C12.9908 20.9446 12.1753 21.1221 11.7825 21.7331C8.5217 26.8267 6.72502 32.7209 6.59109 38.767C6.45717 44.8146 7.98902 50.781 11.0211 56.0146C11.1851 56.3351 11.4756 56.5758 11.8216 56.6782C12.1677 56.7805 12.5409 56.7353 12.8539 56.5548C13.1654 56.3742 13.3911 56.0732 13.4739 55.7211C13.5581 55.3705 13.4949 55.0004 13.2978 54.6979C10.5095 49.8827 9.09953 44.3933 9.22443 38.8302C9.34782 33.2671 11 27.8454 14.0005 23.1596C14.1901 22.8647 14.2548 22.508 14.1811 22.1649C14.1059 21.8234 13.8982 21.5239 13.6033 21.3358L13.6018 21.3388Z" fill="#242A34"/>
<path d="M50.8566 67.5835C43.5675 70.5028 35.4328 70.5028 28.1437 67.5835C27.8172 67.4391 27.447 67.4331 27.1175 67.567C26.7864 67.7009 26.5246 67.9627 26.3922 68.2938C26.2583 68.6248 26.2643 68.995 26.4087 69.32C26.5532 69.6466 26.8225 69.8994 27.1566 70.0228C35.0762 73.2144 43.9242 73.2144 51.8437 70.0228C52.1778 69.8994 52.4486 69.6466 52.5916 69.32C52.7361 68.995 52.7421 68.6248 52.6081 68.2938C52.4742 67.9627 52.2124 67.7009 51.8829 67.567C51.5533 67.4331 51.1831 67.4391 50.8566 67.5835Z" fill="#242A34"/>
<path d="M19.75 59.25H3.95C2.90269 59.253 1.90051 59.6698 1.16017 60.4102C0.419829 61.1505 0.00300952 62.1527 0 63.2V71.1C0.00300952 72.1473 0.419829 73.1495 1.16017 73.8898C1.90051 74.6302 2.90269 75.047 3.95 75.05H7.38688L6.952 76.3667H5.26667C4.53987 76.3667 3.95 76.9565 3.95 77.6833C3.95 78.4101 4.53987 79 5.26667 79H18.4333C19.1601 79 19.75 78.4101 19.75 77.6833C19.75 76.9565 19.1601 76.3667 18.4333 76.3667H16.748L16.3131 75.05H19.75C20.7973 75.047 21.7995 74.6302 22.5398 73.8898C23.2802 73.1495 23.697 72.1473 23.7 71.1V63.2C23.697 62.1527 23.2802 61.1505 22.5398 60.4102C21.7995 59.6698 20.7973 59.253 19.75 59.25ZM9.72979 76.3667L10.1647 75.05H13.5353L13.9702 76.3667H9.7313H9.72979ZM19.75 72.4167H3.95C3.2232 72.4167 2.63333 71.8268 2.63333 71.1H21.0667C21.0667 71.4491 20.9282 71.7847 20.6814 72.0314C20.4347 72.2782 20.0991 72.4167 19.75 72.4167ZM21.0667 68.4667H2.63333V63.2C2.63333 62.4732 3.2232 61.8833 3.95 61.8833H19.75C20.0991 61.8833 20.4347 62.0218 20.6814 62.2686C20.9282 62.5153 21.0667 62.8509 21.0667 63.2V68.4667Z" fill="#242A34"/>
</g>
<defs>
<clipPath id="clip0_226_488">
<rect width="79" height="79" fill="white"/>
</clipPath>
</defs>
</svg>
