<svg width="100" height="100" viewBox="0 0 100 100" fill="none" xmlns="http://www.w3.org/2000/svg">
<path d="M83.2619 57.0307C82.7931 57.0307 82.3635 56.7768 82.1291 56.3276C81.8361 55.7026 82.09 54.9604 82.6955 54.6479L87.8713 52.1088C88.7892 51.6596 89.4728 50.8783 89.8049 49.9213C90.1369 48.9643 90.0588 47.9291 89.6291 47.0112L82.676 32.8119C82.3635 32.1869 82.6369 31.4447 83.2424 31.1322C83.8674 30.8197 84.6096 31.0932 84.9221 31.6986L91.8752 45.8979C92.6174 47.4018 92.7346 49.1205 92.1877 50.7221C91.6408 52.3237 90.508 53.5932 89.0041 54.3354L83.8283 56.8744C83.633 56.9916 83.4377 57.0307 83.2619 57.0307Z" fill="white"/>
<path d="M27.1096 83.964C24.7854 83.964 22.5198 82.675 21.426 80.4289L0.644758 38.007C-0.09743 36.5031 -0.195086 34.7843 0.332258 33.1828C0.879133 31.5812 2.01195 30.3117 3.51585 29.5695L62.6174 0.643716C65.7424 -0.879722 69.5315 0.409341 71.0549 3.53434L77.5198 16.6984C77.8323 17.3234 77.5588 18.0656 76.9534 18.3781C76.3284 18.6906 75.5862 18.4172 75.2737 17.8117L68.8088 4.64762C67.8908 2.75309 65.6057 1.99137 63.7112 2.90934L4.62913 31.8156C3.71116 32.2648 3.02757 33.0461 2.69554 34.0031C2.36351 34.9601 2.44163 35.9953 2.87132 36.9132L23.6721 79.3351C24.5901 81.2101 26.8752 82.0109 28.7698 81.0734L31.4846 79.7453C32.1096 79.4328 32.8518 79.7062 33.1643 80.3117C33.4573 80.9367 33.2034 81.6789 32.5979 81.9914L29.883 83.3195C28.9846 83.7492 28.0471 83.964 27.1096 83.964Z" fill="white"/>
<path d="M64.9806 42.2461C63.6329 42.2461 62.3243 41.5039 61.6993 40.2148L56.4259 29.4726C55.9962 28.5937 55.9376 27.5976 56.2501 26.6797C56.5626 25.7617 57.2267 25.0195 58.1056 24.5898L77.5392 15.2929C79.336 14.414 81.5235 15.1562 82.4024 16.9726L87.6759 27.7148C88.1056 28.5937 88.1642 29.5703 87.8517 30.5078C87.5392 31.4257 86.8751 32.1679 85.9962 32.5976L66.5626 41.875C66.0743 42.1289 65.5274 42.2461 64.9806 42.2461ZM79.1407 17.4414C78.9649 17.4414 78.8087 17.4804 78.6329 17.5586L59.1993 26.8554C58.9259 26.9922 58.7306 27.2265 58.6329 27.5C58.5353 27.7929 58.5548 28.1054 58.6915 28.3789L63.9649 39.1211C64.2384 39.6875 64.9415 39.9218 65.5079 39.6484C65.5079 39.6484 65.5079 39.6484 65.5274 39.6484L84.961 30.3711C85.2149 30.2343 85.4298 30 85.5274 29.7265C85.6251 29.4531 85.6056 29.1211 85.4689 28.8476L80.1954 18.1054C79.9806 17.6757 79.5704 17.4414 79.1407 17.4414Z" fill="white"/>
<path d="M66.3478 32.5385C65.8791 32.5385 65.4494 32.2846 65.215 31.8354C64.9221 31.2104 65.176 30.4682 65.7814 30.1557L68.3596 28.9057C68.9846 28.5932 69.7267 28.8666 70.0392 29.4721C70.3322 30.0971 70.0783 30.8393 69.4728 31.1518L66.8947 32.4213C66.7189 32.4799 66.5236 32.5385 66.3478 32.5385Z" fill="white"/>
<path d="M83.223 99.9988C82.4418 99.9988 81.6605 99.8621 80.8988 99.6082L32.7738 82.5965C29.141 81.3074 27.2465 77.323 28.516 73.6902L38.3011 45.9754C38.9261 44.2176 40.1957 42.8113 41.8754 42.0106C43.555 41.2098 45.4496 41.0926 47.2074 41.7176L95.3324 58.7293C97.0902 59.3543 98.4964 60.6238 99.2972 62.3035C100.098 63.9832 100.215 65.8777 99.5902 67.6355L89.805 95.3504C89.18 97.1082 87.9105 98.5145 86.2308 99.3152C85.2738 99.7645 84.2582 99.9988 83.223 99.9988ZM44.9027 43.827C44.2386 43.827 43.5746 43.9832 42.9691 44.2762C41.8949 44.784 41.0746 45.702 40.684 46.8152L30.8988 74.5301C30.0785 76.8543 31.309 79.4129 33.6332 80.2332L81.7582 97.2449C82.8715 97.6356 84.1019 97.577 85.1761 97.0496C86.2504 96.5418 87.0707 95.6238 87.4613 94.5106L97.2464 66.7957C97.6371 65.6824 97.5785 64.452 97.0511 63.3777C96.5433 62.3035 95.6254 61.4832 94.5121 61.0926L46.3871 44.0809C45.8988 43.9246 45.391 43.827 44.9027 43.827Z" fill="white"/>
<path d="M42.3634 75.858C42.2267 75.858 42.0899 75.8385 41.9532 75.7799L37.9103 74.3541C37.2657 74.1197 36.9142 73.4166 37.1485 72.7525C37.3829 72.108 38.086 71.7564 38.7501 71.9908L42.7931 73.4166C43.4376 73.651 43.7892 74.3541 43.5548 75.0182C43.379 75.526 42.8907 75.858 42.3634 75.858Z" fill="white"/>
<path d="M55.3126 80.4283C55.1759 80.4283 55.0392 80.4088 54.9024 80.3502L50.8595 78.9244C50.2149 78.69 49.8634 77.9869 50.0978 77.3229C50.3321 76.6783 51.0353 76.3268 51.6993 76.5611L55.7423 77.9869C56.3868 78.2213 56.7384 78.9244 56.504 79.5885C56.3087 80.0963 55.8204 80.4283 55.3126 80.4283Z" fill="white"/>
<path d="M68.2618 84.9986C68.1251 84.9986 67.9884 84.9791 67.8517 84.9205L63.8087 83.4947C63.1642 83.2604 62.8126 82.5572 63.047 81.8932C63.2813 81.2486 63.9845 80.8971 64.6485 81.1314L68.6915 82.5572C69.336 82.7916 69.6876 83.4947 69.4532 84.1588C69.2579 84.6666 68.7696 84.9986 68.2618 84.9986Z" fill="white"/>
<path d="M96.6993 71.9518C96.5626 71.9518 96.4259 71.9322 96.2892 71.8736L38.3399 51.4049C37.6954 51.1705 37.3438 50.4674 37.5782 49.8033C37.8126 49.1588 38.5157 48.8072 39.1798 49.0416L97.129 69.5103C97.7735 69.7447 98.1251 70.4479 97.8907 71.1119C97.6954 71.6197 97.2267 71.9518 96.6993 71.9518Z" fill="white"/>
<path d="M93.5157 80.9752C93.379 80.9752 93.2423 80.9557 93.1056 80.8971L35.1563 60.4283C34.5118 60.1939 34.1603 59.4908 34.3946 58.8268C34.629 58.1822 35.3321 57.8307 35.9962 58.065L93.9454 78.5338C94.5899 78.7682 94.9415 79.4713 94.7071 80.1354C94.5118 80.6627 94.0235 80.9752 93.5157 80.9752Z" fill="white"/>
<path d="M81.1915 89.5689C81.0548 89.5689 80.9181 89.5494 80.7813 89.4908L76.7384 88.065C76.0938 87.8307 75.7423 87.1275 75.9767 86.4635C76.211 85.8189 76.9142 85.4674 77.5782 85.7018L81.6212 87.1275C82.2657 87.3619 82.6173 88.065 82.3829 88.7291C82.1876 89.2369 81.7189 89.5689 81.1915 89.5689Z" fill="white"/>
</svg>
