<?xml version="1.0" encoding="utf-8"?>
<!-- Generator: Adobe Illustrator 24.2.1, SVG Export Plug-In . SVG Version: 6.00 Build 0)  -->
<svg version="1.1" id="Layer_1" xmlns="http://www.w3.org/2000/svg" xmlns:xlink="http://www.w3.org/1999/xlink" x="0px" y="0px"
	 viewBox="0 0 24 24" style="enable-background:new 0 0 24 24;" xml:space="preserve">
<style type="text/css">
	.st0{fill:#000000;}
	.st1{fill:#fafafa;}
</style>
<rect x="4.4" y="20.6" class="st0" width="0.8" height="0.9"/>
<rect x="8.4" y="20.2" class="st0" width="0.8" height="1.4"/>
<rect x="8.4" y="16.5" class="st0" width="0.8" height="0.9"/>
<path class="st0" d="M19.6,0H3.4C2.1,0,1,1.1,1,2.4v19.3C1,22.9,2.1,24,3.4,24h16.3c1.3,0,2.4-1.1,2.4-2.4V2.4C22,1.1,20.9,0,19.6,0
	z M7.6,15.8h2.3v2.3H7.6V15.8z M6.5,16.7h0.7v1.4H6.5V16.7z M7.1,18.7v0.7v0.7H6.4v-0.7H5.7v-0.7h0.7H7.1z M3.8,15.8H6h0.1v2.3H3.8
	V15.8z M3.7,18.7h0.8v0.8H3.7V18.7z M5.9,22.1H3.6v-2.3h2.3V22.1z M10,21.6H9.2v0.8H8.4v-0.7H7.7v-0.3H7v0.7H6.4v-1.4H7h0.7v-0.5
	h0.7v-0.7H7.6v-0.8h0.8v0.7h0.8v-0.7h0.7v0.7H9.2v0.8H10V21.6z"/>
<rect x="4.5" y="16.5" class="st0" width="0.8" height="0.9"/>
<path class="st1" d="M21,0h-1.6v0c-0.1,0-0.2,0-0.3,0h-1.6v0c-0.1,0-0.2,0-0.3,0h-1.6h-0.2H15v6.6c0,0.6-0.2,1.2-0.6,1.6l-1.9,2
	c-0.5,0.7-0.5,2.7,0,3.4l2.1,2.4c0.3,0.4,0.5,0.9,0.5,1.4l0.1,6.6h0.2h0.2h1.6c0.1,0,0.2,0,0.3,0v0h1.6c0.1,0,0.2,0,0.3,0v0H21
	c1.1,0,2-0.9,2-2V2C23,0.9,22.1,0,21,0z"/>
</svg>
