<svg width="512" height="512" viewBox="0 0 512 512" fill="none" xmlns="http://www.w3.org/2000/svg">
<path fill-rule="evenodd" clip-rule="evenodd" d="M414.73 97.0991C394.021 76.3798 369.418 59.9612 342.337 48.7886C315.257 37.616 286.234 31.91 256.94 31.9991C134 31.9991 33.92 131.579 33.87 253.999C33.8156 292.98 44.091 331.28 63.65 364.999L32 479.999L150.25 449.129C182.982 466.861 219.623 476.142 256.85 476.129H256.94C379.87 476.129 479.94 376.539 480 254.129C480.074 224.935 474.342 196.017 463.137 169.058C451.931 142.1 435.477 117.639 414.73 97.0991ZM256.94 438.659H256.86C223.674 438.669 191.091 429.788 162.5 412.939L155.73 408.939L85.56 427.259L104.29 359.169L99.88 352.169C81.3239 322.791 71.4925 288.747 71.53 253.999C71.53 152.269 154.74 69.4991 257.01 69.4991C306.07 69.4115 353.156 88.8144 387.911 123.44C422.666 158.066 442.245 205.079 442.34 254.139C442.3 355.879 359.13 438.659 256.94 438.659ZM358.63 300.469C353.06 297.689 325.63 284.269 320.55 282.419C315.47 280.569 311.72 279.639 308.01 285.199C304.3 290.759 293.61 303.199 290.36 306.949C287.11 310.699 283.86 311.109 278.29 308.329C272.72 305.549 254.75 299.699 233.46 280.799C216.89 266.089 205.71 247.929 202.46 242.379C199.21 236.829 202.11 233.819 204.9 231.059C207.41 228.569 210.47 224.579 213.26 221.339C216.05 218.099 216.98 215.779 218.83 212.079C220.68 208.379 219.76 205.139 218.37 202.369C216.98 199.599 205.83 172.289 201.19 161.179C196.66 150.359 192.07 151.829 188.65 151.659C185.4 151.499 181.65 151.459 177.96 151.459C175.139 151.533 172.364 152.187 169.807 153.381C167.25 154.575 164.967 156.283 163.1 158.399C157.99 163.959 143.59 177.399 143.59 204.679C143.59 231.959 163.59 258.359 166.35 262.059C169.11 265.759 205.65 321.789 261.56 345.819C271.942 350.265 282.55 354.164 293.34 357.499C306.69 361.719 318.84 361.129 328.44 359.699C339.15 358.109 361.44 346.279 366.07 333.319C370.7 320.359 370.71 309.259 369.32 306.949C367.93 304.639 364.21 303.239 358.63 300.469Z" fill="#0F0F1C"/>
</svg>
